<svg width="36" height="21" viewBox="0 0 36 21" fill="none" xmlns="http://www.w3.org/2000/svg">
<path d="M0.565931 11.3045C0.188644 11.1145 0 10.8464 0 10.5C0 10.1536 0.188644 9.88548 0.565931 9.69553H31.5824C29.6621 8.27654 28.1755 6.56145 27.1225 4.55028C26.4467 3.25978 26.0019 1.98603 25.7879 0.729051C25.7879 0.673185 25.7794 0.617318 25.7626 0.561453C25.7513 0.511173 25.7457 0.472068 25.7457 0.444135C25.7457 0.148045 26.016 0 26.5565 0C26.8775 0 27.0859 0.0335203 27.1816 0.100559C27.2773 0.167598 27.3534 0.321229 27.4097 0.561453C27.4885 1.09777 27.6349 1.64805 27.8489 2.21229C28.4458 4.01117 29.4341 5.61453 30.8137 7.02235C32.1933 8.43017 33.801 9.44134 35.6368 10.0559C35.8789 10.1397 36 10.2877 36 10.5C36 10.7123 35.8789 10.8603 35.6368 10.9441C33.801 11.5587 32.1933 12.5698 30.8137 13.9777C29.4341 15.3855 28.4458 16.9888 27.8489 18.7877C27.6631 19.352 27.5167 19.8883 27.4097 20.3966C27.3534 20.6648 27.2773 20.8324 27.1816 20.8994C27.0859 20.9665 26.8775 21 26.5565 21C25.9878 21 25.7034 20.852 25.7034 20.5559C25.7034 20.4777 25.7851 20.1425 25.9484 19.5503C26.7874 16.1983 28.6654 13.4497 31.5824 11.3045H0.565931Z" fill="#F8FBFF"/>
</svg>
