<svg width="403" height="147" viewBox="0 0 403 147" fill="none" xmlns="http://www.w3.org/2000/svg">
<path d="M399.893 138.42C399.147 138.42 398.587 138.257 398.213 137.93C397.84 137.603 397.653 137.078 397.653 136.355C397.653 135.655 397.84 135.142 398.213 134.815C398.587 134.488 399.147 134.325 399.893 134.325C400.663 134.325 401.235 134.488 401.608 134.815C402.005 135.142 402.203 135.667 402.203 136.39C402.203 137.743 401.433 138.42 399.893 138.42Z" fill="#F6F5F3"/>
<path d="M386.79 138.455C385.367 138.455 384.107 138.245 383.01 137.825C381.937 137.382 381.027 136.752 380.28 135.935C379.533 135.118 378.973 134.15 378.6 133.03C378.227 131.91 378.04 130.65 378.04 129.25C378.04 127.827 378.227 126.52 378.6 125.33C378.973 124.14 379.522 123.102 380.245 122.215C380.968 121.328 381.855 120.652 382.905 120.185C383.955 119.695 385.157 119.45 386.51 119.45C387.7 119.45 388.785 119.648 389.765 120.045C390.745 120.442 391.573 121.06 392.25 121.9C392.95 122.717 393.475 123.755 393.825 125.015C394.175 126.252 394.315 127.71 394.245 129.39L380.035 129.495V127.325L392.32 127.22L391.235 128.69C391.352 127.22 391.212 126.007 390.815 125.05C390.418 124.093 389.847 123.37 389.1 122.88C388.377 122.39 387.513 122.145 386.51 122.145C385.437 122.145 384.492 122.425 383.675 122.985C382.858 123.545 382.228 124.35 381.785 125.4C381.365 126.45 381.155 127.722 381.155 129.215C381.155 131.362 381.633 133.007 382.59 134.15C383.547 135.27 384.97 135.83 386.86 135.83C387.583 135.83 388.213 135.748 388.75 135.585C389.31 135.398 389.777 135.153 390.15 134.85C390.547 134.523 390.862 134.15 391.095 133.73C391.352 133.31 391.55 132.855 391.69 132.365L394.49 133.03C394.28 133.87 393.953 134.628 393.51 135.305C393.09 135.958 392.553 136.518 391.9 136.985C391.27 137.452 390.535 137.813 389.695 138.07C388.855 138.327 387.887 138.455 386.79 138.455Z" fill="#F6F5F3"/>
<path d="M347.012 138V126.8V119.905H349.847L349.532 125.645H350.127C350.43 124.268 350.838 123.125 351.352 122.215C351.865 121.282 352.495 120.593 353.242 120.15C354.012 119.683 354.887 119.45 355.867 119.45C357.033 119.45 357.99 119.742 358.737 120.325C359.483 120.885 360.032 121.62 360.382 122.53C360.755 123.44 360.942 124.443 360.942 125.54H361.502C361.758 124.233 362.155 123.125 362.692 122.215C363.228 121.305 363.893 120.617 364.687 120.15C365.48 119.683 366.39 119.45 367.417 119.45C368.35 119.45 369.167 119.637 369.867 120.01C370.567 120.383 371.162 120.943 371.652 121.69C372.142 122.413 372.503 123.312 372.737 124.385C372.97 125.458 373.087 126.695 373.087 128.095V138H369.902V128.515C369.902 127.138 369.773 125.995 369.517 125.085C369.26 124.152 368.875 123.463 368.362 123.02C367.872 122.553 367.242 122.32 366.472 122.32C365.608 122.32 364.827 122.623 364.127 123.23C363.45 123.813 362.89 124.642 362.447 125.715C362.027 126.765 361.747 127.967 361.607 129.32V138H358.492V128.83C358.492 127.383 358.363 126.182 358.107 125.225C357.85 124.268 357.465 123.545 356.952 123.055C356.462 122.565 355.82 122.32 355.027 122.32C354.093 122.32 353.288 122.647 352.612 123.3C351.935 123.93 351.387 124.782 350.967 125.855C350.57 126.928 350.313 128.13 350.197 129.46V138H347.012Z" fill="#F6F5F3"/>
<path d="M322.779 138V128.2V119.905H325.649L325.369 126.205H325.964C326.174 124.828 326.501 123.638 326.944 122.635C327.388 121.632 327.971 120.85 328.694 120.29C329.441 119.73 330.363 119.45 331.459 119.45C331.693 119.45 331.961 119.473 332.264 119.52C332.568 119.543 332.918 119.625 333.314 119.765L333.139 123.09C332.789 122.95 332.439 122.857 332.089 122.81C331.739 122.74 331.401 122.705 331.074 122.705C330.164 122.705 329.371 122.997 328.694 123.58C328.041 124.163 327.493 124.957 327.049 125.96C326.606 126.94 326.244 128.048 325.964 129.285V138H322.779Z" fill="#F6F5F3"/>
<path d="M308.829 138.455C307.102 138.455 305.574 138.082 304.244 137.335C302.937 136.565 301.911 135.468 301.164 134.045C300.441 132.622 300.079 130.895 300.079 128.865C300.079 126.765 300.464 125.027 301.234 123.65C302.027 122.25 303.077 121.2 304.384 120.5C305.691 119.8 307.149 119.45 308.759 119.45C310.439 119.45 311.932 119.823 313.239 120.57C314.569 121.293 315.619 122.367 316.389 123.79C317.159 125.19 317.544 126.928 317.544 129.005C317.544 131.082 317.159 132.82 316.389 134.22C315.642 135.62 314.604 136.682 313.274 137.405C311.967 138.105 310.486 138.455 308.829 138.455ZM308.969 135.83C310.089 135.83 311.046 135.562 311.839 135.025C312.656 134.465 313.274 133.683 313.694 132.68C314.137 131.677 314.359 130.487 314.359 129.11C314.359 127.687 314.126 126.462 313.659 125.435C313.216 124.385 312.574 123.58 311.734 123.02C310.894 122.437 309.879 122.145 308.689 122.145C307.616 122.145 306.671 122.402 305.854 122.915C305.037 123.428 304.407 124.187 303.964 125.19C303.521 126.17 303.299 127.372 303.299 128.795C303.299 130.988 303.801 132.715 304.804 133.975C305.831 135.212 307.219 135.83 308.969 135.83Z" fill="#F6F5F3"/>
<path d="M288.84 138V125.225H285.62V122.67L290.135 122.95V122.355C289.552 122.122 289.062 121.807 288.665 121.41C288.292 120.99 288 120.512 287.79 119.975C287.603 119.438 287.51 118.867 287.51 118.26C287.51 117.28 287.72 116.428 288.14 115.705C288.583 114.982 289.202 114.41 289.995 113.99C290.812 113.57 291.78 113.36 292.9 113.36C293.787 113.36 294.58 113.488 295.28 113.745C296.003 113.978 296.598 114.293 297.065 114.69L296.68 117.665C296.237 117.245 295.7 116.918 295.07 116.685C294.44 116.428 293.81 116.3 293.18 116.3C292.41 116.3 291.78 116.545 291.29 117.035C290.8 117.525 290.555 118.283 290.555 119.31C290.555 119.893 290.637 120.395 290.8 120.815C290.963 121.235 291.173 121.597 291.43 121.9C291.71 122.18 291.99 122.413 292.27 122.6H296.75L296.715 125.225H291.99V138H288.84Z" fill="#F6F5F3"/>
<path d="M269.799 138.35C268.119 138.35 266.87 137.895 266.054 136.985C265.237 136.075 264.829 134.687 264.829 132.82V122.565H262.099L262.134 119.905H263.849C264.432 119.905 264.852 119.8 265.109 119.59C265.389 119.38 265.552 119.03 265.599 118.54L265.949 115.81H267.909V119.905H273.124V122.6H267.909V132.75C267.909 133.683 268.119 134.36 268.539 134.78C268.982 135.177 269.612 135.375 270.429 135.375C270.872 135.375 271.327 135.317 271.794 135.2C272.284 135.083 272.762 134.85 273.229 134.5V137.685C272.552 137.942 271.922 138.117 271.339 138.21C270.779 138.303 270.265 138.35 269.799 138.35Z" fill="#F6F5F3"/>
<path d="M251.624 138.455C250.364 138.455 249.244 138.315 248.264 138.035C247.284 137.778 246.467 137.405 245.814 136.915C245.161 136.402 244.659 135.795 244.309 135.095C243.959 134.395 243.772 133.625 243.749 132.785L246.444 132.085C246.397 132.855 246.584 133.532 247.004 134.115C247.447 134.675 248.066 135.107 248.859 135.41C249.676 135.713 250.656 135.865 251.799 135.865C253.176 135.865 254.237 135.632 254.984 135.165C255.754 134.698 256.139 134.057 256.139 133.24C256.139 132.587 255.929 132.085 255.509 131.735C255.089 131.362 254.506 131.07 253.759 130.86C253.036 130.627 252.172 130.417 251.169 130.23C250.329 130.043 249.489 129.833 248.649 129.6C247.809 129.367 247.039 129.063 246.339 128.69C245.662 128.293 245.114 127.78 244.694 127.15C244.274 126.52 244.064 125.738 244.064 124.805C244.064 123.708 244.356 122.763 244.939 121.97C245.522 121.177 246.351 120.558 247.424 120.115C248.497 119.672 249.781 119.45 251.274 119.45C252.767 119.45 254.039 119.683 255.089 120.15C256.139 120.593 256.967 121.223 257.574 122.04C258.181 122.857 258.519 123.813 258.589 124.91L255.824 125.61C255.801 124.84 255.591 124.187 255.194 123.65C254.821 123.113 254.284 122.717 253.584 122.46C252.884 122.18 252.067 122.04 251.134 122.04C249.897 122.04 248.917 122.273 248.194 122.74C247.471 123.207 247.109 123.848 247.109 124.665C247.109 125.272 247.319 125.762 247.739 126.135C248.182 126.508 248.777 126.8 249.524 127.01C250.271 127.22 251.099 127.43 252.009 127.64C252.942 127.827 253.829 128.037 254.669 128.27C255.532 128.503 256.302 128.807 256.979 129.18C257.656 129.553 258.192 130.055 258.589 130.685C258.986 131.292 259.184 132.073 259.184 133.03C259.184 134.22 258.869 135.223 258.239 136.04C257.609 136.833 256.722 137.44 255.579 137.86C254.459 138.257 253.141 138.455 251.624 138.455Z" fill="#F6F5F3"/>
<path d="M229.473 138.455C227.466 138.455 225.949 137.755 224.923 136.355C223.896 134.955 223.383 132.867 223.383 130.09V119.905H226.603V129.81C226.603 131.77 226.906 133.228 227.513 134.185C228.119 135.142 229.076 135.62 230.383 135.62C231.106 135.62 231.748 135.445 232.308 135.095C232.891 134.745 233.404 134.243 233.848 133.59C234.291 132.937 234.653 132.167 234.933 131.28C235.213 130.37 235.399 129.39 235.493 128.34V119.905H238.678V130.44V138H235.843L236.123 132.19H235.598C235.294 133.637 234.863 134.827 234.303 135.76C233.766 136.67 233.089 137.347 232.273 137.79C231.456 138.233 230.523 138.455 229.473 138.455Z" fill="#F6F5F3"/>
<path d="M212.225 144.44C211.922 144.44 211.595 144.405 211.245 144.335C210.895 144.288 210.522 144.207 210.125 144.09L209.88 141.15C211.397 141.5 212.493 141.5 213.17 141.15C213.87 140.8 214.22 139.913 214.22 138.49V119.905H217.44V138.14C217.44 139.167 217.323 140.077 217.09 140.87C216.88 141.663 216.565 142.317 216.145 142.83C215.725 143.367 215.188 143.763 214.535 144.02C213.882 144.3 213.112 144.44 212.225 144.44ZM215.83 116.755C215.083 116.755 214.523 116.603 214.15 116.3C213.777 115.997 213.59 115.542 213.59 114.935C213.59 114.328 213.777 113.873 214.15 113.57C214.523 113.267 215.072 113.115 215.795 113.115C216.542 113.115 217.102 113.267 217.475 113.57C217.848 113.873 218.035 114.328 218.035 114.935C218.035 115.518 217.848 115.973 217.475 116.3C217.102 116.603 216.553 116.755 215.83 116.755Z" fill="#F6F5F3"/>
<path d="M202.116 125.33C202.116 126.59 201.439 127.64 200.086 128.48C198.733 129.297 197.018 129.705 194.941 129.705C194.194 129.705 193.366 129.647 192.456 129.53C191.593 131.327 191.161 132.995 191.161 134.535C191.161 136.612 192.083 137.65 193.926 137.65C195.349 137.65 196.738 136.903 198.091 135.41C198.394 135.083 198.593 134.92 198.686 134.92C198.803 134.92 198.861 134.978 198.861 135.095C198.861 135.632 198.313 136.297 197.216 137.09C195.956 138 194.649 138.455 193.296 138.455C191.779 138.455 190.531 138.012 189.551 137.125C188.571 136.238 188.081 135.118 188.081 133.765C188.081 131.152 189.504 128.62 192.351 126.17C194.848 124.023 197.076 122.95 199.036 122.95C201.089 122.95 202.116 123.743 202.116 125.33ZM199.631 124.735C199.631 124.012 199.269 123.65 198.546 123.65C197.799 123.65 197.064 123.93 196.341 124.49C195.034 125.517 193.833 127.045 192.736 129.075C193.016 129.098 193.331 129.11 193.681 129.11C194.988 129.11 196.259 128.713 197.496 127.92C198.919 127.033 199.631 125.972 199.631 124.735Z" fill="#DF97DF"/>
<path d="M188.451 125.54C188.451 126.683 187.972 127.255 187.016 127.255C186.689 127.255 186.397 127.138 186.141 126.905C185.884 126.648 185.756 126.368 185.756 126.065C185.756 125.505 186.071 125.225 186.701 125.225L186.981 125.26C187.144 125.33 187.284 125.377 187.401 125.4C187.587 125.4 187.681 125.272 187.681 125.015C187.681 124.642 187.447 124.315 186.981 124.035C186.537 123.732 186.036 123.58 185.476 123.58C183.749 123.58 182.081 124.863 180.471 127.43C178.814 130.067 177.986 132.528 177.986 134.815C177.986 136.775 178.872 137.755 180.646 137.755C181.976 137.755 183.317 136.95 184.671 135.34C184.904 135.06 185.091 134.92 185.231 134.92C185.347 134.92 185.406 134.99 185.406 135.13C185.406 135.41 185.102 135.853 184.496 136.46C183.166 137.79 181.672 138.455 180.016 138.455C178.499 138.455 177.274 138.023 176.341 137.16C175.431 136.273 174.976 135.107 174.976 133.66C174.976 131.21 176.282 128.702 178.896 126.135C181.042 124.012 183.259 122.95 185.546 122.95C186.409 122.95 187.109 123.195 187.646 123.685C188.182 124.152 188.451 124.77 188.451 125.54Z" fill="#DF97DF"/>
<path d="M174.195 123.09C174.195 123.16 174.102 123.405 173.915 123.825L169.295 134.325C168.852 135.328 168.63 136.098 168.63 136.635C168.63 137.242 168.934 137.545 169.54 137.545C170.45 137.545 171.36 136.927 172.27 135.69C172.457 135.433 172.597 135.305 172.69 135.305C172.784 135.305 172.83 135.352 172.83 135.445C172.83 135.702 172.574 136.11 172.06 136.67C171.034 137.767 169.809 138.315 168.385 138.315C167.662 138.315 167.067 138.14 166.6 137.79C166.157 137.44 165.935 136.985 165.935 136.425C165.935 136.075 166.017 135.667 166.18 135.2C164.71 137.37 163.007 138.455 161.07 138.455C159.857 138.455 158.865 138.07 158.095 137.3C157.325 136.507 156.94 135.503 156.94 134.29C156.94 132.96 157.384 131.502 158.27 129.915C159.157 128.328 160.335 126.882 161.805 125.575C163.812 123.802 165.655 122.915 167.335 122.915C169.085 122.915 170.065 123.755 170.275 125.435L171.15 123.58C171.337 123.207 171.5 123.02 171.64 123.02C171.687 123.02 171.827 123.043 172.06 123.09C172.294 123.137 172.457 123.16 172.55 123.16C173.064 123.16 173.46 123.09 173.74 122.95C173.834 122.88 173.915 122.845 173.985 122.845C174.125 122.845 174.195 122.927 174.195 123.09ZM169.785 126.065C169.785 125.342 169.564 124.758 169.12 124.315C168.7 123.872 168.152 123.65 167.475 123.65C166.309 123.65 165.189 124.338 164.115 125.715C162.879 127.278 161.887 128.935 161.14 130.685C160.394 132.412 160.02 133.928 160.02 135.235C160.02 136.822 160.674 137.615 161.98 137.615C162.727 137.615 163.532 137.207 164.395 136.39C165.282 135.573 166.017 134.547 166.6 133.31L169.33 127.43C169.634 126.777 169.785 126.322 169.785 126.065Z" fill="#DF97DF"/>
<path d="M155.773 127.01C155.773 129.717 154.664 132.295 152.448 134.745C150.231 137.172 147.886 138.385 145.413 138.385C143.826 138.385 142.753 137.673 142.193 136.25L139.253 143.495C139.066 143.938 138.938 144.3 138.868 144.58C138.658 145.163 138.424 145.677 138.168 146.12C139.871 146.19 140.723 146.307 140.723 146.47C140.723 146.657 140.431 146.75 139.848 146.75C139.334 146.75 138.704 146.727 137.958 146.68L136.908 146.61C136.931 146.61 136.721 146.622 136.278 146.645C135.764 146.668 135.263 146.692 134.773 146.715L133.373 146.75C132.883 146.773 132.638 146.68 132.638 146.47C132.638 146.237 132.964 146.108 133.618 146.085C134.481 146.038 135.018 145.933 135.228 145.77C135.438 145.607 135.741 145.058 136.138 144.125L143.978 125.295C144.374 124.338 144.573 123.837 144.573 123.79C144.573 123.603 144.433 123.51 144.153 123.51H143.803C143.686 123.533 143.499 123.545 143.243 123.545C142.823 123.545 142.613 123.452 142.613 123.265C142.613 123.102 142.753 123.02 143.033 123.02H143.593C145.459 123.02 146.673 122.95 147.233 122.81C147.419 122.763 147.536 122.74 147.583 122.74C147.723 122.74 147.793 122.81 147.793 122.95C147.793 123.09 147.466 123.883 146.813 125.33C147.886 124.373 148.738 123.732 149.368 123.405C150.021 123.055 150.733 122.88 151.503 122.88C152.739 122.88 153.754 123.265 154.548 124.035C155.364 124.805 155.773 125.797 155.773 127.01ZM152.798 125.785C152.798 124.408 152.179 123.72 150.943 123.72C149.729 123.72 148.493 124.443 147.233 125.89C146.253 127.01 145.284 128.772 144.328 131.175L143.173 134.045C142.916 134.675 142.788 135.142 142.788 135.445C142.788 136.052 143.021 136.577 143.488 137.02C143.954 137.463 144.514 137.685 145.168 137.685C147.058 137.685 148.854 136.098 150.558 132.925C152.051 130.148 152.798 127.768 152.798 125.785Z" fill="#DF97DF"/>
<path d="M139.473 125.61C139.473 126.007 139.345 126.345 139.088 126.625C138.831 126.905 138.528 127.045 138.178 127.045C137.478 127.045 137.128 126.707 137.128 126.03C137.128 125.47 137.361 125.19 137.828 125.19C137.898 125.19 138.003 125.225 138.143 125.295C138.306 125.365 138.435 125.4 138.528 125.4C138.668 125.4 138.738 125.318 138.738 125.155C138.738 124.758 138.47 124.373 137.933 124C137.396 123.627 136.848 123.44 136.288 123.44C135.541 123.44 134.911 123.685 134.398 124.175C133.885 124.642 133.628 125.213 133.628 125.89C133.628 126.473 134.176 128.095 135.273 130.755C135.53 131.385 135.658 132.097 135.658 132.89C135.658 134.477 135.121 135.807 134.048 136.88C132.975 137.953 131.633 138.49 130.023 138.49C128.623 138.49 127.445 138.105 126.488 137.335C125.555 136.542 125.088 135.573 125.088 134.43C125.088 133.777 125.286 133.24 125.683 132.82C126.056 132.4 126.535 132.19 127.118 132.19C127.561 132.19 127.935 132.342 128.238 132.645C128.565 132.948 128.728 133.31 128.728 133.73C128.728 134.43 128.39 134.78 127.713 134.78C126.99 134.78 126.628 134.535 126.628 134.045C126.628 133.882 126.651 133.718 126.698 133.555C126.768 133.392 126.803 133.298 126.803 133.275C126.803 133.042 126.71 132.925 126.523 132.925C126.313 132.925 126.126 133.088 125.963 133.415C125.776 133.718 125.683 134.057 125.683 134.43C125.683 135.34 126.056 136.133 126.803 136.81C127.573 137.487 128.471 137.825 129.498 137.825C130.455 137.825 131.248 137.533 131.878 136.95C132.531 136.367 132.858 135.632 132.858 134.745C132.858 134.115 132.613 133.088 132.123 131.665C131.656 130.312 131.423 129.192 131.423 128.305C131.423 126.788 131.878 125.517 132.788 124.49C133.721 123.44 134.853 122.915 136.183 122.915C137.07 122.915 137.84 123.183 138.493 123.72C139.146 124.257 139.473 124.887 139.473 125.61Z" fill="#DF97DF"/>
<path d="M121.188 123.335C121.188 123.662 120.698 123.837 119.718 123.86L118.388 123.895H117.758L113.033 134.5C112.52 135.643 112.263 136.367 112.263 136.67C112.263 137.16 112.625 137.405 113.348 137.405C114.398 137.405 115.331 136.845 116.148 135.725C116.335 135.492 116.475 135.375 116.568 135.375C116.755 135.375 116.848 135.457 116.848 135.62C116.848 135.923 116.463 136.413 115.693 137.09C114.806 137.86 113.745 138.245 112.508 138.245C111.668 138.245 110.98 138.035 110.443 137.615C109.93 137.195 109.673 136.658 109.673 136.005C109.673 135.585 109.941 134.803 110.478 133.66L115.063 123.825H113.628C113.231 123.825 113.033 123.743 113.033 123.58C113.033 123.277 113.196 123.125 113.523 123.125H113.838C113.955 123.148 114.141 123.16 114.398 123.16C114.725 123.16 115.04 123.148 115.343 123.125L115.938 121.62C116.148 121.107 116.311 120.85 116.428 120.85C116.545 120.85 116.72 120.873 116.953 120.92C117.21 120.967 117.408 120.99 117.548 120.99C117.805 120.99 118.178 120.873 118.668 120.64C118.761 120.593 118.843 120.57 118.913 120.57C119.03 120.57 119.088 120.617 119.088 120.71C119.088 120.71 118.96 120.99 118.703 121.55L117.933 123.23L118.773 123.195L120.103 123.125C120.22 123.125 120.36 123.113 120.523 123.09C120.686 123.067 120.78 123.055 120.803 123.055C121.06 123.055 121.188 123.148 121.188 123.335Z" fill="#DF97DF"/>
<path d="M109.888 125.33C109.888 126.59 109.211 127.64 107.858 128.48C106.504 129.297 104.789 129.705 102.713 129.705C101.966 129.705 101.138 129.647 100.228 129.53C99.3642 131.327 98.9325 132.995 98.9325 134.535C98.9325 136.612 99.8542 137.65 101.698 137.65C103.121 137.65 104.509 136.903 105.863 135.41C106.166 135.083 106.364 134.92 106.458 134.92C106.574 134.92 106.633 134.978 106.633 135.095C106.633 135.632 106.084 136.297 104.988 137.09C103.728 138 102.421 138.455 101.068 138.455C99.5509 138.455 98.3025 138.012 97.3225 137.125C96.3425 136.238 95.8525 135.118 95.8525 133.765C95.8525 131.152 97.2759 128.62 100.123 126.17C102.619 124.023 104.848 122.95 106.808 122.95C108.861 122.95 109.888 123.743 109.888 125.33ZM107.403 124.735C107.403 124.012 107.041 123.65 106.318 123.65C105.571 123.65 104.836 123.93 104.113 124.49C102.806 125.517 101.604 127.045 100.508 129.075C100.788 129.098 101.103 129.11 101.453 129.11C102.759 129.11 104.031 128.713 105.268 127.92C106.691 127.033 107.403 125.972 107.403 124.735Z" fill="#DF97DF"/>
<path d="M97.6295 116.615C97.6295 117.595 97.1745 118.085 96.2645 118.085C95.7978 118.085 95.4128 117.945 95.1095 117.665C94.8061 117.362 94.6545 116.988 94.6545 116.545C94.6545 115.588 95.1911 115.11 96.2645 115.11C97.1745 115.11 97.6295 115.612 97.6295 116.615ZM95.2145 123.16C95.2145 123.23 95.1561 123.37 95.0395 123.58C94.8761 123.86 94.6078 124.432 94.2345 125.295L90.2095 134.5C89.6728 135.737 89.4045 136.507 89.4045 136.81C89.4045 137.44 89.7311 137.755 90.3845 137.755C90.8278 137.755 91.3295 137.603 91.8895 137.3C92.4728 136.973 92.9161 136.588 93.2195 136.145C93.4295 135.865 93.5928 135.725 93.7095 135.725C93.8495 135.725 93.9195 135.795 93.9195 135.935C93.9195 136.215 93.5928 136.635 92.9395 137.195C91.9595 138.035 90.8511 138.455 89.6145 138.455C88.7978 138.455 88.1211 138.245 87.5845 137.825C87.0711 137.405 86.8145 136.868 86.8145 136.215C86.8145 135.632 87.1061 134.687 87.6895 133.38L91.3295 125.26C91.4461 124.863 91.5861 124.56 91.7495 124.35C91.8195 124.257 91.8545 124.175 91.8545 124.105C91.8545 123.895 91.3411 123.755 90.3145 123.685C90.1278 123.638 90.0345 123.557 90.0345 123.44C90.0345 123.23 90.1278 123.125 90.3145 123.125C90.3378 123.125 90.5128 123.148 90.8395 123.195C91.1661 123.242 91.6911 123.265 92.4145 123.265C93.3945 123.265 94.0828 123.183 94.4795 123.02C94.7128 122.927 94.8761 122.88 94.9695 122.88C95.1328 122.88 95.2145 122.973 95.2145 123.16Z" fill="#DF97DF"/>
<path d="M85.8941 123.37C85.8941 123.37 85.8708 123.428 85.8241 123.545L85.5791 124.105L81.6591 133.24C80.8658 135.083 80.4691 136.227 80.4691 136.67C80.4691 137.3 80.7724 137.615 81.3791 137.615C82.2424 137.615 83.1991 137.008 84.2491 135.795C84.5058 135.492 84.6808 135.34 84.7741 135.34C84.9141 135.34 84.9841 135.41 84.9841 135.55C84.9841 136.11 84.2958 136.81 82.9191 137.65C82.1024 138.14 81.2624 138.385 80.3991 138.385C79.7224 138.385 79.1274 138.198 78.6141 137.825C78.1008 137.452 77.8441 137.02 77.8441 136.53C77.8441 136.25 77.9491 135.818 78.1591 135.235L78.5791 134.045C77.0158 135.842 75.8258 137.008 75.0091 137.545C74.2158 138.082 73.2358 138.35 72.0691 138.35C71.1591 138.35 70.4124 138.175 69.8291 137.825C69.2458 137.452 68.9541 136.973 68.9541 136.39C68.9541 135.76 69.2108 134.873 69.7241 133.73L73.3291 125.645C73.4224 125.435 73.6208 125.027 73.9241 124.42C73.9941 124.303 74.0291 124.222 74.0291 124.175C74.0291 123.988 73.7491 123.895 73.1891 123.895C72.4424 123.895 72.0691 123.767 72.0691 123.51C72.0691 123.347 72.1508 123.265 72.3141 123.265C72.5008 123.265 72.7691 123.288 73.1191 123.335C73.4691 123.382 73.7374 123.405 73.9241 123.405C75.1374 123.405 76.0358 123.3 76.6191 123.09C76.7591 123.043 76.8524 123.02 76.8991 123.02C77.0158 123.02 77.0741 123.09 77.0741 123.23C77.0741 123.417 76.8408 124.012 76.3741 125.015C75.9074 125.995 75.4758 127.01 75.0791 128.06C74.9858 128.317 74.6241 129.168 73.9941 130.615L72.5941 133.835C72.0108 135.165 71.7191 136.11 71.7191 136.67C71.7191 137.347 72.1508 137.685 73.0141 137.685C73.9241 137.685 75.1024 136.938 76.5491 135.445C78.1824 133.765 79.5358 131.642 80.6091 129.075L82.8491 123.755C82.9658 123.475 83.0941 123.335 83.2341 123.335C83.2108 123.335 83.4558 123.358 83.9691 123.405H84.2491C84.8791 123.405 85.2874 123.37 85.4741 123.3C85.5908 123.253 85.6724 123.23 85.7191 123.23C85.8358 123.23 85.8941 123.277 85.8941 123.37Z" fill="#DF97DF"/>
<path d="M68.541 123.09C68.541 123.207 68.3077 123.848 67.841 125.015L59.371 146.26L60.316 146.33C61.156 146.4 61.576 146.505 61.576 146.645C61.576 146.808 61.3543 146.89 60.911 146.89C60.4677 146.89 59.8027 146.867 58.916 146.82C58.0527 146.773 57.3993 146.75 56.956 146.75C56.886 146.75 56.6643 146.762 56.291 146.785C55.9177 146.808 55.3927 146.82 54.716 146.82H54.086C53.8527 146.82 53.736 146.75 53.736 146.61C53.736 146.377 54.226 146.248 55.206 146.225C55.906 146.202 56.3143 146.132 56.431 146.015L56.676 145.595C56.7693 145.432 56.9093 145.117 57.096 144.65L59.861 137.58C60.001 137.417 60.106 137.195 60.176 136.915C59.4293 137.475 58.7993 137.872 58.286 138.105C57.7727 138.362 57.1427 138.49 56.396 138.49C55.1127 138.49 54.0393 138.07 53.176 137.23C52.336 136.367 51.916 135.293 51.916 134.01C51.916 132.773 52.231 131.467 52.861 130.09C53.5143 128.69 54.3777 127.453 55.451 126.38C57.7377 124.093 60.001 122.95 62.241 122.95C63.6877 122.95 64.6793 123.673 65.216 125.12L65.391 124.56L65.566 123.86C65.6827 123.37 65.8577 123.125 66.091 123.125C66.301 123.125 66.4993 123.137 66.686 123.16H66.896C67.386 123.16 67.7827 123.078 68.086 122.915C68.226 122.868 68.3193 122.845 68.366 122.845C68.4827 122.845 68.541 122.927 68.541 123.09ZM64.691 125.75C64.691 125.167 64.4577 124.688 63.991 124.315C63.5243 123.918 62.941 123.72 62.241 123.72C60.5843 123.72 59.0793 124.805 57.726 126.975C55.7893 130.055 54.821 132.703 54.821 134.92C54.821 135.737 55.031 136.402 55.451 136.915C55.8943 137.405 56.4777 137.65 57.201 137.65C58.3443 137.65 59.406 137.055 60.386 135.865C60.9927 135.118 61.681 133.788 62.451 131.875L64.166 127.57C64.516 126.683 64.691 126.077 64.691 125.75Z" fill="#DF97DF"/>
<path d="M31.0137 138.455C30.0337 138.455 29.147 138.268 28.3537 137.895C27.5603 137.498 26.9303 136.927 26.4637 136.18C25.997 135.41 25.7637 134.442 25.7637 133.275C25.7637 132.412 25.9153 131.653 26.2187 131C26.5453 130.347 27.0353 129.787 27.6887 129.32C28.3653 128.853 29.2287 128.468 30.2787 128.165C31.3287 127.862 32.612 127.605 34.1287 127.395C34.992 127.278 35.692 127.162 36.2287 127.045C36.7887 126.928 37.197 126.742 37.4537 126.485C37.7103 126.205 37.8387 125.797 37.8387 125.26C37.8387 124.373 37.5353 123.627 36.9287 123.02C36.322 122.413 35.3653 122.11 34.0587 122.11C33.382 122.11 32.6937 122.227 31.9937 122.46C31.2937 122.693 30.6753 123.09 30.1387 123.65C29.6253 124.187 29.2987 124.945 29.1587 125.925L26.2187 124.945C26.4053 124.105 26.7087 123.347 27.1287 122.67C27.572 121.993 28.132 121.422 28.8087 120.955C29.4853 120.465 30.267 120.092 31.1537 119.835C32.0637 119.578 33.067 119.45 34.1637 119.45C35.6803 119.45 36.9403 119.707 37.9437 120.22C38.9703 120.733 39.7287 121.527 40.2187 122.6C40.732 123.65 40.9887 125.003 40.9887 126.66V130.685C40.9887 131.408 41.0003 132.202 41.0237 133.065C41.0703 133.905 41.1287 134.757 41.1987 135.62C41.2687 136.46 41.3387 137.253 41.4087 138H38.4687C38.3987 137.253 38.3287 136.507 38.2587 135.76C38.212 135.013 38.177 134.267 38.1537 133.52H37.6987C37.3487 134.383 36.882 135.188 36.2987 135.935C35.7153 136.682 34.9803 137.288 34.0937 137.755C33.2303 138.222 32.2037 138.455 31.0137 138.455ZM31.9587 135.865C32.472 135.865 32.9853 135.783 33.4987 135.62C34.0353 135.457 34.5603 135.188 35.0737 134.815C35.6103 134.442 36.112 133.963 36.5787 133.38C37.0687 132.797 37.5003 132.097 37.8737 131.28V127.78L38.7837 127.955C38.4103 128.328 37.9087 128.608 37.2787 128.795C36.672 128.982 35.9953 129.133 35.2487 129.25C34.502 129.367 33.7553 129.495 33.0087 129.635C32.262 129.752 31.5737 129.938 30.9437 130.195C30.337 130.428 29.847 130.767 29.4737 131.21C29.1003 131.653 28.9137 132.26 28.9137 133.03C28.9137 133.963 29.1937 134.675 29.7537 135.165C30.3137 135.632 31.0487 135.865 31.9587 135.865Z" fill="#F6F5F3"/>
<path d="M393.226 95.455C391.966 95.455 390.846 95.315 389.866 95.035C388.886 94.7783 388.069 94.405 387.416 93.915C386.762 93.4016 386.261 92.795 385.911 92.095C385.561 91.395 385.374 90.625 385.351 89.785L388.046 89.085C387.999 89.855 388.186 90.5316 388.606 91.115C389.049 91.675 389.667 92.1066 390.461 92.41C391.277 92.7133 392.257 92.865 393.401 92.865C394.777 92.865 395.839 92.6316 396.586 92.165C397.356 91.6983 397.741 91.0566 397.741 90.24C397.741 89.5866 397.531 89.085 397.111 88.735C396.691 88.3616 396.107 88.07 395.361 87.86C394.637 87.6266 393.774 87.4166 392.771 87.2299C391.931 87.0433 391.091 86.8333 390.251 86.6C389.411 86.3666 388.641 86.0633 387.941 85.69C387.264 85.2933 386.716 84.78 386.296 84.15C385.876 83.52 385.666 82.7383 385.666 81.805C385.666 80.7083 385.957 79.7633 386.541 78.97C387.124 78.1766 387.952 77.5583 389.026 77.115C390.099 76.6716 391.382 76.45 392.876 76.45C394.369 76.45 395.641 76.6833 396.691 77.15C397.741 77.5933 398.569 78.2233 399.176 79.04C399.782 79.8566 400.121 80.8133 400.191 81.91L397.426 82.61C397.402 81.84 397.192 81.1866 396.796 80.65C396.422 80.1133 395.886 79.7166 395.186 79.46C394.486 79.18 393.669 79.04 392.736 79.04C391.499 79.04 390.519 79.2733 389.796 79.74C389.072 80.2066 388.711 80.8483 388.711 81.665C388.711 82.2716 388.921 82.7616 389.341 83.135C389.784 83.5083 390.379 83.8 391.126 84.01C391.872 84.22 392.701 84.43 393.611 84.64C394.544 84.8266 395.431 85.0366 396.271 85.27C397.134 85.5033 397.904 85.8066 398.581 86.18C399.257 86.5533 399.794 87.055 400.191 87.685C400.587 88.2916 400.786 89.0733 400.786 90.03C400.786 91.22 400.471 92.2233 399.841 93.04C399.211 93.8333 398.324 94.44 397.181 94.86C396.061 95.2566 394.742 95.455 393.226 95.455Z" fill="#F6F5F3"/>
<path d="M379.055 78.13C379.475 77.0333 379.766 76.0533 379.93 75.19C380.116 74.3267 380.221 73.5217 380.245 72.775C380.291 72.005 380.315 71.2467 380.315 70.5H383.36C383.36 71.7133 383.278 72.7983 383.115 73.755C382.975 74.6883 382.776 75.5167 382.52 76.24C382.263 76.94 381.995 77.57 381.715 78.13H379.055Z" fill="#F6F5F3"/>
<path d="M372.625 95.3501C370.945 95.3501 369.696 94.8951 368.88 93.9851C368.063 93.0751 367.655 91.6867 367.655 89.8201V79.5651H364.925L364.96 76.9051H366.675C367.258 76.9051 367.678 76.8001 367.935 76.5901C368.215 76.3801 368.378 76.0301 368.425 75.5401L368.775 72.8101H370.735V76.9051H375.95V79.6001H370.735V89.7501C370.735 90.6834 370.945 91.3601 371.365 91.7801C371.808 92.1767 372.438 92.3751 373.255 92.3751C373.698 92.3751 374.153 92.3167 374.62 92.2001C375.11 92.0834 375.588 91.8501 376.055 91.5001V94.6851C375.378 94.9417 374.748 95.1167 374.165 95.2101C373.605 95.3034 373.091 95.3501 372.625 95.3501Z" fill="#F6F5F3"/>
<path d="M357.575 95V76.905H360.76V95H357.575ZM359.185 73.755C358.439 73.755 357.879 73.6033 357.505 73.3C357.132 72.9967 356.945 72.5417 356.945 71.935C356.945 71.3283 357.132 70.8733 357.505 70.57C357.879 70.2667 358.427 70.115 359.15 70.115C359.897 70.115 360.457 70.2667 360.83 70.57C361.204 70.8733 361.39 71.3283 361.39 71.935C361.39 72.5183 361.204 72.9733 360.83 73.3C360.457 73.6033 359.909 73.755 359.185 73.755Z" fill="#F6F5F3"/>
<path d="M340.627 94.265C340.627 96.0617 339.74 97.4033 337.967 98.29C336.567 98.99 335.307 99.34 334.187 99.34C333.93 99.34 333.802 99.27 333.802 99.13C333.802 99.0367 334.058 98.9433 334.572 98.85C336.042 98.57 337.197 98.08 338.037 97.38C338.877 96.7033 339.297 95.8983 339.297 94.965C339.297 94.6383 339.215 94.475 339.052 94.475C338.958 94.475 338.853 94.6033 338.737 94.86C338.69 95 338.468 95.07 338.072 95.07C337.675 95.07 337.325 94.93 337.022 94.65C336.742 94.3467 336.602 93.985 336.602 93.565C336.602 92.445 337.278 91.885 338.632 91.885C339.962 91.885 340.627 92.6783 340.627 94.265Z" fill="#F6F5F3"/>
<path d="M334.82 85.585C334.82 88.315 333.572 90.7767 331.075 92.97C329.115 94.6967 327.074 95.56 324.95 95.56C323.504 95.56 322.314 95.0584 321.38 94.055C320.447 93.0517 319.98 91.7567 319.98 90.17C319.98 88.8167 320.365 87.4284 321.135 86.005C321.905 84.5817 322.932 83.3684 324.215 82.365C326.222 80.8017 328.159 80.02 330.025 80.02C331.449 80.02 332.604 80.5334 333.49 81.56C334.377 82.5867 334.82 83.9284 334.82 85.585ZM332.125 83.31C332.125 81.5367 331.332 80.65 329.745 80.65C327.809 80.65 326.129 82.0384 324.705 84.815C323.352 87.475 322.675 89.9717 322.675 92.305C322.675 94.055 323.457 94.93 325.02 94.93C326.98 94.93 328.614 93.67 329.92 91.15C331.39 88.3034 332.125 85.69 332.125 83.31Z" fill="#DF97DF"/>
<path d="M322.995 70.325C322.972 70.395 322.937 70.4767 322.89 70.57C322.797 70.7567 322.669 71.025 322.505 71.375L314.525 90.73C313.919 92.2 313.615 93.11 313.615 93.46C313.615 94.1133 313.989 94.44 314.735 94.44C315.855 94.44 316.812 93.8217 317.605 92.585C317.862 92.1883 318.037 91.99 318.13 91.99C318.294 91.99 318.375 92.0833 318.375 92.27C318.375 92.6667 317.979 93.2267 317.185 93.95C316.205 94.8367 315.027 95.28 313.65 95.28C311.9 95.28 311.025 94.5333 311.025 93.04C311.025 92.7367 311.049 92.3983 311.095 92.025C310.232 93.2617 309.404 94.1483 308.61 94.685C307.817 95.1983 306.884 95.455 305.81 95.455C304.504 95.455 303.43 95.0467 302.59 94.23C301.774 93.39 301.365 92.305 301.365 90.975C301.365 88.2217 302.672 85.62 305.285 83.17C307.642 80.9533 309.894 79.845 312.04 79.845C313.534 79.845 314.525 80.5567 315.015 81.98L315.225 81.56L315.47 81.035L319.46 71.445C319.554 71.3283 319.6 71.2233 319.6 71.13C319.6 70.9667 319.53 70.8733 319.39 70.85C319.274 70.8033 318.842 70.7567 318.095 70.71C317.652 70.6867 317.43 70.605 317.43 70.465C317.43 70.325 317.559 70.255 317.815 70.255H318.235C318.539 70.255 318.97 70.2667 319.53 70.29C320.114 70.3133 320.534 70.325 320.79 70.325C321.677 70.325 322.249 70.2783 322.505 70.185C322.645 70.1383 322.739 70.115 322.785 70.115C322.925 70.115 322.995 70.185 322.995 70.325ZM314.56 82.68C314.56 82.1433 314.315 81.665 313.825 81.245C313.335 80.825 312.787 80.615 312.18 80.615C310.454 80.615 308.692 82.0617 306.895 84.955C305.192 87.685 304.34 89.995 304.34 91.885C304.34 93.5883 305.11 94.44 306.65 94.44C308.004 94.44 309.334 93.495 310.64 91.605C311.574 90.275 312.379 88.7233 313.055 86.95L313.86 84.885C314.327 83.695 314.56 82.96 314.56 82.68Z" fill="#DF97DF"/>
<path d="M298.646 70.99C298.646 71.2 298.506 71.305 298.226 71.305C298.086 71.305 297.969 71.2933 297.876 71.27H297.316C296.313 71.27 295.694 71.4566 295.461 71.83C295.111 72.3666 294.598 73.4983 293.921 75.225L286.886 93.25C286.839 93.39 286.781 93.5533 286.711 93.74C286.711 94.16 287.178 94.4283 288.111 94.545C288.414 94.545 288.776 94.5566 289.196 94.58C289.499 94.6033 289.651 94.685 289.651 94.825C289.651 94.9883 289.488 95.07 289.161 95.07C287.481 95.0466 285.066 95.035 281.916 95.035C280.819 95.035 280.189 95.0233 280.026 95C279.839 94.9766 279.746 94.9066 279.746 94.79C279.746 94.6266 280.061 94.545 280.691 94.545C281.554 94.5216 282.126 94.4633 282.406 94.37C282.849 94.2066 283.176 93.95 283.386 93.6C283.596 93.0866 283.841 92.48 284.121 91.78L290.946 74.63C291.623 72.9266 291.961 71.9933 291.961 71.83C291.961 71.4333 291.599 71.235 290.876 71.235H289.476C289.219 71.235 289.091 71.1416 289.091 70.955C289.091 70.7916 289.219 70.71 289.476 70.71H289.791C289.931 70.7333 290.491 70.745 291.471 70.745L296.686 70.71C296.826 70.7333 296.943 70.745 297.036 70.745L298.331 70.71C298.541 70.71 298.646 70.8033 298.646 70.99Z" fill="#DF97DF"/>
<path d="M272.686 82.715C272.686 83.275 272.383 84.2433 271.776 85.62L268.941 92.025C268.614 92.7716 268.451 93.2733 268.451 93.53C268.451 94.02 268.719 94.265 269.256 94.265C269.909 94.265 270.866 93.7283 272.126 92.655C272.243 92.585 272.336 92.55 272.406 92.55C272.546 92.55 272.616 92.6083 272.616 92.725C272.616 93.005 272.231 93.4133 271.461 93.95C270.411 94.6733 269.291 95.035 268.101 95.035C267.378 95.035 266.783 94.8833 266.316 94.58C265.849 94.2533 265.616 93.845 265.616 93.355C265.616 92.9583 265.838 92.2583 266.281 91.255L269.081 84.99C269.758 83.4733 270.096 82.4466 270.096 81.91C270.096 81.1166 269.688 80.72 268.871 80.72C267.798 80.72 266.538 81.49 265.091 83.03C263.994 84.1966 262.991 85.83 262.081 87.93L259.211 94.58C259.094 94.93 258.943 95.105 258.756 95.105C258.709 95.105 258.453 95.0816 257.986 95.035C257.916 95.0116 257.776 95 257.566 95C257.379 95 257.064 95.0233 256.621 95.07C256.551 95.0933 256.469 95.105 256.376 95.105C256.213 95.105 256.131 95.0466 256.131 94.93C256.131 94.8833 256.166 94.8133 256.236 94.72L256.481 94.195L261.836 81.315C261.906 81.1983 261.964 81.0933 262.011 81C261.988 80.8366 261.696 80.7433 261.136 80.72C260.436 80.6966 260.086 80.5683 260.086 80.335C260.086 80.1716 260.214 80.09 260.471 80.09C260.634 80.09 260.891 80.1133 261.241 80.16C261.591 80.2066 261.859 80.23 262.046 80.23C263.306 80.23 264.134 80.1366 264.531 79.95C264.694 79.88 264.799 79.845 264.846 79.845C264.986 79.845 265.056 79.915 265.056 80.055C265.056 80.125 265.044 80.1833 265.021 80.23L263.726 83.52C263.913 83.31 264.181 83.0183 264.531 82.645C266.258 80.825 267.926 79.915 269.536 79.915C270.469 79.915 271.228 80.1833 271.811 80.72C272.394 81.2333 272.686 81.8983 272.686 82.715Z" fill="#DF97DF"/>
<path d="M256.974 82.33C256.974 83.59 256.298 84.6399 254.944 85.4799C253.591 86.2966 251.876 86.705 249.799 86.705C249.053 86.705 248.224 86.6466 247.314 86.53C246.451 88.3266 246.019 89.995 246.019 91.535C246.019 93.6116 246.941 94.65 248.784 94.65C250.208 94.65 251.596 93.9033 252.949 92.41C253.253 92.0833 253.451 91.92 253.544 91.92C253.661 91.92 253.719 91.9783 253.719 92.095C253.719 92.6316 253.171 93.2966 252.074 94.09C250.814 95 249.508 95.455 248.154 95.455C246.638 95.455 245.389 95.0116 244.409 94.125C243.429 93.2383 242.939 92.1183 242.939 90.765C242.939 88.1516 244.363 85.62 247.209 83.17C249.706 81.0233 251.934 79.95 253.894 79.95C255.948 79.95 256.974 80.7433 256.974 82.33ZM254.489 81.735C254.489 81.0116 254.128 80.65 253.404 80.65C252.658 80.65 251.923 80.93 251.199 81.49C249.893 82.5166 248.691 84.045 247.594 86.075C247.874 86.0983 248.189 86.11 248.539 86.11C249.846 86.11 251.118 85.7133 252.354 84.92C253.778 84.0333 254.489 82.9716 254.489 81.735Z" fill="#DF97DF"/>
<path d="M240.98 92.41C240.98 92.5733 240.759 92.8416 240.315 93.215C238.659 94.615 237.154 95.315 235.8 95.315C235.147 95.315 234.622 95.14 234.225 94.79C233.829 94.4166 233.63 93.9383 233.63 93.355C233.63 92.865 233.91 91.99 234.47 90.73L237.55 83.835C238.064 82.6916 238.32 81.98 238.32 81.7C238.32 80.9766 237.935 80.615 237.165 80.615C236.209 80.615 235.042 81.2683 233.665 82.575C232.615 83.5783 231.81 84.4883 231.25 85.305C230.714 86.1216 230.072 87.3816 229.325 89.085L227.05 94.195C226.864 94.6383 226.735 94.895 226.665 94.965C226.595 95.035 226.455 95.07 226.245 95.07C226.152 95.07 225.837 95.0466 225.3 95C224.577 95.0466 224.18 95.0816 224.11 95.105C224.017 95.1283 223.924 95.14 223.83 95.14C223.737 95.14 223.69 95.105 223.69 95.035C223.69 94.9416 223.772 94.7083 223.935 94.335L233.56 72.4249C233.91 71.6316 234.085 71.1766 234.085 71.06C234.085 70.8733 234.027 70.7683 233.91 70.745C233.817 70.7216 233.444 70.71 232.79 70.71C232.23 70.71 231.95 70.5933 231.95 70.36C231.95 70.2433 232.032 70.185 232.195 70.185C232.359 70.185 232.487 70.1966 232.58 70.22L235.17 70.255C235.684 70.255 236.174 70.22 236.64 70.15C236.92 70.1033 237.107 70.08 237.2 70.08C237.41 70.08 237.515 70.1616 237.515 70.325C237.515 70.4883 237.469 70.6283 237.375 70.745C237.212 71.1416 237.06 71.4566 236.92 71.69L231.25 84.255C232.72 82.5983 233.945 81.455 234.925 80.825C235.905 80.1716 236.932 79.845 238.005 79.845C238.869 79.845 239.569 80.055 240.105 80.475C240.665 80.8716 240.945 81.385 240.945 82.015C240.945 82.715 240.677 83.6833 240.14 84.92L236.955 92.235C236.559 93.145 236.36 93.6933 236.36 93.88C236.36 94.23 236.535 94.405 236.885 94.405C237.655 94.405 238.729 93.8216 240.105 92.655C240.455 92.3516 240.689 92.2 240.805 92.2C240.922 92.2 240.98 92.27 240.98 92.41Z" fill="#DF97DF"/>
<path d="M223.135 82.015C223.135 85.2584 222.155 88.315 220.195 91.185C218.258 94.055 216.205 95.49 214.035 95.49C213.288 95.49 212.635 95.2567 212.075 94.79C211.515 94.3 211.153 93.6467 210.99 92.83C210.92 92.5034 210.885 91.9434 210.885 91.15C209.508 94.02 207.77 95.455 205.67 95.455C204.736 95.455 203.966 95.175 203.36 94.615C202.753 94.055 202.45 93.3434 202.45 92.48C202.45 91.3367 202.776 90.0184 203.43 88.525L205.53 83.695C205.88 82.8784 206.055 82.2134 206.055 81.7C206.055 81.07 205.786 80.755 205.25 80.755C204.783 80.755 204.188 81.07 203.465 81.7C202.741 82.3067 202.193 82.9717 201.82 83.695C201.703 83.9517 201.575 84.08 201.435 84.08C201.295 84.08 201.225 83.9867 201.225 83.8C201.225 83.38 201.68 82.7034 202.59 81.77C203.803 80.5334 205.051 79.915 206.335 79.915C208.038 79.915 208.89 80.5917 208.89 81.945C208.89 82.8784 208.516 84.1734 207.77 85.83L205.705 90.38C205.168 91.57 204.9 92.5617 204.9 93.355C204.9 94.335 205.296 94.825 206.09 94.825C208.026 94.825 210.01 92.375 212.04 87.475L213.825 83.17C213.825 83.17 214.046 82.505 214.49 81.175C214.56 80.895 214.723 80.7434 214.98 80.72L215.4 80.685L216.24 80.58L217.22 80.405C217.476 80.3584 217.581 80.335 217.535 80.335C217.721 80.335 217.815 80.405 217.815 80.545C217.815 80.6384 217.768 80.7317 217.675 80.825C217.558 81.0584 217.43 81.35 217.29 81.7L214 89.925C213.486 91.2084 213.23 92.2584 213.23 93.075C213.23 94.2184 213.731 94.79 214.735 94.79C216.415 94.79 218.246 93.145 220.23 89.855C221.7 87.405 222.435 85.0367 222.435 82.75C222.435 82.2367 222.283 81.98 221.98 81.98C221.933 81.98 221.816 82.015 221.63 82.085C221.583 82.1084 221.49 82.12 221.35 82.12C220.673 82.12 220.335 81.8284 220.335 81.245C220.335 80.895 220.475 80.5917 220.755 80.335C221.035 80.0784 221.373 79.95 221.77 79.95C222.68 79.95 223.135 80.6384 223.135 82.015Z" fill="#DF97DF"/>
<path d="M185.159 95.3501C183.479 95.3501 182.231 94.8951 181.414 93.9851C180.597 93.0751 180.189 91.6867 180.189 89.8201V79.5651H177.459L177.494 76.9051H179.209C179.792 76.9051 180.212 76.8001 180.469 76.5901C180.749 76.3801 180.912 76.0301 180.959 75.5401L181.309 72.8101H183.269V76.9051H188.484V79.6001H183.269V89.7501C183.269 90.6834 183.479 91.3601 183.899 91.7801C184.342 92.1767 184.972 92.3751 185.789 92.3751C186.232 92.3751 186.687 92.3167 187.154 92.2001C187.644 92.0834 188.122 91.8501 188.589 91.5001V94.6851C187.912 94.9417 187.282 95.1167 186.699 95.2101C186.139 95.3034 185.626 95.3501 185.159 95.3501Z" fill="#F6F5F3"/>
<path d="M164.058 95.455C162.051 95.455 160.534 94.755 159.508 93.355C158.481 91.955 157.968 89.8667 157.968 87.09V76.905H161.188V86.81C161.188 88.77 161.491 90.2284 162.098 91.185C162.704 92.1417 163.661 92.62 164.968 92.62C165.691 92.62 166.333 92.445 166.893 92.095C167.476 91.745 167.989 91.2434 168.433 90.59C168.876 89.9367 169.238 89.1667 169.518 88.28C169.798 87.37 169.984 86.39 170.078 85.34V76.905H173.263V87.44V95H170.428L170.708 89.19H170.183C169.879 90.6367 169.448 91.8267 168.888 92.76C168.351 93.67 167.674 94.3467 166.858 94.79C166.041 95.2334 165.108 95.455 164.058 95.455Z" fill="#F6F5F3"/>
<path d="M145.6 95.455C144.433 95.455 143.43 95.2217 142.59 94.755C141.773 94.2883 141.108 93.6583 140.595 92.865C140.105 92.0483 139.731 91.1267 139.475 90.1H138.915L139.09 95H136.22V86.075V70.5H139.44V76.17C139.44 76.7767 139.405 77.4183 139.335 78.095C139.288 78.7483 139.206 79.425 139.09 80.125C138.996 80.825 138.891 81.5017 138.775 82.155H139.405C139.661 81.175 140.035 80.2533 140.525 79.39C141.015 78.5267 141.668 77.8267 142.485 77.29C143.325 76.7533 144.363 76.485 145.6 76.485C147.14 76.485 148.446 76.8933 149.52 77.71C150.616 78.5033 151.456 79.6117 152.04 81.035C152.623 82.4583 152.915 84.115 152.915 86.005C152.915 87.825 152.623 89.4467 152.04 90.87C151.48 92.2933 150.651 93.4133 149.555 94.23C148.481 95.0467 147.163 95.455 145.6 95.455ZM144.83 92.655C145.833 92.655 146.685 92.3867 147.385 91.85C148.085 91.3133 148.621 90.5433 148.995 89.54C149.391 88.5367 149.59 87.37 149.59 86.04C149.59 84.7333 149.403 83.5783 149.03 82.575C148.656 81.5483 148.12 80.7433 147.42 80.16C146.72 79.5533 145.856 79.25 144.83 79.25C144.083 79.25 143.418 79.4017 142.835 79.705C142.251 79.985 141.738 80.37 141.295 80.86C140.875 81.35 140.525 81.8867 140.245 82.47C139.965 83.0533 139.755 83.6367 139.615 84.22C139.475 84.8033 139.405 85.34 139.405 85.83V86.25C139.405 86.95 139.521 87.6733 139.755 88.42C140.011 89.1667 140.373 89.8667 140.84 90.52C141.306 91.15 141.878 91.6633 142.555 92.06C143.231 92.4567 143.99 92.655 144.83 92.655Z" fill="#F6F5F3"/>
<path d="M118.008 99.795C118.428 98.6984 118.719 97.7184 118.883 96.855C119.069 95.9917 119.174 95.1867 119.198 94.44C119.244 93.67 119.268 92.9117 119.268 92.165H122.313C122.313 93.3784 122.231 94.4517 122.068 95.385C121.928 96.3417 121.729 97.17 121.473 97.87C121.216 98.5934 120.948 99.235 120.668 99.795H118.008Z" fill="#F6F5F3"/>
<path d="M108.188 95.455C106.765 95.455 105.505 95.245 104.408 94.825C103.335 94.3816 102.425 93.7516 101.678 92.935C100.932 92.1183 100.372 91.15 99.9985 90.03C99.6251 88.91 99.4385 87.65 99.4385 86.25C99.4385 84.8266 99.6251 83.52 99.9985 82.33C100.372 81.14 100.92 80.1016 101.643 79.215C102.367 78.3283 103.253 77.6516 104.303 77.185C105.353 76.695 106.555 76.45 107.908 76.45C109.098 76.45 110.183 76.6483 111.163 77.045C112.143 77.4416 112.972 78.06 113.648 78.9C114.348 79.7166 114.873 80.755 115.223 82.015C115.573 83.2516 115.713 84.71 115.643 86.39L101.433 86.495V84.325L113.718 84.22L112.633 85.69C112.75 84.22 112.61 83.0066 112.213 82.05C111.817 81.0933 111.245 80.37 110.498 79.88C109.775 79.39 108.912 79.145 107.908 79.145C106.835 79.145 105.89 79.425 105.073 79.985C104.257 80.545 103.627 81.35 103.183 82.4C102.763 83.45 102.553 84.7216 102.553 86.215C102.553 88.3616 103.032 90.0066 103.988 91.15C104.945 92.27 106.368 92.83 108.258 92.83C108.982 92.83 109.612 92.7483 110.148 92.585C110.708 92.3983 111.175 92.1533 111.548 91.85C111.945 91.5233 112.26 91.15 112.493 90.73C112.75 90.31 112.948 89.855 113.088 89.365L115.888 90.03C115.678 90.87 115.352 91.6283 114.908 92.305C114.488 92.9583 113.952 93.5183 113.298 93.985C112.668 94.4516 111.933 94.8133 111.093 95.07C110.253 95.3266 109.285 95.455 108.188 95.455Z" fill="#F6F5F3"/>
<path d="M68.4102 95V83.7999V76.905H71.2452L70.9302 82.645H71.5252C71.8285 81.2683 72.2368 80.125 72.7502 79.215C73.2635 78.2816 73.8935 77.5933 74.6402 77.15C75.4102 76.6833 76.2852 76.45 77.2652 76.45C78.4318 76.45 79.3885 76.7416 80.1352 77.325C80.8818 77.885 81.4302 78.62 81.7802 79.53C82.1535 80.44 82.3402 81.4433 82.3402 82.54H82.9002C83.1568 81.2333 83.5535 80.125 84.0902 79.215C84.6268 78.305 85.2918 77.6166 86.0852 77.15C86.8785 76.6833 87.7885 76.45 88.8152 76.45C89.7485 76.45 90.5652 76.6366 91.2652 77.01C91.9652 77.3833 92.5602 77.9433 93.0502 78.69C93.5402 79.4133 93.9018 80.3116 94.1352 81.385C94.3685 82.4583 94.4852 83.695 94.4852 85.095V95H91.3002V85.515C91.3002 84.1383 91.1718 82.995 90.9152 82.085C90.6585 81.1516 90.2735 80.4633 89.7602 80.02C89.2702 79.5533 88.6402 79.32 87.8702 79.32C87.0068 79.32 86.2252 79.6233 85.5252 80.2299C84.8485 80.8133 84.2885 81.6416 83.8452 82.715C83.4252 83.765 83.1452 84.9666 83.0052 86.32V95H79.8902V85.83C79.8902 84.3833 79.7618 83.1816 79.5052 82.225C79.2485 81.2683 78.8635 80.545 78.3502 80.055C77.8602 79.565 77.2185 79.32 76.4252 79.32C75.4918 79.32 74.6868 79.6466 74.0102 80.3C73.3335 80.93 72.7852 81.7816 72.3652 82.855C71.9685 83.9283 71.7118 85.13 71.5952 86.46V95H68.4102Z" fill="#F6F5F3"/>
<path d="M58.9952 95V76.905H62.1802V95H58.9952ZM60.6052 73.755C59.8586 73.755 59.2986 73.6033 58.9252 73.3C58.5519 72.9967 58.3652 72.5417 58.3652 71.935C58.3652 71.3283 58.5519 70.8733 58.9252 70.57C59.2986 70.2667 59.8469 70.115 60.5702 70.115C61.3169 70.115 61.8769 70.2667 62.2502 70.57C62.6236 70.8733 62.8102 71.3283 62.8102 71.935C62.8102 72.5183 62.6236 72.9733 62.2502 73.3C61.8769 73.6033 61.3286 73.755 60.6052 73.755Z" fill="#F6F5F3"/>
<path d="M50.907 95.3501C49.227 95.3501 47.9787 94.8951 47.162 93.9851C46.3454 93.0751 45.937 91.6867 45.937 89.8201V79.5651H43.207L43.242 76.9051H44.957C45.5404 76.9051 45.9604 76.8001 46.217 76.5901C46.497 76.3801 46.6604 76.0301 46.707 75.5401L47.057 72.8101H49.017V76.9051H54.232V79.6001H49.017V89.7501C49.017 90.6834 49.227 91.3601 49.647 91.7801C50.0904 92.1767 50.7204 92.3751 51.537 92.3751C51.9804 92.3751 52.4354 92.3167 52.902 92.2001C53.392 92.0834 53.8704 91.8501 54.337 91.5001V94.6851C53.6604 94.9417 53.0304 95.1167 52.447 95.2101C51.887 95.3034 51.3737 95.3501 50.907 95.3501Z" fill="#F6F5F3"/>
<path d="M393.079 52.455C391.656 52.455 390.396 52.245 389.299 51.825C388.226 51.3816 387.316 50.7516 386.569 49.935C385.822 49.1183 385.262 48.15 384.889 47.03C384.516 45.91 384.329 44.65 384.329 43.25C384.329 41.8266 384.516 40.52 384.889 39.33C385.262 38.14 385.811 37.1016 386.534 36.215C387.257 35.3283 388.144 34.6516 389.194 34.185C390.244 33.695 391.446 33.45 392.799 33.45C393.989 33.45 395.074 33.6483 396.054 34.045C397.034 34.4416 397.862 35.06 398.539 35.9C399.239 36.7166 399.764 37.755 400.114 39.015C400.464 40.2516 400.604 41.71 400.534 43.39L386.324 43.495V41.325L398.609 41.2199L397.524 42.69C397.641 41.22 397.501 40.0066 397.104 39.05C396.707 38.0933 396.136 37.37 395.389 36.88C394.666 36.39 393.802 36.145 392.799 36.145C391.726 36.145 390.781 36.425 389.964 36.985C389.147 37.545 388.517 38.3499 388.074 39.4C387.654 40.4499 387.444 41.7216 387.444 43.215C387.444 45.3616 387.922 47.0066 388.879 48.15C389.836 49.27 391.259 49.83 393.149 49.83C393.872 49.83 394.502 49.7483 395.039 49.585C395.599 49.3983 396.066 49.1533 396.439 48.85C396.836 48.5233 397.151 48.15 397.384 47.73C397.641 47.31 397.839 46.855 397.979 46.365L400.779 47.03C400.569 47.87 400.242 48.6283 399.799 49.305C399.379 49.9583 398.842 50.5183 398.189 50.985C397.559 51.4516 396.824 51.8133 395.984 52.07C395.144 52.3266 394.176 52.455 393.079 52.455Z" fill="#F6F5F3"/>
<path d="M363.76 52V41.01V27.5H367.05V33.135C367.05 33.6483 367.026 34.1733 366.98 34.71C366.956 35.2233 366.91 35.7483 366.84 36.285C366.793 36.8217 366.735 37.37 366.665 37.93C366.595 38.4667 366.513 39.015 366.42 39.575H367.015C367.365 38.1983 367.808 37.0667 368.345 36.18C368.881 35.27 369.546 34.5933 370.34 34.15C371.156 33.6833 372.125 33.45 373.245 33.45C375.298 33.45 376.826 34.1733 377.83 35.62C378.856 37.0433 379.37 39.1783 379.37 42.025V52H376.15V42.34C376.15 40.24 375.823 38.7117 375.17 37.755C374.54 36.775 373.583 36.285 372.3 36.285C371.226 36.285 370.316 36.6 369.57 37.23C368.823 37.86 368.228 38.7117 367.785 39.785C367.365 40.8583 367.085 42.0833 366.945 43.46V52H363.76Z" fill="#F6F5F3"/>
<path d="M355.706 52.3501C354.026 52.3501 352.778 51.8951 351.961 50.9851C351.144 50.0751 350.736 48.6867 350.736 46.8201V36.5651H348.006L348.041 33.9051H349.756C350.339 33.9051 350.759 33.8001 351.016 33.5901C351.296 33.3801 351.459 33.0301 351.506 32.5401L351.856 29.8101H353.816V33.9051H359.031V36.6001H353.816V46.7501C353.816 47.6834 354.026 48.3601 354.446 48.7801C354.889 49.1767 355.519 49.3751 356.336 49.3751C356.779 49.3751 357.234 49.3167 357.701 49.2001C358.191 49.0834 358.669 48.8501 359.136 48.5001V51.6851C358.459 51.9417 357.829 52.1167 357.246 52.2101C356.686 52.3034 356.173 52.3501 355.706 52.3501Z" fill="#F6F5F3"/>
<path d="M331.137 52V27.5H334.322V52H331.137Z" fill="#F6F5F3"/>
<path d="M321.756 52V27.5H324.941V52H321.756Z" fill="#F6F5F3"/>
<path d="M305.738 52.455C304.758 52.455 303.872 52.2683 303.078 51.895C302.285 51.4983 301.655 50.9266 301.188 50.18C300.722 49.41 300.488 48.4416 300.488 47.275C300.488 46.4116 300.64 45.6533 300.943 45C301.27 44.3466 301.76 43.7866 302.413 43.32C303.09 42.8533 303.953 42.4683 305.003 42.165C306.053 41.8616 307.337 41.605 308.853 41.395C309.717 41.2783 310.417 41.1616 310.953 41.045C311.513 40.9283 311.922 40.7416 312.178 40.485C312.435 40.205 312.563 39.7966 312.563 39.26C312.563 38.3733 312.26 37.6266 311.653 37.02C311.047 36.4133 310.09 36.11 308.783 36.11C308.107 36.11 307.418 36.2266 306.718 36.46C306.018 36.6933 305.4 37.09 304.863 37.65C304.35 38.1866 304.023 38.945 303.883 39.925L300.943 38.945C301.13 38.105 301.433 37.3466 301.853 36.67C302.297 35.9933 302.857 35.4216 303.533 34.955C304.21 34.465 304.992 34.0916 305.878 33.835C306.788 33.5783 307.792 33.45 308.888 33.45C310.405 33.45 311.665 33.7066 312.668 34.22C313.695 34.7333 314.453 35.5266 314.943 36.6C315.457 37.65 315.713 39.0033 315.713 40.66V44.685C315.713 45.4083 315.725 46.2016 315.748 47.065C315.795 47.905 315.853 48.7566 315.923 49.62C315.993 50.46 316.063 51.2533 316.133 52H313.193C313.123 51.2533 313.053 50.5066 312.983 49.76C312.937 49.0133 312.902 48.2666 312.878 47.52H312.423C312.073 48.3833 311.607 49.1883 311.023 49.935C310.44 50.6816 309.705 51.2883 308.818 51.755C307.955 52.2216 306.928 52.455 305.738 52.455ZM306.683 49.865C307.197 49.865 307.71 49.7833 308.223 49.62C308.76 49.4566 309.285 49.1883 309.798 48.815C310.335 48.4416 310.837 47.9633 311.303 47.38C311.793 46.7966 312.225 46.0966 312.598 45.28V41.78L313.508 41.955C313.135 42.3283 312.633 42.6083 312.003 42.795C311.397 42.9816 310.72 43.1333 309.973 43.25C309.227 43.3666 308.48 43.495 307.733 43.635C306.987 43.7516 306.298 43.9383 305.668 44.195C305.062 44.4283 304.572 44.7666 304.198 45.21C303.825 45.6533 303.638 46.26 303.638 47.03C303.638 47.9633 303.918 48.675 304.478 49.165C305.038 49.6316 305.773 49.865 306.683 49.865Z" fill="#F6F5F3"/>
<path d="M279.48 52.455C278.22 52.455 277.1 52.315 276.12 52.035C275.14 51.7783 274.324 51.405 273.67 50.915C273.017 50.4016 272.515 49.795 272.165 49.095C271.815 48.395 271.629 47.625 271.605 46.785L274.3 46.085C274.254 46.855 274.44 47.5316 274.86 48.115C275.304 48.675 275.922 49.1066 276.715 49.41C277.532 49.7133 278.512 49.865 279.655 49.865C281.032 49.865 282.094 49.6316 282.84 49.165C283.61 48.6983 283.995 48.0566 283.995 47.24C283.995 46.5866 283.785 46.085 283.365 45.735C282.945 45.3616 282.362 45.07 281.615 44.86C280.892 44.6266 280.029 44.4166 279.025 44.23C278.185 44.0433 277.345 43.8333 276.505 43.6C275.665 43.3666 274.895 43.0633 274.195 42.69C273.519 42.2933 272.97 41.78 272.55 41.15C272.13 40.52 271.92 39.7383 271.92 38.805C271.92 37.7083 272.212 36.7633 272.795 35.9699C273.379 35.1766 274.207 34.5583 275.28 34.115C276.354 33.6716 277.637 33.45 279.13 33.45C280.624 33.45 281.895 33.6833 282.945 34.15C283.995 34.5933 284.824 35.2233 285.43 36.0399C286.037 36.8566 286.375 37.8133 286.445 38.91L283.68 39.61C283.657 38.84 283.447 38.1866 283.05 37.65C282.677 37.1133 282.14 36.7166 281.44 36.46C280.74 36.18 279.924 36.0399 278.99 36.0399C277.754 36.0399 276.774 36.2733 276.05 36.74C275.327 37.2066 274.965 37.8483 274.965 38.665C274.965 39.2716 275.175 39.7616 275.595 40.135C276.039 40.5083 276.634 40.8 277.38 41.01C278.127 41.22 278.955 41.43 279.865 41.64C280.799 41.8266 281.685 42.0366 282.525 42.27C283.389 42.5033 284.159 42.8066 284.835 43.18C285.512 43.5533 286.049 44.055 286.445 44.685C286.842 45.2916 287.04 46.0733 287.04 47.03C287.04 48.22 286.725 49.2233 286.095 50.04C285.465 50.8333 284.579 51.44 283.435 51.86C282.315 52.2566 280.997 52.455 279.48 52.455Z" fill="#F6F5F3"/>
<path d="M263.346 52V33.905H266.531V52H263.346ZM264.956 30.755C264.209 30.755 263.649 30.6033 263.276 30.3C262.902 29.9967 262.716 29.5417 262.716 28.935C262.716 28.3283 262.902 27.8733 263.276 27.57C263.649 27.2667 264.197 27.115 264.921 27.115C265.667 27.115 266.227 27.2667 266.601 27.57C266.974 27.8733 267.161 28.3283 267.161 28.935C267.161 29.5183 266.974 29.9733 266.601 30.3C266.227 30.6033 265.679 30.755 264.956 30.755Z" fill="#F6F5F3"/>
<path d="M241.762 52V41.01V27.5H245.052V33.135C245.052 33.6483 245.028 34.1733 244.982 34.71C244.958 35.2233 244.912 35.7483 244.842 36.285C244.795 36.8217 244.737 37.37 244.667 37.93C244.597 38.4667 244.515 39.015 244.422 39.575H245.017C245.367 38.1983 245.81 37.0667 246.347 36.18C246.883 35.27 247.548 34.5933 248.342 34.15C249.158 33.6833 250.127 33.45 251.247 33.45C253.3 33.45 254.828 34.1733 255.832 35.62C256.858 37.0433 257.372 39.1783 257.372 42.025V52H254.152V42.34C254.152 40.24 253.825 38.7117 253.172 37.755C252.542 36.775 251.585 36.285 250.302 36.285C249.228 36.285 248.318 36.6 247.572 37.23C246.825 37.86 246.23 38.7117 245.787 39.785C245.367 40.8583 245.087 42.0833 244.947 43.46V52H241.762Z" fill="#F6F5F3"/>
<path d="M233.708 52.3501C232.028 52.3501 230.779 51.8951 229.963 50.9851C229.146 50.0751 228.738 48.6867 228.738 46.8201V36.5651H226.008L226.043 33.9051H227.758C228.341 33.9051 228.761 33.8001 229.018 33.5901C229.298 33.3801 229.461 33.0301 229.508 32.5401L229.858 29.8101H231.818V33.9051H237.033V36.6001H231.818V46.7501C231.818 47.6834 232.028 48.3601 232.448 48.7801C232.891 49.1767 233.521 49.3751 234.338 49.3751C234.781 49.3751 235.236 49.3167 235.703 49.2001C236.193 49.0834 236.671 48.8501 237.138 48.5001V51.6851C236.461 51.9417 235.831 52.1167 235.248 52.2101C234.688 52.3034 234.174 52.3501 233.708 52.3501Z" fill="#F6F5F3"/>
<path d="M204.57 52.455C202.844 52.455 201.315 52.0816 199.985 51.335C198.679 50.565 197.652 49.4683 196.905 48.045C196.182 46.6216 195.82 44.895 195.82 42.865C195.82 40.765 196.205 39.0266 196.975 37.65C197.769 36.2499 198.819 35.2 200.125 34.5C201.432 33.8 202.89 33.45 204.5 33.45C206.18 33.45 207.674 33.8233 208.98 34.57C210.31 35.2933 211.36 36.3666 212.13 37.79C212.9 39.19 213.285 40.9283 213.285 43.005C213.285 45.0816 212.9 46.82 212.13 48.22C211.384 49.62 210.345 50.6816 209.015 51.405C207.709 52.105 206.227 52.455 204.57 52.455ZM204.71 49.83C205.83 49.83 206.787 49.5616 207.58 49.025C208.397 48.465 209.015 47.6833 209.435 46.68C209.879 45.6766 210.1 44.4866 210.1 43.11C210.1 41.6866 209.867 40.4616 209.4 39.4349C208.957 38.385 208.315 37.58 207.475 37.02C206.635 36.4366 205.62 36.145 204.43 36.145C203.357 36.145 202.412 36.4016 201.595 36.915C200.779 37.4283 200.149 38.1866 199.705 39.19C199.262 40.17 199.04 41.3716 199.04 42.795C199.04 44.9883 199.542 46.715 200.545 47.975C201.572 49.2116 202.96 49.83 204.71 49.83Z" fill="#F6F5F3"/>
<path d="M181.21 52.455C179.67 52.455 178.352 52.0467 177.255 51.23C176.159 50.4133 175.319 49.2933 174.736 47.87C174.176 46.4467 173.896 44.8133 173.896 42.97C173.896 41.1267 174.176 39.4933 174.736 38.07C175.296 36.6467 176.112 35.5267 177.186 34.71C178.259 33.8933 179.577 33.485 181.141 33.485C182.424 33.485 183.474 33.7533 184.29 34.29C185.107 34.8267 185.761 35.5267 186.251 36.39C186.764 37.23 187.137 38.1517 187.37 39.155H188.001C187.884 38.4783 187.779 37.7783 187.686 37.055C187.592 36.3083 187.511 35.585 187.441 34.885C187.371 34.1617 187.335 33.52 187.335 32.96V27.5H190.555V43.075V52H187.686L187.861 47.1H187.301C187.021 48.15 186.624 49.0833 186.111 49.9C185.597 50.6933 184.944 51.3233 184.15 51.79C183.357 52.2333 182.377 52.455 181.21 52.455ZM181.945 49.655C182.785 49.655 183.544 49.4567 184.221 49.06C184.897 48.6633 185.469 48.15 185.936 47.52C186.402 46.8667 186.752 46.1667 186.986 45.42C187.242 44.6733 187.37 43.95 187.37 43.25V42.83C187.37 42.34 187.301 41.815 187.161 41.255C187.021 40.6717 186.811 40.0883 186.531 39.505C186.274 38.9217 185.924 38.385 185.48 37.895C185.06 37.3817 184.559 36.985 183.975 36.705C183.392 36.4017 182.739 36.25 182.016 36.25C180.966 36.25 180.079 36.5533 179.355 37.16C178.655 37.7433 178.119 38.5483 177.745 39.575C177.395 40.6017 177.221 41.7567 177.221 43.04C177.221 44.37 177.407 45.5367 177.781 46.54C178.154 47.52 178.691 48.29 179.391 48.85C180.114 49.3867 180.965 49.655 181.945 49.655Z" fill="#F6F5F3"/>
<path d="M167.09 37.3349C167.09 37.6616 166.6 37.8366 165.62 37.8599L164.29 37.8949H163.66L158.935 48.4999C158.422 49.6433 158.165 50.3666 158.165 50.6699C158.165 51.1599 158.527 51.4049 159.25 51.4049C160.3 51.4049 161.234 50.8449 162.05 49.7249C162.237 49.4916 162.377 49.3749 162.47 49.3749C162.657 49.3749 162.75 49.4566 162.75 49.6199C162.75 49.9233 162.365 50.4133 161.595 51.0899C160.709 51.8599 159.647 52.2449 158.41 52.2449C157.57 52.2449 156.882 52.0349 156.345 51.6149C155.832 51.1949 155.575 50.6583 155.575 50.0049C155.575 49.5849 155.844 48.8033 156.38 47.6599L160.965 37.8249H159.53C159.134 37.8249 158.935 37.7433 158.935 37.5799C158.935 37.2766 159.099 37.1249 159.425 37.1249H159.74C159.857 37.1483 160.044 37.1599 160.3 37.1599C160.627 37.1599 160.942 37.1483 161.245 37.1249L161.84 35.6199C162.05 35.1066 162.214 34.8499 162.33 34.8499C162.447 34.8499 162.622 34.8733 162.855 34.9199C163.112 34.9666 163.31 34.9899 163.45 34.9899C163.707 34.9899 164.08 34.8733 164.57 34.6399C164.664 34.5933 164.745 34.5699 164.815 34.5699C164.932 34.5699 164.99 34.6166 164.99 34.7099C164.99 34.7099 164.862 34.9899 164.605 35.5499L163.835 37.2299L164.675 37.1949L166.005 37.1249C166.122 37.1249 166.262 37.1133 166.425 37.0899C166.589 37.0666 166.682 37.0549 166.705 37.0549C166.962 37.0549 167.09 37.1483 167.09 37.3349Z" fill="#DF97DF"/>
<path d="M158.792 29.74C158.792 31.1166 158.045 32.4583 156.552 33.765C155.642 34.5583 154.965 34.955 154.522 34.955C154.429 34.955 154.382 34.9083 154.382 34.815C154.382 34.675 154.58 34.4766 154.977 34.22C155.957 33.5666 156.669 32.8433 157.112 32.05C157.485 31.3966 157.672 30.8016 157.672 30.265C157.672 29.7283 157.52 29.46 157.217 29.46C157.1 29.46 156.914 29.67 156.657 30.09C156.47 30.37 156.167 30.51 155.747 30.51C155.42 30.51 155.129 30.37 154.872 30.09C154.639 29.81 154.522 29.4716 154.522 29.075C154.522 28.5383 154.72 28.095 155.117 27.745C155.537 27.395 156.039 27.22 156.622 27.22C157.229 27.22 157.742 27.465 158.162 27.955C158.582 28.4216 158.792 29.0166 158.792 29.74Z" fill="#DF97DF"/>
<path d="M145.73 39.715C145.73 40.275 145.426 41.2433 144.82 42.62L141.985 49.025C141.658 49.7716 141.495 50.2733 141.495 50.53C141.495 51.02 141.763 51.265 142.3 51.265C142.953 51.265 143.91 50.7283 145.17 49.655C145.286 49.585 145.38 49.55 145.45 49.55C145.59 49.55 145.66 49.6083 145.66 49.725C145.66 50.005 145.275 50.4133 144.505 50.95C143.455 51.6733 142.335 52.035 141.145 52.035C140.421 52.035 139.826 51.8833 139.36 51.58C138.893 51.2533 138.66 50.845 138.66 50.355C138.66 49.9583 138.881 49.2583 139.325 48.255L142.125 41.99C142.801 40.4733 143.14 39.4466 143.14 38.91C143.14 38.1166 142.731 37.72 141.915 37.72C140.841 37.72 139.581 38.49 138.135 40.03C137.038 41.1966 136.035 42.83 135.125 44.93L132.255 51.58C132.138 51.93 131.986 52.105 131.8 52.105C131.753 52.105 131.496 52.0816 131.03 52.035C130.96 52.0116 130.82 52 130.61 52C130.423 52 130.108 52.0233 129.665 52.07C129.595 52.0933 129.513 52.105 129.42 52.105C129.256 52.105 129.175 52.0466 129.175 51.93C129.175 51.8833 129.21 51.8133 129.28 51.72L129.525 51.195L134.88 38.315C134.95 38.1983 135.008 38.0933 135.055 38C135.031 37.8366 134.74 37.7433 134.18 37.72C133.48 37.6966 133.13 37.5683 133.13 37.335C133.13 37.1716 133.258 37.09 133.515 37.09C133.678 37.09 133.935 37.1133 134.285 37.16C134.635 37.2066 134.903 37.23 135.09 37.23C136.35 37.23 137.178 37.1366 137.575 36.95C137.738 36.88 137.843 36.845 137.89 36.845C138.03 36.845 138.1 36.915 138.1 37.055C138.1 37.125 138.088 37.1833 138.065 37.23L136.77 40.52C136.956 40.31 137.225 40.0183 137.575 39.645C139.301 37.825 140.97 36.915 142.58 36.915C143.513 36.915 144.271 37.1833 144.855 37.72C145.438 38.2333 145.73 38.8983 145.73 39.715Z" fill="#DF97DF"/>
<path d="M128.093 42.585C128.093 45.315 126.845 47.7767 124.348 49.97C122.388 51.6967 120.346 52.56 118.223 52.56C116.776 52.56 115.586 52.0584 114.653 51.055C113.72 50.0517 113.253 48.7567 113.253 47.17C113.253 45.8167 113.638 44.4284 114.408 43.005C115.178 41.5817 116.205 40.3684 117.488 39.365C119.495 37.8017 121.431 37.02 123.298 37.02C124.721 37.02 125.876 37.5334 126.763 38.56C127.65 39.5867 128.093 40.9284 128.093 42.585ZM125.398 40.31C125.398 38.5367 124.605 37.65 123.018 37.65C121.081 37.65 119.401 39.0384 117.978 41.815C116.625 44.475 115.948 46.9717 115.948 49.305C115.948 51.055 116.73 51.93 118.293 51.93C120.253 51.93 121.886 50.67 123.193 48.15C124.663 45.3034 125.398 42.69 125.398 40.31Z" fill="#DF97DF"/>
<path d="M116.269 27.325C116.245 27.395 116.21 27.4767 116.164 27.57C116.07 27.7567 115.942 28.025 115.779 28.375L107.799 47.73C107.192 49.2 106.889 50.11 106.889 50.46C106.889 51.1133 107.262 51.44 108.009 51.44C109.129 51.44 110.085 50.8217 110.879 49.585C111.135 49.1883 111.31 48.99 111.404 48.99C111.567 48.99 111.649 49.0833 111.649 49.27C111.649 49.6667 111.252 50.2267 110.459 50.95C109.479 51.8367 108.3 52.28 106.924 52.28C105.174 52.28 104.299 51.5333 104.299 50.04C104.299 49.7367 104.322 49.3983 104.369 49.025C103.505 50.2617 102.677 51.1483 101.884 51.685C101.09 52.1983 100.157 52.455 99.0837 52.455C97.777 52.455 96.7037 52.0467 95.8637 51.23C95.047 50.39 94.6387 49.305 94.6387 47.975C94.6387 45.2217 95.9453 42.62 98.5587 40.17C100.915 37.9533 103.167 36.845 105.314 36.845C106.807 36.845 107.799 37.5567 108.289 38.98L108.499 38.56L108.744 38.035L112.734 28.445C112.827 28.3283 112.874 28.2233 112.874 28.13C112.874 27.9667 112.804 27.8733 112.664 27.85C112.547 27.8033 112.115 27.7567 111.369 27.71C110.925 27.6867 110.704 27.605 110.704 27.465C110.704 27.325 110.832 27.255 111.089 27.255H111.509C111.812 27.255 112.244 27.2667 112.804 27.29C113.387 27.3133 113.807 27.325 114.064 27.325C114.95 27.325 115.522 27.2783 115.779 27.185C115.919 27.1383 116.012 27.115 116.059 27.115C116.199 27.115 116.269 27.185 116.269 27.325ZM107.834 39.68C107.834 39.1433 107.589 38.665 107.099 38.245C106.609 37.825 106.06 37.615 105.454 37.615C103.727 37.615 101.965 39.0617 100.169 41.955C98.4653 44.685 97.6137 46.995 97.6137 48.885C97.6137 50.5883 98.3837 51.44 99.9237 51.44C101.277 51.44 102.607 50.495 103.914 48.605C104.847 47.275 105.652 45.7233 106.329 43.95L107.134 41.885C107.6 40.695 107.834 39.96 107.834 39.68Z" fill="#DF97DF"/>
<path d="M77.6787 52V28.9H80.9337V52H77.6787Z" fill="#F6F5F3"/>
<path d="M13.4534 48.96C9.78406 48.96 6.71206 47.552 4.23739 44.736C1.76272 41.8346 0.525391 37.312 0.525391 31.168C0.525391 25.8773 1.46406 21.0986 3.34139 16.8319C5.30406 12.5653 7.77873 9.02395 10.7654 6.20795C13.7521 3.30662 16.8241 1.34395 19.9814 0.319946C20.9201 0.66128 21.7307 1.38661 22.4134 2.49595C23.1814 3.60528 23.5654 4.79995 23.5654 6.07995C20.1521 8.21328 17.4214 10.9866 15.3734 14.3999C13.3254 17.728 12.3014 21.056 12.3014 24.3839V26.048C12.4721 25.9626 12.7281 25.92 13.0694 25.92C13.4961 25.92 13.8374 25.92 14.0934 25.92C17.5067 25.92 20.1094 27.072 21.9014 29.376C23.6934 31.6799 24.5894 34.3253 24.5894 37.312C24.5894 41.0666 23.5227 43.968 21.3894 46.016C19.3414 47.9786 16.6961 48.96 13.4534 48.96ZM48.0134 48.96C44.3441 48.96 41.2721 47.552 38.7974 44.736C36.3227 41.8346 35.0854 37.312 35.0854 31.168C35.0854 25.8773 36.0241 21.0986 37.9014 16.8319C39.8641 12.5653 42.3387 9.02395 45.3254 6.20795C48.3121 3.30662 51.3841 1.34395 54.5414 0.319946C55.4801 0.66128 56.2907 1.38661 56.9734 2.49595C57.7414 3.60528 58.1254 4.79995 58.1254 6.07995C54.7121 8.21328 51.9814 10.9866 49.9334 14.3999C47.8854 17.728 46.8614 21.056 46.8614 24.3839V26.048C47.0321 25.9626 47.2881 25.92 47.6294 25.92C48.0561 25.92 48.3974 25.92 48.6534 25.92C52.0667 25.92 54.6694 27.072 56.4614 29.376C58.2534 31.6799 59.1494 34.3253 59.1494 37.312C59.1494 41.0666 58.0827 43.968 55.9494 46.016C53.9014 47.9786 51.2561 48.96 48.0134 48.96Z" fill="#F95FE7" fill-opacity="0.7"/>
</svg>
