<svg width="211" height="211" viewBox="0 0 211 211" fill="none" xmlns="http://www.w3.org/2000/svg">
<circle cx="105.578" cy="104.578" r="83" fill="url(#paint0_linear_62_331)"/>
<circle cx="105.578" cy="104.578" r="83" fill="url(#paint1_linear_62_331)" style="mix-blend-mode:difference"/>
<circle cx="105.578" cy="104.578" r="83" fill="url(#paint2_linear_62_331)" style="mix-blend-mode:screen"/>
<path d="M160.952 127.568L160.06 130.587C158.717 130.21 157.752 130.605 157.157 131.749C156.313 133.373 157.1 134.982 159.296 136.123C161.466 137.251 163.296 136.95 164.153 135.3C164.533 134.568 164.552 133.783 164.22 133.12C164.019 132.728 163.801 132.497 163.283 132.126L165.134 129.572C166.134 130.413 166.634 131.045 166.996 131.942C167.512 133.259 167.347 134.813 166.511 136.423C165.667 138.047 164.449 139.155 162.999 139.602C161.489 140.069 159.642 139.819 157.858 138.892C156.048 137.951 154.807 136.597 154.316 135.006C153.901 133.624 154.107 132.024 154.916 130.467C155.808 128.75 157.092 127.71 158.7 127.446C159.467 127.304 160.077 127.333 160.952 127.568ZM157.541 126.002L158.604 123.053C159.167 123.351 159.735 123.588 160.694 123.934L168.173 126.632C169.019 126.937 169.566 127.102 170.344 127.287L169.28 130.236C168.676 129.923 168.206 129.721 167.191 129.355L159.712 126.658C158.71 126.296 158.107 126.111 157.541 126.002ZM158.871 122.228L159.721 119.304L161.882 119.933L161.031 122.857L158.871 122.228ZM162.056 123.202L162.931 120.191C163.497 120.449 164.065 120.646 165.073 120.939L169.509 122.229C170.287 122.456 171.077 122.639 171.717 122.747L170.842 125.757C170.161 125.465 169.622 125.277 168.7 125.009L164.264 123.719C163.328 123.447 162.729 123.304 162.056 123.202ZM167.332 111.344L167.413 114.1C166.947 114.155 166.724 114.208 166.469 114.361C166.078 114.597 165.828 114.98 165.735 115.512C165.526 116.709 166.347 117.583 167.973 117.867C169.568 118.146 170.734 117.574 170.941 116.392C171.042 115.815 170.899 115.242 170.537 114.874C170.368 114.708 170.233 114.608 169.903 114.49L170.807 111.846C171.414 112.119 171.782 112.366 172.162 112.722C173.126 113.652 173.496 115.103 173.197 116.817C172.949 118.235 172.293 119.369 171.324 120.037C170.332 120.747 168.949 120.992 167.501 120.739C164.546 120.222 162.98 118.03 163.484 115.148C163.882 112.873 165.281 111.488 167.332 111.344ZM161.236 110.883L161.293 107.839C161.906 107.94 162.55 107.982 163.555 108.001L167.769 108.079L166.165 106.399C165.488 105.696 165.104 105.359 164.675 105.066L164.749 101.077C165.248 101.671 165.41 101.854 166.189 102.679L168.249 104.893L171.954 102.456C173.291 101.566 173.382 101.507 173.9 101.097L173.829 104.921C173.195 105.135 172.529 105.452 171.801 105.874L169.92 106.979L170.979 108.124L171.579 108.135C172.809 108.158 173.169 108.15 173.771 108.056L173.714 111.115C173.04 111.013 172.441 110.972 171.451 110.953L163.503 110.805C162.483 110.786 161.792 110.819 161.236 110.883ZM172.59 92.0486L173.245 95.0837C172.537 95.1445 171.915 95.2481 171.006 95.4443L163.235 97.1218C162.223 97.3402 161.599 97.5056 161.046 97.717L160.391 94.6819C161.055 94.6306 161.59 94.546 162.631 94.3213L164.185 93.9858C164.302 93.9605 164.54 93.9245 164.672 93.896C163.631 93.1998 163.066 92.3552 162.797 91.1089C162.581 90.1119 162.689 89.26 163.114 88.6004C163.574 87.8873 164.239 87.483 165.397 87.2329L169.077 86.4385C169.928 86.255 170.651 86.0527 171.251 85.8465L171.91 88.8962C171.187 88.9602 170.565 89.0638 169.67 89.2568L166.665 89.9057C166.078 90.0323 165.827 90.1479 165.616 90.3776C165.396 90.6399 165.334 90.9909 165.422 91.4015C165.603 92.2372 166.331 92.9087 167.425 93.2863L170.402 92.6438C171.237 92.4634 171.847 92.3012 172.59 92.0486ZM164.005 77.1407L166.444 83.4345C167.523 82.8555 167.87 81.965 167.441 80.8601C167.224 80.3007 166.853 79.8816 166.376 79.6481C166.099 79.5142 165.907 79.4759 165.5 79.505L165.242 76.8058C166.094 76.8456 166.497 76.9307 167.041 77.1705C168.133 77.6641 168.972 78.6258 169.509 80.0105C170.04 81.3811 170.066 82.6098 169.578 83.716C169.058 84.8665 168.043 85.7748 166.658 86.3115C163.889 87.3848 161.369 86.3187 160.333 83.6474C159.487 81.4655 160.085 79.4802 161.98 78.183C162.384 77.8977 162.95 77.614 163.731 77.2631C163.786 77.2414 163.87 77.2089 164.005 77.1407ZM164.498 84.1406L163.105 80.5461C162.285 81.0889 162.043 81.8746 162.417 82.8396C162.802 83.8327 163.483 84.2606 164.498 84.1406ZM155.303 72.5775L158.013 71.8956C158.164 72.6008 158.281 72.965 158.507 73.3715C158.878 74.0402 159.398 74.4204 160.082 74.5385C160.535 74.6128 160.861 74.5516 161.467 74.2835L163.513 73.1471C164.352 72.6808 164.835 72.3778 165.421 71.9494L166.929 74.6637C166.23 74.9493 165.743 75.1853 164.891 75.6588L160.852 77.9025C159.895 78.4343 159.451 78.7155 158.931 79.1074L157.481 76.498L158.517 75.9226C157.321 75.7463 156.53 75.1562 155.867 73.963C155.633 73.5434 155.514 73.2666 155.303 72.5775ZM154.283 62.3108L158.334 67.7096C159.216 66.8603 159.309 65.9093 158.598 64.9615C158.237 64.4816 157.766 64.1787 157.244 64.0829C156.941 64.029 156.746 64.044 156.362 64.1821L155.384 61.6534C156.215 61.4612 156.626 61.4341 157.214 61.5179C158.399 61.6975 159.467 62.3962 160.358 63.584C161.241 64.7597 161.598 65.9356 161.427 67.1326C161.239 68.3807 160.507 69.5299 159.319 70.4213C156.944 72.204 154.229 71.8598 152.509 69.5683C151.104 67.6967 151.143 65.6237 152.615 63.8623C152.927 63.4782 153.395 63.052 154.052 62.5028C154.1 62.4668 154.172 62.4128 154.283 62.3108ZM156.652 68.9161L154.338 65.8327C153.696 66.5769 153.675 67.3989 154.297 68.2268C154.936 69.0786 155.707 69.3063 156.652 68.9161ZM147.384 59.7244L147.688 59.9913C148.218 60.456 148.588 60.7399 149.021 61.0197L147.36 62.9148C147.083 62.5928 146.594 62.1042 146.166 61.7285L145.861 61.4616L145.396 61.9917C144.091 63.4808 142.642 63.4274 140.803 61.8158C140.172 61.2621 139.769 60.7891 139.296 60.0761L141.099 58.7244C141.281 59.2226 141.54 59.6095 141.969 59.9852C142.522 60.4696 142.934 60.4319 143.448 59.8453L143.695 59.5633L143.368 59.2766C142.894 58.8613 142.255 58.3613 141.799 58.0406L143.46 56.1454C143.884 56.6171 144.236 56.9659 144.868 57.5196L145.218 57.8261L148.233 54.3855C148.915 53.6072 149.219 53.2152 149.636 52.6031L151.982 54.6596C151.43 55.153 151.042 55.5506 150.399 56.2838L147.384 59.7244ZM143.102 47.3907C145.618 49.0521 146.162 51.7123 144.501 54.2283C142.848 56.7317 140.196 57.2633 137.667 55.5937C135.139 53.924 134.586 51.2763 136.223 48.7979C137.868 46.307 140.611 45.7458 143.102 47.3907ZM138.895 53.7078C139.996 54.4352 141.193 54.0389 142.102 52.662C143.019 51.2726 142.922 50.0042 141.833 49.285C140.744 48.5659 139.581 48.9662 138.664 50.3556C137.738 51.7576 137.831 53.0052 138.895 53.7078ZM126.976 49.3889L128.789 47.2618C129.321 47.7484 129.627 47.9775 130.047 48.1777C130.737 48.507 131.382 48.5151 132.007 48.215C132.419 48.0127 132.649 47.7736 132.988 47.2037L133.995 45.0917C134.408 44.2252 134.626 43.6978 134.855 43.0092L137.658 44.3458C137.254 44.984 136.994 45.4585 136.574 46.3385L134.586 50.5085C134.114 51.4969 133.915 51.9837 133.719 52.6046L131.025 51.3196L131.535 50.25C130.458 50.8001 129.471 50.7782 128.239 50.1906C127.806 49.984 127.548 49.8277 126.976 49.3889ZM115.778 46.2162L117.141 43.7767C117.758 44.1501 118.103 44.3151 118.553 44.4296C119.295 44.618 119.928 44.5004 120.483 44.0841C120.848 43.8054 121.027 43.526 121.248 42.9011L121.824 40.6331C122.06 39.7027 122.172 39.1428 122.262 38.4229L125.271 39.1875C124.999 39.8922 124.837 40.4082 124.597 41.3532L123.459 45.8309C123.19 46.8922 123.089 47.4084 123.018 48.0557L120.125 47.3206L120.417 46.1721C119.468 46.9216 118.496 47.0925 117.173 46.7564C116.708 46.6382 116.424 46.5352 115.778 46.2162ZM107.611 39.9322L114.32 40.6767C114.305 39.4526 113.675 38.7338 112.498 38.6031C111.901 38.5369 111.358 38.6728 110.931 38.9876C110.684 39.1715 110.561 39.3239 110.399 39.6983L107.886 38.6799C108.315 37.9427 108.577 37.6246 109.04 37.2535C109.983 36.5129 111.223 36.2129 112.699 36.3767C114.16 36.5389 115.262 37.0837 116.017 38.0278C116.798 39.0199 117.134 40.3401 116.97 41.816C116.643 44.7679 114.533 46.5108 111.685 46.1948C109.36 45.9367 107.875 44.4891 107.6 42.2099C107.534 41.7196 107.543 41.0868 107.593 40.232C107.6 40.1724 107.609 40.083 107.611 39.9322ZM114.047 42.7291L110.215 42.3039C110.318 43.2812 110.903 43.8593 111.932 43.9734C112.99 44.0909 113.684 43.6849 114.047 42.7291ZM107.202 38.9172L104.245 39.3508C104.068 38.5765 103.546 38.2495 102.542 38.2847C101.642 38.3161 101.142 38.5888 101.158 39.0535C101.166 39.2783 101.293 39.469 101.507 39.5816C101.721 39.6942 101.918 39.7474 102.748 39.8834C103.895 40.0685 104.485 40.1979 104.985 40.3455C105.714 40.5902 106.221 40.9177 106.522 41.3575C106.776 41.7538 106.928 42.2588 106.946 42.7685C107.009 44.5674 105.533 45.7147 103.03 45.8022C101.606 45.852 100.53 45.5744 99.8033 44.9544C99.2934 44.537 99.0384 44.1106 98.7692 43.2795L101.651 42.8636C101.748 43.4756 102.132 43.7323 102.942 43.704C103.721 43.6767 104.192 43.4051 104.178 43.0154C104.164 42.6106 103.844 42.4717 102.348 42.1938C100.868 41.9304 100.399 41.8117 99.8647 41.5602C98.8736 41.1146 98.3832 40.3963 98.3454 39.3169C98.3176 38.5224 98.5623 37.7934 99.0402 37.2964C99.7346 36.5517 100.951 36.1339 102.555 36.0779C104.444 36.0118 105.796 36.4749 106.55 37.4391C106.864 37.8483 107.027 38.2029 107.202 38.9172ZM92.3867 46.8384L89.3358 47.4155C89.2932 46.7061 89.2056 46.0815 89.0355 45.1824L88.1741 40.6282C87.9817 39.6112 87.8379 39.0125 87.638 38.4397L90.571 37.8849L90.6908 38.5187C90.7048 38.5924 90.7466 38.8134 90.7514 38.9194C91.5513 37.8216 92.3245 37.309 93.5773 37.072C94.5647 36.8852 95.4136 37.0147 96.0768 37.4541C96.7779 37.9321 97.165 38.6069 97.3853 39.7712L98.0851 43.4706C98.2468 44.3255 98.4304 45.0541 98.6212 45.6591L95.5555 46.239C95.5101 45.5148 95.4225 44.8902 95.2552 44.0059L94.6837 40.9845C94.5694 40.3802 94.4603 40.1261 94.2388 39.9237C93.9823 39.6974 93.6302 39.6114 93.2027 39.6922C92.3921 39.8456 91.6755 40.5765 91.2791 41.6285L91.8506 44.6499C92.0067 45.4753 92.1533 46.0887 92.3867 46.8384ZM83.1898 40.062L86.051 38.8951C86.2282 39.5679 86.4383 40.1626 86.7952 41.0377L88.5399 45.3156C88.9704 46.3711 89.2021 46.8598 89.5064 47.3675L86.7563 48.4891L86.5184 47.9058C86.4957 47.8502 86.4957 47.8502 86.453 47.7056C86.453 47.7056 86.4416 47.6779 86.4247 47.6362C86.419 47.6223 86.4077 47.5945 86.3963 47.5667C86.0052 48.6334 85.3052 49.3401 84.208 49.7876C83.4857 50.0822 82.8205 50.1591 82.2262 50.0127C81.9026 49.9341 81.6957 49.824 81.3735 49.5504C80.8579 50.7489 80.158 51.4556 78.9496 51.9484C76.9634 52.7584 75.5077 52.0886 74.6523 49.9913L73.2475 46.5467C72.8963 45.6856 72.6363 45.1275 72.2867 44.5087L75.1757 43.3304C75.3586 44.0172 75.5347 44.5286 75.9199 45.473L77.0868 48.3342C77.5117 49.3759 77.9815 49.6541 78.7732 49.3312C79.4815 49.0423 79.8939 48.2262 79.8616 47.154L78.706 44.3206C78.3661 43.4872 78.1004 42.9152 77.7452 42.2825L80.6342 41.1042C80.8057 41.7633 81.0159 42.3579 81.3784 43.2468L82.5453 46.108C82.7832 46.6914 82.9464 46.9326 83.2233 47.0951C83.4667 47.255 83.7954 47.2667 84.1288 47.1308C84.8788 46.8249 85.2968 46.0226 85.3005 44.9196L84.1563 42.1139C83.7994 41.2389 83.5507 40.7085 83.1898 40.062ZM65.3272 53.4039L70.9592 49.6833C70.1644 48.7522 69.2206 48.6026 68.2319 49.2558C67.7313 49.5865 67.4007 50.0386 67.2737 50.5539C67.2017 50.8532 67.2051 51.0487 67.3199 51.4403L64.7371 52.2656C64.595 51.4247 64.5926 51.0128 64.7115 50.4308C64.9619 49.2587 65.7234 48.2343 66.9624 47.4158C68.1889 46.6055 69.3841 46.3193 70.5688 46.5614C71.8033 46.8245 72.9066 47.6238 73.7251 48.8628C75.3622 51.3409 74.8558 54.0305 72.4653 55.6097C70.5129 56.8995 68.4459 56.7369 66.7759 55.1614C66.4112 54.8271 66.0139 54.3345 65.5051 53.6459C65.472 53.5958 65.4224 53.5208 65.3272 53.4039ZM72.0627 51.4352L68.8462 53.5601C69.5505 54.2453 70.3698 54.3154 71.2334 53.7449C72.122 53.1578 72.3956 52.4018 72.0627 51.4352ZM54.6644 58.2335C55.2169 58.5931 55.9281 58.8544 56.7981 59.0171C57.6755 59.1867 58.648 59.1719 59.7156 58.9728C60.7764 58.781 61.6644 58.43 62.3796 57.9196L62.8429 58.3466C62.4138 59.1072 62.1334 59.9572 62.0018 60.8967C61.8708 61.8503 61.9087 62.7829 62.1156 63.6945C62.3305 64.627 62.6701 65.4093 63.1346 66.0415L62.7076 66.5047C62.279 66.232 61.7783 66.0153 61.2056 65.8546C60.6403 65.7007 60.0388 65.6154 59.4012 65.5989C58.7642 65.5965 58.1264 65.6614 57.4878 65.7935C56.5406 65.9948 55.7229 66.3359 55.0348 66.8168L54.5716 66.3898C54.8635 65.9109 55.0844 65.3393 55.2343 64.675C55.3774 64.0181 55.4456 63.3466 55.4389 62.6604C55.4396 61.981 55.3609 61.3508 55.2028 60.7699C54.9699 59.9159 54.6481 59.2249 54.2374 58.6967L54.6644 58.2335ZM49.3448 82.2446L50.254 79.2311C51.5945 79.6151 52.5623 79.2263 53.1635 78.085C54.0163 76.4659 53.2386 74.8525 51.0489 73.699C48.8856 72.5595 47.0545 72.8495 46.1876 74.4951C45.8031 75.2251 45.7798 76.0096 46.1079 76.6741C46.3076 77.0675 46.5241 77.3002 47.0395 77.6735L45.174 80.2172C44.1788 79.3708 43.6823 78.7363 43.3256 77.8363C42.8168 76.5172 42.9905 74.9642 43.8364 73.3584C44.6893 71.7393 45.9137 70.638 47.3656 70.199C48.8782 69.7413 50.7246 70.0018 52.5029 70.9386C54.3079 71.8893 55.5404 73.2506 56.0233 74.8444C56.4302 76.2285 56.2151 77.8275 55.3972 79.3803C54.4954 81.0923 53.2054 82.1251 51.5964 82.3795C50.8285 82.5176 50.2187 82.4846 49.3448 82.2446ZM52.7397 83.847L51.6549 86.7884C51.0949 86.4859 50.5283 86.2449 49.5713 85.892L42.1125 83.1409C41.2681 82.8294 40.723 82.6603 39.9459 82.4697L41.0308 79.5284C41.6329 79.8464 42.1011 80.051 43.1143 80.4247L50.5731 83.1758C51.5723 83.5444 52.1738 83.7342 52.7397 83.847ZM51.3912 87.5877L50.5258 90.5072L48.3686 89.8677L49.2339 86.9483L51.3912 87.5877ZM48.2113 86.5982L47.3203 89.6039C46.7563 89.3429 46.1895 89.1436 45.1828 88.8452L40.7533 87.5322C39.9767 87.302 39.1873 87.115 38.5476 87.0036L39.4385 83.9979C40.1177 84.293 40.6556 84.4838 41.576 84.7566L46.0055 86.0696C46.9403 86.3467 47.5385 86.4927 48.2113 86.5982ZM42.8734 98.4286L42.8063 95.6729C43.2731 95.6199 43.4958 95.5686 43.7518 95.4166C44.1446 95.1826 44.3963 94.8012 44.4921 94.2698C44.7077 93.0741 43.8907 92.1952 42.2669 91.9024C40.6726 91.6149 39.5035 92.1814 39.2906 93.3623C39.1867 93.9381 39.3271 94.5121 39.6872 94.8819C39.8552 95.0493 39.9895 95.1497 40.3183 95.27L39.4005 97.909C38.795 97.6322 38.4283 97.3832 38.0508 97.0255C37.0915 96.0904 36.7285 94.6379 37.0373 92.9256C37.2928 91.5084 37.954 90.3778 38.9271 89.715C39.9229 89.0105 41.3071 88.7724 42.7538 89.0332C45.7062 89.5656 47.2603 91.7663 46.7412 94.6449C46.3313 96.9182 44.9246 98.2954 42.8734 98.4286ZM48.965 98.9413L48.8873 101.985C48.2748 101.88 47.6308 101.833 46.6261 101.808L42.4125 101.7L44.0048 103.391C44.6769 104.098 45.0584 104.438 45.486 104.734L45.3841 108.723C44.8892 108.125 44.7288 107.941 43.9548 107.111L41.911 104.883L38.1882 107.294C36.8453 108.175 36.7538 108.233 36.2332 108.639L36.3309 104.816C36.9665 104.607 37.6347 104.294 38.3655 103.877L40.254 102.785L39.2031 101.633L38.6033 101.618C37.3737 101.586 37.0134 101.592 36.411 101.682L36.4891 98.6226C37.1616 98.7298 37.7606 98.7752 38.7503 98.8004L46.6977 99.0034C47.7174 99.0295 48.4083 99.0021 48.965 98.9413ZM37.483 117.696L36.8433 114.657C37.5518 114.6 38.1744 114.5 39.0845 114.308L46.864 112.67C47.8768 112.457 48.5017 112.295 49.0557 112.086L49.6953 115.125C49.0309 115.173 48.4963 115.255 47.4542 115.474L45.8983 115.801C45.7808 115.826 45.5429 115.861 45.4108 115.889C46.4475 116.59 47.0092 117.438 47.2718 118.685C47.4819 119.684 47.3699 120.535 46.9411 121.192C46.4776 121.903 45.8109 122.304 44.6513 122.548L40.9671 123.324C40.1157 123.503 39.3911 123.701 38.7901 123.905L38.1473 120.852C38.8704 120.791 39.4931 120.691 40.3885 120.502L43.3975 119.869C43.9846 119.745 44.2365 119.631 44.4489 119.402C44.6699 119.141 44.734 118.79 44.6475 118.379C44.4714 117.543 43.7467 116.868 42.6544 116.484L39.6747 117.112C38.838 117.288 38.2277 117.447 37.483 117.696ZM45.9817 132.657L43.5827 126.347C42.5004 126.919 42.148 127.808 42.5692 128.915C42.7824 129.476 43.1513 129.897 43.6264 130.134C43.9027 130.27 44.0942 130.309 44.5014 130.283L44.742 132.984C43.8903 132.938 43.4879 132.851 42.946 132.607C41.857 132.107 41.0239 131.14 40.4961 129.752C39.9737 128.378 39.9558 127.149 40.4511 126.046C40.9778 124.899 41.9989 123.997 43.387 123.469C46.1631 122.413 48.6768 123.496 49.6951 126.174C50.5267 128.361 49.9161 130.342 48.0136 131.627C47.6075 131.91 47.04 132.19 46.2568 132.536C46.2007 132.557 46.1166 132.589 45.9817 132.657ZM45.5336 125.654L46.9037 129.257C47.7264 128.72 47.9738 127.935 47.606 126.968C47.2275 125.972 46.5496 125.54 45.5336 125.654ZM54.6497 137.292L51.9345 137.953C51.7885 137.246 51.6748 136.881 51.4522 136.473C51.086 135.801 50.5689 135.417 49.8865 135.294C49.434 135.216 49.1072 135.274 48.499 135.538L46.4446 136.658C45.6018 137.117 45.1157 137.417 44.5267 137.84L43.0402 135.114C43.7417 134.834 44.2302 134.602 45.0862 134.135L49.1423 131.924C50.1037 131.399 50.5503 131.122 51.0735 130.734L52.5025 133.355L51.4621 133.922C52.6568 134.108 53.4433 134.704 54.0968 135.902C54.3266 136.324 54.4438 136.601 54.6497 137.292ZM55.6072 147.541L51.5819 142.123C50.696 142.968 50.5987 143.918 51.3054 144.87C51.6632 145.351 52.1328 145.656 52.6543 145.755C52.9571 145.81 53.1522 145.796 53.5368 145.66L54.5033 148.193C53.6714 148.382 53.2603 148.407 52.6727 148.32C51.4885 148.135 50.4237 147.431 49.5381 146.239C48.6615 145.059 48.3098 143.881 48.4863 142.685C48.6809 141.438 49.4182 140.292 50.6102 139.406C52.9943 137.635 55.7077 137.993 57.4162 140.292C58.8117 142.171 58.7633 144.244 57.2823 145.998C56.9685 146.38 56.4986 146.804 55.8391 147.35C55.7909 147.386 55.7187 147.44 55.6072 147.541ZM53.2703 140.925L55.5693 144.019C56.2146 143.278 56.2394 142.456 55.6222 141.625C54.987 140.77 54.2171 140.539 53.2703 140.925ZM62.4886 150.174L62.1855 149.905C61.6578 149.438 61.2899 149.152 60.8585 148.869L62.5298 146.983C62.8044 147.307 63.2909 147.798 63.7175 148.176L64.0206 148.445L64.4882 147.917C65.8014 146.435 67.2502 146.497 69.0801 148.118C69.7088 148.675 70.1094 149.151 70.5776 149.866L68.7671 151.208C68.5883 150.709 68.3311 150.321 67.9045 149.943C67.3544 149.455 66.9421 149.491 66.4248 150.074L66.1761 150.355L66.5016 150.643C66.9731 151.061 67.6092 151.565 68.0644 151.888L66.393 153.774C65.9713 153.3 65.6207 152.949 64.992 152.392L64.644 152.084L61.6097 155.508C60.9233 156.282 60.6174 156.673 60.1973 157.283L57.8623 155.213C58.4171 154.723 58.8077 154.327 59.4543 153.598L62.4886 150.174ZM66.7012 162.533C64.1951 160.856 63.6666 158.193 65.3428 155.687C67.0107 153.193 69.6657 152.677 72.1842 154.362C74.7028 156.046 75.2397 158.697 73.5885 161.166C71.929 163.647 69.1824 164.192 66.7012 162.533ZM70.9458 156.24C69.8486 155.506 68.6499 155.896 67.7326 157.267C66.8069 158.651 66.8965 159.92 67.9812 160.646C69.066 161.371 70.2314 160.978 71.1571 159.594C72.0911 158.197 72.0056 156.949 70.9458 156.24ZM82.8406 160.635L81.0149 162.75C80.4857 162.26 80.1809 162.029 79.7625 161.826C79.0741 161.493 78.4299 161.48 77.803 161.777C77.3895 161.976 77.1576 162.214 76.8157 162.782L75.7949 164.887C75.3761 165.751 75.1545 166.277 74.9214 166.964L72.1274 165.61C72.5356 164.974 72.7981 164.501 73.2234 163.624L75.2388 159.467C75.7164 158.481 75.9184 157.996 76.1188 157.376L78.8048 158.678L78.2879 159.745C79.3681 159.201 80.3546 159.23 81.5829 159.825C82.0148 160.034 82.2717 160.192 82.8406 160.635ZM94.0226 163.881L92.6433 166.311C92.0288 165.933 91.6849 165.766 91.2351 165.649C90.4949 165.455 89.8607 165.568 89.3033 165.981C88.9365 166.257 88.7553 166.535 88.5303 167.159L87.9387 169.423C87.696 170.352 87.5809 170.911 87.4859 171.63L84.4818 170.845C84.7585 170.142 84.9241 169.627 85.1706 168.684L86.3387 164.214C86.6156 163.154 86.7193 162.639 86.7953 161.992L89.6833 162.747L89.3837 163.893C90.3375 163.15 91.3107 162.986 92.6313 163.331C93.0957 163.453 93.3784 163.557 94.0226 163.881ZM102.146 170.214L95.4415 169.428C95.4489 170.652 96.074 171.375 97.251 171.513C97.8469 171.583 98.391 171.45 98.8203 171.138C99.0682 170.956 99.1917 170.804 99.3563 170.431L101.863 171.465C101.429 172.199 101.166 172.516 100.7 172.884C99.7528 173.619 98.5103 173.911 97.0354 173.738C95.5754 173.567 94.4772 173.015 93.7275 172.067C92.9534 171.07 92.6251 169.747 92.7981 168.272C93.1439 165.323 95.2648 163.593 98.1103 163.927C100.434 164.199 101.91 165.656 102.171 167.937C102.234 168.427 102.22 169.06 102.166 169.915C102.159 169.974 102.148 170.064 102.146 170.214ZM95.7272 167.377L99.556 167.826C99.4592 166.849 98.878 166.267 97.85 166.146C96.7923 166.022 96.0958 166.424 95.7272 167.377ZM102.549 171.232L105.508 170.816C105.681 171.592 106.2 171.922 107.205 171.893C108.105 171.867 108.607 171.597 108.594 171.133C108.587 170.908 108.462 170.716 108.248 170.602C108.035 170.488 107.838 170.434 107.009 170.293C105.863 170.101 105.274 169.968 104.774 169.817C104.047 169.568 103.542 169.237 103.244 168.796C102.993 168.398 102.843 167.892 102.828 167.382C102.776 165.583 104.259 164.445 106.763 164.373C108.188 164.331 109.261 164.616 109.984 165.24C110.492 165.661 110.744 166.088 111.008 166.921L108.124 167.32C108.031 166.707 107.648 166.448 106.839 166.471C106.059 166.494 105.587 166.762 105.598 167.152C105.609 167.557 105.929 167.698 107.423 167.985C108.901 168.258 109.37 168.379 109.902 168.634C110.891 169.086 111.377 169.807 111.408 170.886C111.431 171.681 111.182 172.409 110.701 172.903C110.002 173.643 108.783 174.053 107.179 174.1C105.289 174.154 103.94 173.683 103.192 172.714C102.88 172.303 102.72 171.947 102.549 171.232ZM117.407 163.398L120.461 162.838C120.5 163.547 120.584 164.172 120.749 165.072L121.586 169.631C121.772 170.649 121.913 171.249 122.11 171.823L119.174 172.361L119.057 171.727C119.044 171.653 119.003 171.432 118.999 171.326C118.193 172.419 117.417 172.928 116.163 173.158C115.175 173.339 114.326 173.205 113.666 172.762C112.967 172.28 112.584 171.603 112.37 170.438L111.69 166.734C111.533 165.879 111.354 165.149 111.166 164.543L114.235 163.98C114.277 164.704 114.361 165.33 114.523 166.215L115.078 169.239C115.189 169.844 115.297 170.099 115.517 170.302C115.772 170.53 116.124 170.618 116.552 170.54C117.363 170.391 118.084 169.664 118.486 168.614L117.931 165.589C117.78 164.763 117.637 164.149 117.407 163.398ZM126.568 170.228L123.7 171.377C123.527 170.703 123.32 170.107 122.969 169.23L121.251 164.941C120.827 163.883 120.598 163.392 120.297 162.883L123.054 161.778L123.289 162.363C123.311 162.419 123.311 162.419 123.353 162.564C123.353 162.564 123.364 162.592 123.381 162.633C123.386 162.647 123.397 162.675 123.409 162.703C123.806 161.639 124.511 160.937 125.611 160.496C126.335 160.206 127.001 160.133 127.594 160.283C127.917 160.364 128.123 160.475 128.444 160.751C128.967 159.556 129.671 158.853 130.883 158.368C132.874 157.571 134.325 158.25 135.168 160.352L136.551 163.805C136.897 164.669 137.153 165.229 137.499 165.85L134.602 167.01C134.424 166.322 134.251 165.809 133.872 164.862L132.723 161.994C132.304 160.95 131.836 160.669 131.043 160.986C130.332 161.271 129.915 162.084 129.941 163.157L131.078 165.997C131.413 166.833 131.675 167.407 132.026 168.041L129.13 169.202C128.963 168.541 128.756 167.946 128.399 167.054L127.25 164.186C127.016 163.601 126.854 163.359 126.579 163.195C126.336 163.033 126.008 163.019 125.673 163.153C124.921 163.454 124.498 164.254 124.488 165.357L125.614 168.17C125.966 169.047 126.211 169.579 126.568 170.228ZM144.513 156.997L138.858 160.683C139.647 161.619 140.59 161.774 141.583 161.127C142.085 160.8 142.419 160.35 142.549 159.835C142.623 159.536 142.621 159.341 142.508 158.948L145.096 158.139C145.233 158.981 145.233 159.393 145.11 159.974C144.853 161.144 144.085 162.164 142.841 162.975C141.61 163.778 140.413 164.057 139.229 163.807C137.997 163.537 136.898 162.731 136.087 161.487C134.465 158.999 134.988 156.312 137.388 154.748C139.349 153.47 141.415 153.645 143.075 155.231C143.438 155.567 143.832 156.062 144.336 156.754C144.369 156.804 144.418 156.88 144.513 156.997ZM137.765 158.924L140.995 156.819C140.295 156.13 139.476 156.055 138.609 156.62C137.717 157.202 137.438 157.956 137.765 158.924ZM155.197 152.223C154.647 151.86 153.937 151.595 153.068 151.428C152.191 151.253 151.219 151.262 150.15 151.455C149.088 151.641 148.198 151.987 147.48 152.494L147.019 152.064C147.453 151.306 147.738 150.457 147.875 149.519C148.011 148.566 147.978 147.633 147.777 146.72C147.567 145.787 147.232 145.002 146.771 144.368L147.2 143.907C147.627 144.182 148.127 144.401 148.699 144.565C149.263 144.722 149.864 144.811 150.502 144.831C151.139 144.837 151.777 144.776 152.416 144.647C153.364 144.451 154.184 144.115 154.875 143.638L155.336 144.067C155.041 144.545 154.817 145.115 154.663 145.778C154.517 146.435 154.445 147.106 154.447 147.792C154.443 148.471 154.518 149.102 154.673 149.684C154.901 150.539 155.219 151.232 155.627 151.762L155.197 152.223Z" fill="black" style="mix-blend-mode:overlay"/>
<defs>
<linearGradient id="paint0_linear_62_331" x1="210.498" y1="133.148" x2="22.5783" y2="187.578" gradientUnits="userSpaceOnUse">
<stop stop-color="#78FFF1"/>
<stop offset="0.2" stop-color="#D0DEFF"/>
<stop offset="0.4" stop-color="#DF97DF"/>
<stop offset="0.6" stop-color="#97EBBE"/>
<stop offset="0.8" stop-color="#F1FCAF"/>
<stop offset="1" stop-color="#C2E3F1"/>
</linearGradient>
<linearGradient id="paint1_linear_62_331" x1="22.5783" y1="21.5784" x2="227.253" y2="99.5557" gradientUnits="userSpaceOnUse">
<stop stop-color="white"/>
<stop offset="0.25"/>
<stop offset="0.5" stop-color="white"/>
<stop offset="0.75"/>
<stop offset="1" stop-color="white"/>
</linearGradient>
<linearGradient id="paint2_linear_62_331" x1="22.5783" y1="21.5784" x2="227.253" y2="99.5557" gradientUnits="userSpaceOnUse">
<stop stop-color="white"/>
<stop offset="0.234375"/>
<stop offset="0.489583" stop-color="white"/>
<stop offset="0.734375"/>
<stop offset="1" stop-color="white"/>
</linearGradient>
</defs>
</svg>
