<svg width="125" height="121" viewBox="0 0 125 121" fill="none" xmlns="http://www.w3.org/2000/svg">
<path d="M73 17C74.923 54.2402 85.0495 67.0553 125 69C85.7884 74.9718 73.8483 85.479 73 121C68.0597 84.8794 56.4372 73.7148 21 69C57.5449 67.6649 68.1007 54.5072 73 17Z" fill="url(#paint0_linear_2018_13)" fill-opacity="0.84"/>
<path d="M27 0C27.9985 19.3363 33.2565 25.9903 54 27C33.6401 30.1007 27.4404 35.5564 27 54C24.4349 35.2451 18.4001 29.448 0 27C18.9752 26.3068 24.4561 19.4749 27 0Z" fill="url(#paint1_linear_2018_13)" fill-opacity="0.84"/>
<defs>
<linearGradient id="paint0_linear_2018_13" x1="73" y1="17" x2="73" y2="121" gradientUnits="userSpaceOnUse">
<stop offset="0.0721154" stop-color="#B947EE"/>
<stop offset="0.788462" stop-color="#4285F4"/>
</linearGradient>
<linearGradient id="paint1_linear_2018_13" x1="27" y1="0" x2="27" y2="54" gradientUnits="userSpaceOnUse">
<stop offset="0.0721154" stop-color="#B947EE"/>
<stop offset="0.788462" stop-color="#4285F4"/>
</linearGradient>
</defs>
</svg>
