<svg width="113" height="113" viewBox="0 0 113 113" fill="none" xmlns="http://www.w3.org/2000/svg">
<rect x="0.0163269" y="0.0584717" width="112.782" height="112.782" rx="10.0102" transform="rotate(-0.0215002 0.0163269 0.0584717)" fill="url(#paint0_radial_165_321)"/>
<g filter="url(#filter0_d_165_321)">
<rect x="5.78525" y="5.72327" width="100.789" height="100.789" rx="10.0102" transform="rotate(-0.0215002 5.78525 5.72327)" stroke="white" stroke-width="0.667347" stroke-dasharray="3.34 3.34" shape-rendering="crispEdges"/>
</g>
<path d="M33.3361 20.0123L31.0542 33.5674L25.4997 33.6874L24.3033 26.6665L23.1133 33.18L17.5588 33.3782L15.2445 20.0209L20.0948 19.5883L21.0766 27.7046L22.3831 19.5872L26.197 19.5854L27.7265 27.7992L28.5049 19.5843L33.3361 20.0123ZM46.0809 26.0888C46.0812 26.6821 46.013 27.2558 45.8764 27.8101C45.7397 28.3578 45.5411 28.8729 45.2806 29.3555C45.0265 29.838 44.7138 30.2815 44.3424 30.6859C43.9775 31.0838 43.5637 31.4262 43.1009 31.7133C42.6447 32.0004 42.1461 32.2255 41.605 32.3888C41.064 32.5455 40.4903 32.624 39.884 32.6243C39.2973 32.6246 38.7366 32.5499 38.2019 32.4002C37.6737 32.2505 37.1782 32.0421 36.7151 31.775C36.2521 31.5014 35.8315 31.1757 35.4532 30.7977C35.0814 30.4133 34.7617 29.9896 34.4942 29.5269C34.2332 29.0576 34.0276 28.5557 33.8774 28.0212C33.7337 27.4867 33.6617 26.9293 33.6614 26.349C33.6612 25.7818 33.7293 25.2277 33.866 24.6865C34.0026 24.1388 34.198 23.6236 34.452 23.1411C34.7126 22.6585 35.0253 22.215 35.3902 21.8107C35.7551 21.4063 36.1624 21.0573 36.6121 20.7637C37.0683 20.4701 37.5604 20.2417 38.0884 20.0784C38.6164 19.9152 39.1738 19.8334 39.7605 19.8332C40.7059 19.8327 41.5665 19.979 42.3425 20.272C43.1249 20.565 43.7901 20.9852 44.338 21.5325C44.8924 22.0734 45.3198 22.7317 45.62 23.5073C45.9268 24.2765 46.0804 25.137 46.0809 26.0888ZM41.7391 26.3452C41.7389 26.0648 41.6964 25.7943 41.6115 25.5336C41.5332 25.2663 41.4157 25.0316 41.2591 24.8296C41.1026 24.6211 40.9069 24.4549 40.6722 24.3312C40.4439 24.2009 40.1798 24.1358 39.8799 24.136C39.5735 24.1361 39.2997 24.1917 39.0586 24.3026C38.8174 24.4135 38.6089 24.5669 38.4329 24.7625C38.2635 24.9517 38.1332 25.1767 38.0421 25.4375C37.9509 25.6918 37.9054 25.9624 37.9056 26.2492C37.9057 26.523 37.9449 26.7968 38.0233 27.0706C38.1017 27.3444 38.2191 27.5921 38.3757 27.8137C38.5323 28.0352 38.7247 28.2144 38.9529 28.3512C39.1877 28.488 39.4583 28.5564 39.7647 28.5562C40.0711 28.5561 40.3449 28.4973 40.5861 28.3798C40.8338 28.2558 41.0423 28.0927 41.2117 27.8905C41.3811 27.6818 41.5114 27.4438 41.6025 27.1765C41.6937 26.9091 41.7392 26.632 41.7391 26.3452ZM58.6263 24.1465C58.6266 24.655 58.5811 25.1179 58.4901 25.5352C58.4055 25.946 58.2688 26.3242 58.0799 26.6698C57.891 27.0154 57.6467 27.335 57.3469 27.6285C57.0471 27.9221 56.6855 28.2026 56.2618 28.4701L58.5913 32.6153L54.191 33.478L52.683 29.3128L51.4704 29.3525L51.2963 33.4207L47.0913 33.4228C47.1232 31.9363 47.1518 30.4564 47.1772 28.9829C47.2091 27.5095 47.2442 26.0296 47.2826 24.5431C47.2953 23.7934 47.308 23.0502 47.3207 22.3135C47.3333 21.5767 47.3591 20.8335 47.3978 20.0838C47.8541 19.914 48.3039 19.7736 48.7472 19.6626C49.1904 19.5516 49.6337 19.4666 50.077 19.4077C50.5268 19.3423 50.9799 19.2997 51.4363 19.2799C51.8991 19.2536 52.3718 19.2404 52.8542 19.2401C53.5974 19.2398 54.3146 19.3437 55.0058 19.552C55.7035 19.7538 56.3197 20.0599 56.8545 20.4704C57.3893 20.8809 57.8166 21.3924 58.1363 22.0051C58.4626 22.6178 58.6259 23.3316 58.6263 24.1465ZM54.2454 24.4616C54.2452 24.1877 54.206 23.9368 54.1277 23.7086C54.0558 23.4805 53.9449 23.2849 53.7949 23.122C53.6514 22.9526 53.4688 22.8223 53.2471 22.7311C53.0319 22.6334 52.7776 22.5847 52.4842 22.5848C52.3538 22.5849 52.2267 22.5947 52.1028 22.6143C51.979 22.6274 51.8584 22.6503 51.741 22.6829L51.5863 26.3209L51.821 26.3208C52.1014 26.3206 52.3849 26.2846 52.6718 26.2128C52.9651 26.1409 53.2258 26.03 53.4539 25.8799C53.6886 25.7299 53.8775 25.5375 54.0209 25.3027C54.1707 25.0679 54.2455 24.7875 54.2454 24.4616ZM71.7285 20.9327L67.4086 26.0786L71.3822 32.8048L66.845 33.6089L63.8702 29.5813L63.7156 33.4148L59.6475 33.5732L59.9537 19.5692L64.5109 19.8213L64.1608 23.8505L66.9948 19.7614L71.7285 20.9327ZM82.3115 25.6607C82.3118 26.2279 82.2729 26.7951 82.195 27.3624C81.0802 27.4346 79.9719 27.5525 78.8702 27.716C77.7685 27.873 76.6668 28.03 75.5651 28.187C75.7348 28.6563 75.999 29.0311 76.3577 29.3112C76.7229 29.5914 77.1566 29.7314 77.6586 29.7311C77.9193 29.731 78.2029 29.682 78.5093 29.584C78.8222 29.4861 79.1318 29.3653 79.4381 29.2217C79.7445 29.0716 80.0378 28.9118 80.318 28.7421C80.5983 28.5725 80.8394 28.4192 81.0415 28.2822L80.5742 32.7222C80.32 32.9179 80.043 33.0842 79.7432 33.2213C79.4499 33.3583 79.1435 33.4693 78.8241 33.5542C78.5047 33.6391 78.182 33.7012 77.8561 33.7405C77.5301 33.7798 77.2107 33.7995 76.8977 33.7996C76.2523 33.7999 75.6622 33.7122 75.1276 33.5364C74.5929 33.3607 74.1071 33.1164 73.6701 32.8037C73.2397 32.4844 72.8614 32.1098 72.5352 31.6796C72.209 31.2495 71.9382 30.7802 71.7228 30.2718C71.5074 29.7634 71.3442 29.2256 71.2331 28.6585C71.122 28.0913 71.0663 27.5176 71.066 26.9374C71.0657 26.3311 71.1209 25.7248 71.2314 25.1184C71.3419 24.512 71.5079 23.9285 71.7293 23.3677C71.9572 22.8069 72.2406 22.2885 72.5794 21.8124C72.9247 21.3298 73.3254 20.9091 73.7816 20.5503C74.2378 20.1915 74.7527 19.9109 75.3263 19.7085C75.9064 19.5062 76.5453 19.4048 77.2429 19.4045C77.8231 19.4042 78.3512 19.4854 78.8272 19.6482C79.3097 19.8044 79.7369 20.0259 80.1086 20.3126C80.4869 20.5927 80.813 20.9283 81.087 21.3193C81.3676 21.7104 81.5959 22.1406 81.7722 22.6099C81.955 23.0727 82.0888 23.5648 82.1739 24.0863C82.2654 24.6013 82.3113 25.1261 82.3115 25.6607ZM78.3996 25.1541C78.3995 24.9715 78.3799 24.7857 78.3406 24.5967C78.3014 24.4011 78.2362 24.2251 78.1448 24.0687C78.06 23.9123 77.9458 23.7852 77.8024 23.6875C77.6589 23.5832 77.4796 23.5312 77.2644 23.5313C77.0036 23.5314 76.7722 23.6032 76.5702 23.7468C76.3747 23.8838 76.2053 24.0599 76.0619 24.2751C75.9186 24.4838 75.8014 24.712 75.7102 24.9598C75.6191 25.2076 75.5507 25.4358 75.5052 25.6444L78.3997 25.3692L78.3996 25.1541ZM94.4374 25.7918C94.4378 26.7045 94.3209 27.5228 94.0865 28.2466C93.8522 28.9703 93.5233 29.6127 93.0998 30.1736C92.6828 30.7279 92.1843 31.2008 91.6042 31.5923C91.0242 31.9837 90.3887 32.3067 89.6977 32.5613C89.0068 32.8094 88.2702 32.9923 87.4879 33.11C86.7121 33.2277 85.9135 33.2868 85.0921 33.2872C84.7857 33.2873 84.4858 33.281 84.1924 33.2681C83.899 33.2486 83.5991 33.2227 83.2927 33.1903L83.5604 20.4576C84.2774 20.2291 85.014 20.069 85.7702 19.9773C86.533 19.8792 87.2892 19.8299 88.0389 19.8296C88.9712 19.8291 89.8286 19.9591 90.6111 20.2195C91.3935 20.4799 92.0685 20.8642 92.6359 21.3725C93.2034 21.8742 93.6437 22.4966 93.957 23.2397C94.2768 23.9762 94.4369 24.8269 94.4374 25.7918ZM87.7893 29.5502C88.1805 29.4914 88.5357 29.3738 88.8551 29.1977C89.181 29.015 89.4612 28.7932 89.6958 28.5323C89.9304 28.2649 90.1095 27.9649 90.2332 27.6323C90.3635 27.2933 90.4285 26.9347 90.4283 26.5565C90.4281 26.1849 90.3888 25.8394 90.3105 25.52C90.2321 25.194 90.1048 24.9138 89.9287 24.6792C89.7525 24.438 89.521 24.2491 89.2341 24.1123C88.9471 23.969 88.5951 23.8909 88.1778 23.8781L87.7893 29.5502ZM29.3641 41.7109L27.3673 53.2293L22.5071 53.3343L21.4604 47.5333L20.419 52.8904L15.5588 53.0638L13.5341 42.0607L17.7781 41.6822L18.6371 48.4417L19.7807 42.1946L23.1178 42.193L24.4557 48.5244L25.1368 41.3364L29.3641 41.7109ZM34.6774 41.5372L34.084 53.1918L30.4732 53.3818L30.1253 41.779L34.6774 41.5372ZM44.7912 41.5152L44.7074 45.1433L42.1575 45.2473L41.8533 53.1881L38.2424 53.3781L37.9134 45.4375L35.3636 45.5757L35.4643 41.5368L44.7912 41.5152ZM55.792 53.2328L51.5137 53.4402L51.4778 49.8292L49.5097 49.8302L49.3917 53.5781L45.5582 53.58L45.8776 41.5489L49.9508 41.7352L49.697 47.8791L51.5966 47.8782L51.6106 41.4435L55.5126 41.5443L55.792 53.2328ZM75.6833 47.764C75.6837 48.5797 75.6584 49.3927 75.6075 50.2027C75.5565 51.0128 75.497 51.8257 75.4289 52.6415L71.0308 52.849C71.1616 51.8563 71.278 50.8637 71.3802 49.871C71.4881 48.8727 71.5419 47.8744 71.5414 46.8761C71.5413 46.8133 71.5384 46.7049 71.5327 46.5509C71.5269 46.3912 71.5154 46.2115 71.4982 46.0119C71.4867 45.8122 71.4666 45.6068 71.438 45.3958C71.4151 45.179 71.3807 44.9822 71.335 44.8054C71.295 44.6229 71.2436 44.4746 71.1808 44.3605C71.118 44.2465 71.0438 44.1895 70.9582 44.1895C70.7586 44.1896 70.6017 44.2667 70.4877 44.4208C70.3737 44.5691 70.2882 44.7489 70.2313 44.96C70.18 45.1711 70.1488 45.3879 70.1375 45.6103C70.1261 45.8271 70.1205 46.004 70.1206 46.1409C70.1207 46.3805 70.1265 46.62 70.1381 46.8596C70.1496 47.0992 70.1554 47.3445 70.1555 47.5955C70.1559 48.4797 70.1335 49.3611 70.0883 50.2396C70.0488 51.1181 69.9979 51.9995 69.9356 52.8837L65.8797 53.0397C66.0105 52.047 66.1241 51.0572 66.2206 50.0703C66.3228 49.0777 66.3736 48.0822 66.3732 47.0839C66.3731 47.0212 66.3702 46.9071 66.3644 46.7416C66.3587 46.5762 66.3472 46.3908 66.3299 46.1855C66.3184 45.9801 66.2984 45.7662 66.2697 45.5437C66.2411 45.3213 66.2039 45.1188 66.1582 44.9363C66.1182 44.748 66.0668 44.594 66.004 44.4743C65.9412 44.3545 65.8641 44.2946 65.7728 44.2947C65.6302 44.2947 65.5105 44.3519 65.4135 44.466C65.3166 44.5744 65.2368 44.7171 65.1742 44.8939C65.1172 45.0708 65.0717 45.2676 65.0375 45.4844C65.0091 45.6955 64.9864 45.9037 64.9694 46.1091C64.9581 46.3145 64.9496 46.5056 64.944 46.6824C64.9441 46.8536 64.9413 46.9819 64.9356 47.0675L64.7504 53.314L60.4377 53.3161C60.5285 52.352 60.6193 51.385 60.7101 50.4152C60.8067 49.4454 60.8889 48.4785 60.9569 47.5144C61.0306 46.5445 61.09 45.5747 61.1352 44.6049C61.1804 43.6352 61.2027 42.6654 61.2023 41.6956L65.2752 41.5225L65.2586 42.5151C65.384 42.3553 65.5265 42.1955 65.6862 42.0357C65.8458 41.8702 66.0141 41.7247 66.1908 41.5991C66.3733 41.4678 66.5644 41.3622 66.764 41.2822C66.9693 41.2022 67.1804 41.1622 67.3971 41.1621C67.6767 41.162 67.9277 41.1847 68.1502 41.2302C68.3727 41.27 68.5724 41.3412 68.7493 41.4438C68.9318 41.5464 69.0916 41.689 69.2286 41.8714C69.3656 42.0482 69.4855 42.2735 69.5883 42.5473C69.7708 42.3475 69.9533 42.162 70.1357 41.9908C70.3239 41.8196 70.5206 41.674 70.7259 41.5541C70.9312 41.4285 71.1537 41.3314 71.3932 41.2629C71.6328 41.1943 71.898 41.1599 72.189 41.1598C72.7423 41.1595 73.213 41.2677 73.601 41.4843C73.989 41.6952 74.3114 41.9774 74.5683 42.331C74.8309 42.6845 75.0336 43.0894 75.1764 43.5457C75.325 44.002 75.4364 44.4754 75.5108 44.966C75.5852 45.4566 75.6311 45.9443 75.6484 46.4291C75.6715 46.914 75.6831 47.359 75.6833 47.764ZM86.3699 46.6465C86.3701 47.1428 86.3361 47.6391 86.2679 48.1354C85.2925 48.1986 84.3227 48.3018 83.3587 48.4449C82.3947 48.5822 81.4307 48.7196 80.4667 48.857C80.6153 49.2676 80.8464 49.5955 81.1603 49.8407C81.4799 50.0858 81.8593 50.2083 82.2985 50.2081C82.5267 50.208 82.7749 50.1651 83.0429 50.0794C83.3167 49.9937 83.5876 49.888 83.8557 49.7624C84.1237 49.631 84.3804 49.4912 84.6256 49.3427C84.8708 49.1943 85.0818 49.0601 85.2586 48.9402L84.8497 52.8252C84.6273 52.9965 84.385 53.1421 84.1226 53.262C83.866 53.3819 83.5979 53.479 83.3184 53.5533C83.0389 53.6276 82.7566 53.6819 82.4714 53.7163C82.1862 53.7506 81.9066 53.7679 81.6328 53.768C81.0681 53.7683 80.5518 53.6915 80.0839 53.5377C79.6161 53.3839 79.191 53.1702 78.8087 52.8966C78.432 52.6172 78.101 52.2894 77.8156 51.913C77.5302 51.5367 77.2933 51.126 77.1048 50.6812C76.9163 50.2363 76.7735 49.7658 76.6763 49.2695C76.5791 48.7733 76.5303 48.2713 76.5301 47.7636C76.5298 47.2331 76.5781 46.7025 76.6748 46.172C76.7715 45.6414 76.9167 45.1308 77.1104 44.6401C77.3099 44.1494 77.5578 43.6958 77.8542 43.2792C78.1564 42.8569 78.507 42.4888 78.9062 42.1748C79.3054 41.8609 79.7559 41.6154 80.2578 41.4383C80.7654 41.2612 81.3244 41.1725 81.9348 41.1723C82.4425 41.172 82.9046 41.2431 83.3211 41.3855C83.7433 41.5222 84.1171 41.716 84.4424 41.9668C84.7733 42.212 85.0587 42.5056 85.2985 42.8478C85.5439 43.1899 85.7438 43.5663 85.898 43.977C86.0579 44.3819 86.175 44.8126 86.2494 45.2689C86.3295 45.7195 86.3697 46.1787 86.3699 46.6465ZM82.9469 46.2032C82.9469 46.0434 82.9297 45.8809 82.8954 45.7155C82.8611 45.5443 82.8039 45.3903 82.724 45.2535C82.6498 45.1166 82.5499 45.0054 82.4244 44.9199C82.2988 44.8287 82.1419 44.7831 81.9537 44.7832C81.7255 44.7833 81.523 44.8462 81.3462 44.9718C81.1751 45.0916 81.0269 45.2457 80.9015 45.434C80.7761 45.6166 80.6735 45.8164 80.5937 46.0332C80.514 46.25 80.4542 46.4497 80.4143 46.6322L82.947 46.3914L82.9469 46.2032ZM92.1642 50.2205L89.272 50.2218C89.2318 49.6172 89.2658 49.1123 89.374 48.7072C89.4822 48.2965 89.6275 47.957 89.8099 47.6888C89.998 47.4149 90.2061 47.1951 90.4342 47.0296C90.668 46.8583 90.8933 46.7128 91.11 46.5929C91.3324 46.4673 91.5263 46.3474 91.6917 46.2332C91.8628 46.119 91.9796 45.9764 92.0423 45.8052C92.0822 45.7025 92.0935 45.5855 92.0764 45.4544C92.0592 45.3175 91.9992 45.1891 91.8965 45.0694C91.7994 44.9496 91.6511 44.8499 91.4514 44.7701C91.2574 44.6846 91.0035 44.642 90.6898 44.6421C90.4844 44.6422 90.2391 44.6623 89.9539 44.7024C89.6744 44.7367 89.3806 44.7939 89.0726 44.8739C88.7646 44.9482 88.4595 45.0425 88.1572 45.1567C87.8606 45.2653 87.5926 45.3909 87.353 45.5336L86.9749 42.1795C87.1859 42.0539 87.4226 41.9255 87.685 41.7941C87.953 41.6571 88.2467 41.5372 88.5661 41.4343C88.8855 41.3258 89.2335 41.2372 89.6099 41.1686C89.9864 41.0999 90.3914 41.0655 90.825 41.0653C91.5266 41.065 92.1884 41.1616 92.8103 41.3553C93.4379 41.5489 93.9856 41.8339 94.4536 42.2102C94.9215 42.5865 95.2926 43.0512 95.5666 43.6044C95.8407 44.1519 95.9779 44.7822 95.9783 45.4953C95.9785 46.0372 95.9017 46.4736 95.7479 46.8046C95.594 47.1298 95.3973 47.398 95.1578 47.6092C94.9184 47.8204 94.6503 47.9973 94.3538 48.1401C94.0572 48.2829 93.7663 48.4399 93.4812 48.6111C93.2017 48.7767 92.9423 48.9822 92.7028 49.2276C92.469 49.473 92.2895 49.804 92.1642 50.2205ZM92.5931 52.4792C92.5933 52.7302 92.5449 52.9642 92.448 53.181C92.3511 53.3978 92.22 53.5861 92.0547 53.7459C91.895 53.9114 91.7068 54.0399 91.4901 54.1312C91.2734 54.2283 91.0424 54.2769 90.7971 54.277C90.5461 54.2772 90.3122 54.2288 90.0953 54.1319C89.8785 54.0407 89.6874 53.9125 89.5218 53.7471C89.362 53.5875 89.2336 53.3993 89.1365 53.1826C89.0451 52.9658 88.9994 52.732 88.9993 52.481C88.9992 52.2357 89.0447 52.0018 89.1358 51.7792C89.2327 51.5567 89.361 51.3656 89.5206 51.2058C89.686 51.0402 89.877 50.9089 90.0937 50.8119C90.3105 50.7148 90.5443 50.6662 90.7953 50.6661C91.0406 50.6659 91.2717 50.7143 91.4885 50.8112C91.7053 50.9081 91.8936 51.0392 92.0534 51.2045C92.219 51.3642 92.3502 51.5552 92.4473 51.7777C92.5444 52.0001 92.593 52.234 92.5931 52.4792ZM16.9046 66.7699C16.4005 66.7701 15.9783 66.6688 15.6381 66.4658C15.2979 66.2629 15.0408 65.9718 14.8669 65.5927C14.693 65.211 14.6059 64.7547 14.6057 64.2237C14.6054 63.727 14.6847 63.2877 14.8436 62.9059C15.0049 62.5241 15.2397 62.2255 15.5479 62.01C15.8586 61.7921 16.2378 61.683 16.6856 61.6828C16.967 61.6827 17.2166 61.7241 17.4344 61.8072C17.6522 61.8879 17.837 61.9918 17.9888 62.1189C18.143 62.2461 18.2617 62.377 18.345 62.5115C18.3181 62.5482 18.2728 62.5984 18.2093 62.6621C18.1457 62.7233 18.076 62.7857 18.0001 62.8494C17.9268 62.913 17.8558 62.9657 17.7873 63.0073C17.6869 62.8507 17.5816 62.7284 17.4715 62.6404C17.3638 62.5499 17.2439 62.4863 17.1117 62.4497C16.9796 62.4131 16.8278 62.3948 16.6565 62.3949C16.5048 62.3949 16.3519 62.4317 16.1978 62.5052C16.0461 62.5787 15.9067 62.6901 15.7795 62.8394C15.6524 62.9887 15.5497 63.1772 15.4715 63.4048C15.3957 63.6324 15.3579 63.8991 15.3581 64.205C15.3583 64.5965 15.4135 64.9342 15.5237 65.218C15.6364 65.4993 15.8066 65.717 16.0342 65.871C16.2643 66.0226 16.5555 66.0984 16.9079 66.0982C17.1722 66.0981 17.3826 66.0429 17.5391 65.9327C17.6957 65.8225 17.807 65.6781 17.8729 65.4995C17.9414 65.3208 17.9755 65.1287 17.9754 64.9231C17.9754 64.8791 17.9742 64.8351 17.9717 64.791C17.9717 64.7445 17.9692 64.7017 17.9643 64.6626C17.9105 64.6503 17.8187 64.6357 17.689 64.6186C17.5617 64.5991 17.4186 64.5796 17.2595 64.5601C17.1029 64.5406 16.9512 64.5236 16.8044 64.509C16.6576 64.4919 16.5376 64.4822 16.4447 64.4798C16.4422 64.4333 16.4409 64.3758 16.4409 64.3073C16.4409 64.2363 16.4421 64.1641 16.4445 64.0907C16.4469 64.0173 16.4493 63.9586 16.4517 63.9145C16.6353 63.9218 16.8579 63.9376 17.1198 63.9619C17.3816 63.9863 17.6459 64.0167 17.9126 64.0533C18.1818 64.0899 18.418 64.1314 18.6211 64.1777C18.6382 64.2781 18.6505 64.3845 18.6579 64.4971C18.6678 64.6072 18.6727 64.7124 18.6728 64.8127C18.6729 65.1871 18.6107 65.5223 18.4861 65.8185C18.3638 66.1146 18.1731 66.3472 17.9138 66.5161C17.6545 66.6851 17.3181 66.7697 16.9046 66.7699ZM20.5286 66.5956C20.4943 66.5981 20.4405 66.6018 20.3671 66.6067C20.2937 66.6116 20.2191 66.6141 20.1432 66.6142C20.0747 66.6142 20.0086 66.6118 19.945 66.6069C19.8814 66.6021 19.8214 66.596 19.7652 66.5887C19.7749 66.525 19.7871 66.3941 19.8017 66.1959C19.8163 65.9952 19.8308 65.7579 19.8454 65.4838C19.8599 65.2098 19.8732 64.9271 19.8853 64.6359C19.8974 64.3447 19.9071 64.0731 19.9143 63.8211C19.9215 63.5666 19.9251 63.3647 19.925 63.2155C19.952 63.213 19.9948 63.2105 20.0535 63.2081C20.1147 63.2056 20.1807 63.2031 20.2517 63.2006C20.3227 63.1957 20.3899 63.192 20.4536 63.1895C20.5172 63.187 20.5649 63.1858 20.5967 63.1858C20.6065 63.2519 20.6127 63.3534 20.6152 63.4904C20.6202 63.625 20.6227 63.7779 20.6228 63.9492C20.6229 64.1768 20.6205 64.4252 20.6158 64.6943C20.6135 64.9635 20.6075 65.2278 20.5978 65.4871C20.5881 65.7465 20.5772 65.9753 20.5651 66.1735C20.5554 66.3717 20.5432 66.5124 20.5286 66.5956ZM20.3028 62.6133C20.1364 62.6134 20.0042 62.5633 19.9063 62.463C19.8084 62.3628 19.7594 62.2368 19.7593 62.0851C19.7593 61.9701 19.7837 61.8746 19.8326 61.7987C19.8815 61.7204 19.9451 61.6617 20.0234 61.6225C20.1041 61.5808 20.191 61.56 20.2839 61.5599C20.4332 61.5599 20.5531 61.6124 20.6437 61.7176C20.7368 61.8228 20.7833 61.9537 20.7834 62.1103C20.7834 62.2473 20.7395 62.366 20.6514 62.4664C20.5658 62.5643 20.4496 62.6133 20.3028 62.6133ZM22.2897 66.6241C22.2701 66.448 22.2528 66.2375 22.238 65.9929C22.2232 65.7482 22.2097 65.4876 22.1973 65.2111C22.1849 64.9346 22.175 64.6569 22.1675 64.3779C22.16 64.099 22.1538 63.8347 22.1488 63.5851C22.1438 63.3331 22.1412 63.1129 22.1411 62.9244C22.1778 62.9122 22.2268 62.8999 22.2879 62.8877C22.3491 62.8754 22.4139 62.8644 22.4824 62.8545C22.551 62.8447 22.6158 62.8374 22.677 62.8324C22.7381 62.8251 22.7883 62.8214 22.8275 62.8213C22.8299 62.8605 22.8324 62.918 22.8349 62.9939C22.8374 63.0673 22.8398 63.1456 22.8423 63.2288C22.8473 63.3119 22.8497 63.3878 22.8498 63.4563C22.8523 63.5224 22.8535 63.5689 22.8535 63.5958C22.8731 63.5444 22.911 63.4746 22.9672 63.3865C23.0259 63.2984 23.1054 63.2091 23.2056 63.1185C23.3084 63.0279 23.4356 62.952 23.5873 62.8907C23.7389 62.8295 23.9176 62.7988 24.1231 62.7987C24.3091 62.7986 24.4657 62.8377 24.593 62.9159C24.7227 62.9942 24.828 63.0969 24.9088 63.2241C24.992 63.3488 25.0545 63.4846 25.0962 63.6314C25.1207 63.7171 25.1378 63.8027 25.1477 63.8883C25.1599 63.974 25.1685 64.0572 25.1735 64.1379C25.215 63.9054 25.2932 63.6839 25.4081 63.4734C25.5254 63.2605 25.6832 63.0867 25.8813 62.952C26.0819 62.8173 26.3265 62.7499 26.6153 62.7498C26.882 62.7497 27.101 62.8046 27.2724 62.9146C27.4437 63.0247 27.5771 63.18 27.6727 63.3806C27.7682 63.5812 27.8344 63.8197 27.8712 64.0962C27.9105 64.3703 27.9302 64.6737 27.9304 65.0065C27.9305 65.1826 27.9256 65.3698 27.916 65.568C27.9087 65.7662 27.8978 65.9596 27.8832 66.148C27.8711 66.334 27.8577 66.5004 27.8431 66.6472C27.7843 66.6545 27.7244 66.6595 27.6632 66.6619C27.602 66.6669 27.5409 66.6693 27.4797 66.6694C27.421 66.6694 27.3586 66.667 27.2925 66.6621C27.2289 66.6597 27.164 66.6561 27.098 66.6512C27.1467 66.289 27.1845 65.9538 27.2113 65.6455C27.2405 65.3371 27.255 65.0618 27.2549 64.8196C27.2547 64.3571 27.1995 64.006 27.0892 63.7663C26.979 63.5265 26.7979 63.4067 26.5459 63.4068C26.3183 63.4069 26.1348 63.4743 25.9954 63.609C25.8584 63.7436 25.7533 63.9247 25.68 64.1523C25.6091 64.3799 25.5603 64.6369 25.5336 64.9232C25.5068 65.2095 25.491 65.5044 25.4863 65.8078C25.4839 65.9375 25.4815 66.0721 25.4791 66.2115C25.4767 66.3486 25.4756 66.4856 25.4756 66.6226C25.4389 66.6251 25.39 66.6276 25.3288 66.63C25.2701 66.635 25.2102 66.6374 25.149 66.6375C25.078 66.6375 25.0071 66.6351 24.9361 66.6302C24.8651 66.6278 24.8101 66.6229 24.7709 66.6156C24.7733 66.4517 24.7744 66.2938 24.7744 66.1421C24.7767 65.9904 24.7779 65.8387 24.7778 65.687C24.7777 65.4007 24.7678 65.1242 24.7481 64.8575C24.7308 64.5908 24.6952 64.351 24.6413 64.1382C24.5873 63.9228 24.5053 63.7516 24.3951 63.6244C24.2849 63.4972 24.1381 63.4337 23.9546 63.4338C23.8175 63.4338 23.6866 63.4694 23.5619 63.5404C23.4396 63.6114 23.3295 63.7008 23.2317 63.8085C23.1338 63.9138 23.0556 64.0251 22.9969 64.1426C22.9383 64.2576 22.904 64.3592 22.8943 64.4473C22.9092 64.8388 22.9265 65.1899 22.9462 65.5007C22.9684 65.8114 22.9881 66.0659 23.0053 66.2641C23.025 66.4599 23.0385 66.5846 23.0458 66.6385C23.0238 66.6409 22.9847 66.6434 22.9284 66.6459C22.8721 66.6483 22.8219 66.6496 22.7779 66.6496C22.6849 66.6497 22.5919 66.6472 22.4989 66.6424C22.4084 66.6375 22.3387 66.6315 22.2897 66.6241ZM29.254 66.6208C29.2344 66.4446 29.2171 66.2342 29.2023 65.9895C29.1875 65.7448 29.174 65.4842 29.1616 65.2077C29.1492 64.9312 29.1393 64.6535 29.1318 64.3746C29.1244 64.0956 29.1181 63.8314 29.1131 63.5818C29.1081 63.3297 29.1055 63.1095 29.1054 62.9211C29.1421 62.9089 29.1911 62.8966 29.2522 62.8843C29.3134 62.8721 29.3783 62.861 29.4468 62.8512C29.5153 62.8414 29.5801 62.834 29.6413 62.8291C29.7025 62.8217 29.7526 62.818 29.7918 62.818C29.7942 62.8572 29.7967 62.9147 29.7992 62.9905C29.8017 63.0639 29.8042 63.1422 29.8066 63.2254C29.8116 63.3086 29.8141 63.3845 29.8141 63.453C29.8166 63.519 29.8178 63.5655 29.8178 63.5925C29.8374 63.5411 29.8753 63.4713 29.9315 63.3832C29.9902 63.2951 30.0697 63.2057 30.17 63.1151C30.2727 63.0245 30.3999 62.9486 30.5516 62.8874C30.7033 62.8261 30.8819 62.7955 31.0874 62.7954C31.2734 62.7953 31.43 62.8344 31.5573 62.9126C31.687 62.9908 31.7923 63.0936 31.8731 63.2208C31.9563 63.3455 32.0188 63.4813 32.0605 63.6281C32.085 63.7137 32.1021 63.7993 32.112 63.885C32.1242 63.9706 32.1329 64.0538 32.1378 64.1346C32.1793 63.9021 32.2575 63.6806 32.3724 63.4701C32.4897 63.2572 32.6475 63.0834 32.8456 62.9487C33.0462 62.814 33.2909 62.7466 33.5796 62.7465C33.8463 62.7463 34.0653 62.8013 34.2367 62.9113C34.408 63.0213 34.5414 63.1767 34.637 63.3773C34.7325 63.5779 34.7987 63.8164 34.8355 64.0929C34.8748 64.3669 34.8945 64.6703 34.8947 65.0031C34.8948 65.1793 34.89 65.3665 34.8803 65.5647C34.873 65.7629 34.8621 65.9562 34.8475 66.1446C34.8354 66.3306 34.822 66.497 34.8074 66.6438C34.7487 66.6512 34.6887 66.6561 34.6275 66.6586C34.5664 66.6635 34.5052 66.666 34.444 66.666C34.3853 66.6661 34.3229 66.6636 34.2568 66.6588C34.1932 66.6564 34.1284 66.6527 34.0623 66.6479C34.1111 66.2857 34.1488 65.9504 34.1756 65.6421C34.2048 65.3338 34.2194 65.0585 34.2192 64.8163C34.219 64.3538 34.1638 64.0027 34.0536 63.7629C33.9433 63.5232 33.7622 63.4034 33.5102 63.4035C33.2826 63.4036 33.0991 63.471 32.9597 63.6056C32.8227 63.7403 32.7176 63.9214 32.6443 64.149C32.5735 64.3766 32.5246 64.6336 32.4979 64.9199C32.4711 65.2062 32.4553 65.501 32.4506 65.8044C32.4482 65.9341 32.4458 66.0687 32.4434 66.2082C32.441 66.3452 32.4399 66.4823 32.44 66.6193C32.4032 66.6217 32.3543 66.6242 32.2931 66.6267C32.2344 66.6316 32.1745 66.6341 32.1133 66.6341C32.0423 66.6342 31.9714 66.6317 31.9004 66.6269C31.8294 66.6245 31.7744 66.6196 31.7352 66.6123C31.7376 66.4483 31.7387 66.2905 31.7387 66.1388C31.741 65.9871 31.7422 65.8354 31.7421 65.6837C31.742 65.3974 31.7321 65.1209 31.7124 64.8542C31.6951 64.5875 31.6595 64.3477 31.6056 64.1348C31.5516 63.9195 31.4696 63.7483 31.3594 63.6211C31.2492 63.4939 31.1024 63.4303 30.9189 63.4304C30.7818 63.4305 30.651 63.466 30.5262 63.5371C30.4039 63.6081 30.2938 63.6974 30.196 63.8052C30.0982 63.9104 30.0199 64.0218 29.9612 64.1393C29.9026 64.2543 29.8684 64.3559 29.8586 64.444C29.8735 64.8355 29.8908 65.1866 29.9105 65.4973C29.9327 65.8081 29.9524 66.0626 29.9696 66.2608C29.9893 66.4565 30.0028 66.5813 30.0101 66.6351C29.9881 66.6376 29.949 66.6401 29.8927 66.6425C29.8364 66.645 29.7863 66.6462 29.7422 66.6463C29.6492 66.6463 29.5562 66.6439 29.4633 66.6391C29.3727 66.6342 29.303 66.6281 29.254 66.6208ZM39.4603 65.7644C39.4114 65.8329 39.3393 65.9125 39.2439 66.0031C39.1485 66.0912 39.0299 66.1769 38.888 66.2602C38.7461 66.341 38.581 66.4083 38.3926 66.4623C38.2042 66.5162 37.9913 66.5432 37.754 66.5433C37.3869 66.5435 37.0651 66.469 36.7886 66.3199C36.512 66.1708 36.2978 65.9531 36.1459 65.6669C35.9941 65.3782 35.918 65.0271 35.9178 64.6136C35.9177 64.2172 35.9995 63.8733 36.1633 63.5821C36.3295 63.2908 36.557 63.0656 36.8456 62.9064C37.1343 62.7472 37.4658 62.6675 37.8402 62.6673C38.31 62.6671 38.6759 62.8101 38.9379 63.0962C39.2023 63.3824 39.3493 63.7665 39.3789 64.2485C39.3838 64.3268 39.3863 64.4027 39.3863 64.4761C39.3864 64.5471 39.3827 64.6205 39.3754 64.6963C39.3436 64.6939 39.2775 64.6915 39.1772 64.6891C39.0793 64.6842 38.9643 64.6806 38.8322 64.6782C38.7 64.6734 38.5667 64.6698 38.4321 64.6674C38.3 64.6626 38.1862 64.6602 38.0908 64.6602C37.8436 64.6604 37.5904 64.6727 37.331 64.6973C37.0716 64.7219 36.8404 64.7502 36.6373 64.7821C36.6398 64.8457 36.646 64.9081 36.6558 64.9692C36.6656 65.0304 36.6779 65.0891 36.6926 65.1454C36.7342 65.2947 36.8101 65.4243 36.9203 65.5344C37.0305 65.642 37.1614 65.7251 37.3132 65.7838C37.4674 65.8424 37.6301 65.8717 37.8014 65.8716C37.9824 65.8715 38.1403 65.8445 38.2748 65.7906C38.4094 65.7367 38.5243 65.6706 38.6197 65.5923C38.7176 65.5139 38.7958 65.4393 38.8545 65.3683C38.9157 65.2973 38.9621 65.2446 38.9939 65.2104C39.0086 65.2226 39.0368 65.2495 39.0784 65.2911C39.1225 65.3302 39.169 65.3779 39.2179 65.4342C39.2694 65.4904 39.3171 65.5479 39.3612 65.6066C39.4077 65.6629 39.4407 65.7155 39.4603 65.7644ZM36.6481 64.2902C36.8243 64.2608 37.031 64.235 37.2684 64.2128C37.5082 64.1907 37.7798 64.1796 38.0832 64.1794C38.2422 64.1793 38.3768 64.1817 38.4869 64.1866C38.5995 64.189 38.6778 64.1926 38.7218 64.1975C38.7218 64.1167 38.712 64.0311 38.6924 63.9406C38.6654 63.8182 38.6164 63.6996 38.5454 63.5846C38.4744 63.4696 38.3777 63.3742 38.2553 63.2984C38.1353 63.2202 37.9836 63.1811 37.8001 63.1812C37.5896 63.1813 37.3976 63.2267 37.2239 63.3173C37.0526 63.4055 36.9157 63.5328 36.813 63.6992C36.7103 63.8632 36.6553 64.0602 36.6481 64.2902ZM43.7661 68.5188C43.4236 68.519 43.1189 68.4653 42.8521 68.3577C42.5854 68.2502 42.3773 68.1439 42.228 68.0387C42.2451 67.9922 42.2744 67.9286 42.316 67.8478C42.3576 67.7695 42.4016 67.6912 42.448 67.6128C42.4945 67.5345 42.5336 67.4745 42.5654 67.4329C42.6315 67.4818 42.7294 67.5393 42.8591 67.6053C42.9888 67.6737 43.1357 67.7336 43.2996 67.7849C43.4636 67.8362 43.6288 67.8619 43.7952 67.8618C44.013 67.8617 44.1977 67.8041 44.3493 67.689C44.501 67.5764 44.6233 67.4222 44.7162 67.2264C44.809 67.033 44.8762 66.814 44.9177 66.5693C44.9616 66.3245 44.9848 66.0725 44.9871 65.8131C44.9455 65.9037 44.8795 65.9979 44.789 66.0958C44.701 66.1913 44.5836 66.2721 44.4368 66.3382C44.29 66.4019 44.1102 66.4338 43.8973 66.4339C43.5474 66.4341 43.2769 66.3327 43.086 66.1297C42.895 65.9242 42.7615 65.6453 42.6855 65.293C42.6119 64.9383 42.575 64.537 42.5748 64.0892C42.5747 63.9179 42.5783 63.7405 42.5856 63.557C42.5928 63.3734 42.6013 63.1838 42.611 62.988C42.6428 62.9807 42.6893 62.9758 42.7504 62.9733C42.8116 62.9708 42.8765 62.9696 42.945 62.9695C43.0257 62.9695 43.1028 62.9719 43.1762 62.9768C43.2521 62.9792 43.3035 62.984 43.3304 62.9914C43.3255 63.0207 43.3182 63.0905 43.3085 63.2006C43.2987 63.3107 43.289 63.4441 43.2793 63.6007C43.2696 63.7573 43.2648 63.9188 43.2648 64.0852C43.2649 64.2809 43.2736 64.4779 43.2908 64.6761C43.308 64.8719 43.3412 65.0517 43.3902 65.2156C43.4416 65.3795 43.5163 65.5116 43.6143 65.6119C43.7122 65.7097 43.8431 65.7586 44.0071 65.7585C44.1906 65.7584 44.3484 65.7058 44.4805 65.6005C44.6126 65.4952 44.7177 65.341 44.7959 65.1379C44.8766 64.9323 44.9278 64.6802 44.9497 64.3817C44.9594 64.2667 44.9667 64.1382 44.9715 63.9963C44.9788 63.8519 44.9849 63.7136 44.9897 63.5815C44.9945 63.4469 44.9969 63.3331 44.9969 63.2402C44.9993 63.1447 44.9992 63.0872 44.9968 63.0676C45.0359 63.0627 45.0763 63.059 45.1179 63.0566C45.1595 63.0541 45.2011 63.0529 45.2427 63.0528C45.392 63.0528 45.5278 63.0674 45.6501 63.0967C45.66 63.3022 45.665 63.5469 45.6652 63.8308C45.6653 64.0632 45.6617 64.3226 45.6545 64.6089C45.6473 64.8928 45.6364 65.1852 45.6219 65.4861C45.6098 65.7871 45.5965 66.0832 45.582 66.3744C45.5601 66.7879 45.4796 67.155 45.3402 67.4756C45.2034 67.7987 45.0041 68.0533 44.7423 68.2394C44.483 68.4255 44.1576 68.5186 43.7661 68.5188ZM48.5593 66.6923C47.9182 66.6926 47.4446 66.5142 47.1386 66.1571C46.8325 65.8 46.6793 65.2862 46.679 64.6158C46.6788 64.1924 46.757 63.8351 46.9134 63.5439C47.0723 63.2526 47.2924 63.0311 47.5738 62.8792C47.8575 62.7274 48.1878 62.6514 48.5647 62.6512C48.9635 62.651 49.2927 62.7438 49.5521 62.9297C49.8116 63.1131 50.0038 63.3699 50.1288 63.7002C50.2562 64.028 50.32 64.4097 50.3202 64.8452C50.3204 65.2196 50.2508 65.5451 50.1114 65.8217C49.9721 66.0958 49.7703 66.31 49.5061 66.4643C49.2444 66.6161 48.9288 66.6921 48.5593 66.6923ZM48.5296 66.0353C48.7278 66.0352 48.8978 65.9984 49.0397 65.925C49.1816 65.8515 49.2966 65.7535 49.3846 65.6312C49.4726 65.5063 49.5374 65.3668 49.5789 65.2126C49.6229 65.0585 49.6449 64.9006 49.6448 64.7391C49.6446 64.4455 49.6041 64.1837 49.5233 63.9537C49.4424 63.7237 49.32 63.544 49.156 63.4143C48.992 63.2823 48.7827 63.2163 48.5282 63.2164C48.2787 63.2166 48.0695 63.2766 47.9007 63.3966C47.7319 63.5166 47.6047 63.6818 47.5192 63.8923C47.4361 64.1028 47.3946 64.3438 47.3948 64.6154C47.395 65.0338 47.4918 65.3751 47.6852 65.6393C47.8786 65.9035 48.1601 66.0355 48.5296 66.0353ZM53.7139 62.9056C53.7506 62.8958 53.8032 62.8872 53.8717 62.8799C53.9427 62.8725 54.0137 62.8688 54.0846 62.8688C54.1433 62.8687 54.207 62.8711 54.2755 62.876C54.3464 62.8784 54.4027 62.8833 54.4443 62.8906C54.4836 63.1279 54.5167 63.3702 54.5438 63.6173C54.5708 63.8644 54.5844 64.1079 54.5845 64.3477C54.5847 64.6756 54.5567 64.9851 54.5005 65.2763C54.4444 65.5676 54.3515 65.8245 54.2219 66.0473C54.0948 66.2676 53.9224 66.4414 53.7047 66.5687C53.4894 66.6961 53.2215 66.7598 52.9009 66.76C52.551 66.7601 52.2635 66.6917 52.0383 66.5548C51.8131 66.4155 51.6381 66.2235 51.5132 65.9788C51.3882 65.7317 51.3 65.4479 51.2485 65.1274C51.1994 64.8069 51.1747 64.4643 51.1746 64.0997C51.1745 63.8771 51.1817 63.6519 51.1963 63.4244C51.2108 63.1968 51.2266 62.9741 51.2437 62.7563C51.2877 62.7539 51.3428 62.7526 51.4088 62.7526C51.4773 62.7526 51.5385 62.7537 51.5924 62.7562C51.6682 62.761 51.7428 62.7683 51.8163 62.7781C51.8921 62.7854 51.9545 62.7964 52.0035 62.811C51.9791 63.0313 51.9596 63.2491 51.9451 63.4644C51.9305 63.6797 51.9232 63.8877 51.9233 64.0884C51.9235 64.519 51.9592 64.8836 52.0303 65.1821C52.1038 65.4806 52.2128 65.7069 52.3573 65.861C52.5042 66.0151 52.6877 66.092 52.908 66.0919C53.1135 66.0918 53.2848 66.022 53.4217 65.8825C53.5611 65.7429 53.6662 65.541 53.7371 65.2767C53.8079 65.01 53.8432 64.6857 53.8431 64.304C53.843 64.0862 53.8318 63.8587 53.8097 63.6213C53.7876 63.3815 53.7556 63.143 53.7139 62.9056ZM56.2971 63.3228C56.3705 63.198 56.4769 63.0842 56.6163 62.9813C56.7582 62.8785 56.9172 62.7964 57.0933 62.7352C57.2719 62.6739 57.4505 62.6432 57.6291 62.6432C57.7442 62.6431 57.8604 62.6541 57.9779 62.676C58.0953 62.6955 58.1871 62.7236 58.2532 62.7603L58.1067 63.4981C58.048 63.4737 57.9721 63.448 57.8791 63.4212C57.7886 63.3918 57.676 63.3772 57.5414 63.3773C57.397 63.3774 57.2527 63.4043 57.1083 63.4582C56.9664 63.5097 56.8356 63.5807 56.7157 63.6713C56.5959 63.7619 56.4956 63.866 56.4149 63.9834C56.4492 64.1547 56.4824 64.3639 56.5143 64.611C56.5487 64.8582 56.5794 65.1114 56.6064 65.3708C56.6335 65.6301 56.6556 65.8675 56.6728 66.0828C56.6901 66.2957 56.6987 66.4559 56.6987 66.5636C56.5935 66.5734 56.4651 66.5796 56.3134 66.5821C56.1617 66.5847 56.0222 66.5847 55.8949 66.5823C55.8948 66.3548 55.8898 66.115 55.8799 65.8629C55.87 65.6085 55.854 65.3491 55.8318 65.0848C55.8121 64.8181 55.7863 64.5527 55.7544 64.2884C55.7224 64.0242 55.6844 63.7685 55.6402 63.5213C55.5985 63.2718 55.5507 63.0357 55.4967 62.813C55.5628 62.7934 55.6398 62.7738 55.7279 62.7542C55.8185 62.7346 55.9016 62.7174 55.9775 62.7027C56.0533 62.688 56.1047 62.6794 56.1316 62.6769C56.1635 62.7601 56.1966 62.8677 56.2309 62.9999C56.2652 63.132 56.2873 63.2396 56.2971 63.3228ZM64.1191 65.8884C64.0824 66.0058 64.0262 66.1294 63.9504 66.2592C63.8746 66.3864 63.7694 66.4941 63.6349 66.5823C63.5004 66.6729 63.3267 66.7183 63.1138 66.7184C62.8397 66.7185 62.6219 66.6586 62.4604 66.5388C62.3012 66.419 62.1874 66.2612 62.1188 66.0655C62.0502 65.8698 62.0158 65.6569 62.0157 65.4269C62.0156 65.307 62.0168 65.1651 62.0192 65.0011C62.024 64.8372 62.0288 64.6671 62.0336 64.4909C62.0384 64.3148 62.0432 64.1447 62.048 63.9807C62.0553 63.8143 62.0614 63.6688 62.0662 63.544C62.071 63.4167 62.0746 63.3225 62.0771 63.2613C61.8373 63.2859 61.6293 63.3129 61.4531 63.3424C61.2794 63.3694 61.1681 63.3902 61.1192 63.4049C61.1044 63.3266 61.0922 63.2447 61.0823 63.159C61.0749 63.0709 61.0688 62.9914 61.0639 62.9205C61.0614 62.8495 61.0601 62.8018 61.0601 62.7773C61.1971 62.7577 61.3562 62.7368 61.5372 62.7147C61.7208 62.6926 61.9018 62.6754 62.0804 62.6631C62.0828 62.5676 62.084 62.4502 62.0839 62.3107C62.0839 62.1688 62.0838 62.0354 62.0838 61.9106C62.0813 61.8054 62.0763 61.7039 62.0689 61.606C62.0615 61.5057 62.0554 61.4225 62.0505 61.3564L62.7405 61.3157C62.7454 61.3524 62.7503 61.4405 62.7553 61.58C62.7627 61.717 62.7664 61.8834 62.7665 62.0791C62.7666 62.1525 62.7666 62.2418 62.7667 62.3471C62.7667 62.4498 62.7668 62.5416 62.7668 62.6223C62.8402 62.6174 62.9307 62.6125 63.0384 62.6075C63.1461 62.6026 63.2329 62.6001 63.299 62.6001C63.414 62.5976 63.5241 62.5963 63.6293 62.5962C63.7345 62.5962 63.8251 62.5974 63.9009 62.5998C63.9768 62.6022 64.0233 62.6046 64.0404 62.6071C64.0527 62.6731 64.0601 62.7649 64.0626 62.8823C64.0675 62.9998 64.07 63.0977 64.0701 63.176C64.0456 63.1735 63.9612 63.1723 63.8168 63.1724C63.6749 63.17 63.5342 63.1701 63.3947 63.1726C63.2944 63.1751 63.1843 63.18 63.0644 63.1874C62.9445 63.1924 62.8417 63.1973 62.7561 63.2023C62.7536 63.2659 62.7488 63.3601 62.7415 63.4849C62.7367 63.6097 62.7319 63.7504 62.727 63.907C62.7222 64.0612 62.7174 64.219 62.7126 64.3805C62.7078 64.5396 62.7042 64.6888 62.7018 64.8283C62.6994 64.9653 62.6982 65.0767 62.6983 65.1623C62.6983 65.3165 62.707 65.4633 62.7242 65.6027C62.7438 65.7422 62.7879 65.8572 62.8565 65.9477C62.9275 66.0358 63.0388 66.0797 63.1905 66.0797C63.2933 66.0796 63.3765 66.0429 63.4401 65.9694C63.5037 65.896 63.5526 65.8116 63.5868 65.7161C63.6234 65.6207 63.6503 65.5411 63.6674 65.4775C63.6894 65.502 63.7213 65.535 63.7629 65.5765C63.807 65.6157 63.8535 65.6573 63.9024 65.7013C63.9538 65.7453 63.9991 65.7844 64.0383 65.8187C64.0799 65.8529 64.1068 65.8761 64.1191 65.8884ZM66.1393 66.5444C65.9019 66.5445 65.7061 66.4859 65.5519 66.3685C65.3977 66.2487 65.2753 66.086 65.1846 65.8805C65.0964 65.6726 65.0339 65.434 64.9971 65.1649C64.9627 64.8957 64.9454 64.6094 64.9453 64.306C64.9452 64.0418 64.9548 63.7714 64.9743 63.4948C64.9937 63.2183 65.0168 62.9479 65.0436 62.6837C65.139 62.6836 65.2541 62.686 65.3886 62.6908C65.5232 62.6957 65.6395 62.7017 65.7373 62.709C65.7057 62.9978 65.6813 63.2841 65.6643 63.5679C65.6473 63.8493 65.6389 64.116 65.639 64.3681C65.6392 64.6495 65.6564 64.9015 65.6908 65.1242C65.7251 65.3468 65.784 65.523 65.8672 65.6526C65.9529 65.7823 66.068 65.8471 66.2123 65.847C66.342 65.8469 66.4521 65.7906 66.5426 65.678C66.6355 65.5629 66.7101 65.4051 66.7662 65.2044C66.8249 65.0013 66.8676 64.7676 66.8944 64.5033C66.9212 64.2366 66.9345 63.949 66.9343 63.6407C66.9343 63.5135 66.933 63.3667 66.9305 63.2003C66.9279 63.0339 66.9242 62.8846 66.9192 62.7525C66.9706 62.7525 67.0379 62.7537 67.1211 62.7561C67.2043 62.756 67.2875 62.7572 67.3707 62.7596C67.4539 62.7596 67.52 62.762 67.5689 62.7669C67.569 62.8868 67.569 63.0054 67.5691 63.1229C67.5691 63.2403 67.5692 63.3578 67.5692 63.4752C67.5694 63.8252 67.5757 64.1482 67.5881 64.4442C67.6004 64.7403 67.6262 64.9984 67.6655 65.2186C67.7048 65.4364 67.766 65.6064 67.8493 65.7287C67.935 65.8486 68.05 65.9085 68.1944 65.9084C68.3363 65.9084 68.4549 65.8459 68.5503 65.7211C68.6481 65.5962 68.7264 65.4261 68.785 65.2108C68.8436 64.993 68.8851 64.7458 68.9094 64.4693C68.9362 64.1903 68.9495 63.9004 68.9494 63.5994C68.9493 63.5235 68.9481 63.4354 68.9456 63.3351C68.9455 63.2348 68.9443 63.1332 68.9418 63.0305C68.9393 62.9253 68.9368 62.831 68.9343 62.7479C68.9783 62.7454 69.026 62.7441 69.0774 62.7441C69.1313 62.7441 69.1839 62.7441 69.2353 62.744C69.2891 62.744 69.3503 62.7464 69.4188 62.7513C69.4873 62.7537 69.5448 62.7573 69.5913 62.7622C69.5987 62.8479 69.6048 62.9457 69.6098 63.0558C69.6147 63.166 69.6185 63.2748 69.621 63.3825C69.6259 63.4877 69.6284 63.5832 69.6284 63.6688C69.6286 63.9477 69.6128 64.2243 69.5811 64.4983C69.5519 64.7724 69.5031 65.0306 69.4347 65.2729C69.3687 65.5151 69.2807 65.7293 69.1707 65.9153C69.0631 66.1013 68.9311 66.2482 68.7745 66.3559C68.618 66.4637 68.432 66.5176 68.2167 66.5177C68.0503 66.5178 67.9084 66.4897 67.7909 66.4335C67.6734 66.3773 67.5767 66.3027 67.5008 66.2097C67.4249 66.1143 67.3637 66.0092 67.3171 65.8942C67.273 65.7767 67.2399 65.6569 67.2179 65.5345C67.1958 65.4097 67.181 65.2898 67.1737 65.1748L67.2948 65.1895C67.2826 65.3461 67.2497 65.5051 67.1959 65.6667C67.1446 65.8257 67.0713 65.9714 66.9759 66.1035C66.8805 66.2357 66.7631 66.3422 66.6237 66.423C66.4843 66.5039 66.3228 66.5443 66.1393 66.5444ZM72.5021 66.6808C71.861 66.6811 71.3874 66.5027 71.0814 66.1456C70.7753 65.7885 70.6222 65.2747 70.6218 64.6043C70.6216 64.181 70.6998 63.8237 70.8562 63.5324C71.0151 63.2411 71.2353 63.0196 71.5166 62.8677C71.8004 62.7159 72.1307 62.6399 72.5075 62.6397C72.9063 62.6395 73.2355 62.7323 73.495 62.9182C73.7544 63.1016 73.9466 63.3584 74.0716 63.6887C74.199 64.0165 74.2628 64.3982 74.263 64.8338C74.2632 65.2081 74.1936 65.5336 74.0543 65.8102C73.9149 66.0843 73.7131 66.2985 73.4489 66.4528C73.1872 66.6046 72.8716 66.6806 72.5021 66.6808ZM72.4724 66.0238C72.6706 66.0237 72.8407 65.987 72.9825 65.9135C73.1244 65.84 73.2394 65.7421 73.3274 65.6197C73.4154 65.4948 73.4802 65.3553 73.5218 65.2012C73.5657 65.047 73.5877 64.8891 73.5876 64.7276C73.5874 64.434 73.5469 64.1722 73.4661 63.9422C73.3852 63.7123 73.2628 63.5325 73.0988 63.4029C72.9348 63.2708 72.7255 63.2048 72.4711 63.205C72.2215 63.2051 72.0123 63.2651 71.8435 63.3851C71.6747 63.5051 71.5476 63.6703 71.462 63.8808C71.3789 64.0913 71.3374 64.3323 71.3376 64.6039C71.3378 65.0224 71.4346 65.3637 71.628 65.6278C71.8215 65.892 72.1029 66.024 72.4724 66.0238ZM80.6394 65.7997C80.5807 65.9196 80.4816 66.0408 80.3422 66.1632C80.2028 66.2832 80.0291 66.3848 79.8212 66.4681C79.6132 66.5489 79.3771 66.5894 79.1129 66.5896C78.7532 66.5897 78.4436 66.4981 78.1841 66.3147C77.9246 66.1313 77.7251 65.888 77.5855 65.5846C77.4459 65.2788 77.376 64.9448 77.3758 64.5827C77.3756 64.1863 77.4439 63.8351 77.5808 63.5292C77.7177 63.2232 77.9182 62.9833 78.1824 62.8095C78.4466 62.6332 78.7696 62.5449 79.1513 62.5448C79.3789 62.5446 79.5844 62.5825 79.768 62.6582C79.9515 62.7316 80.1094 62.8318 80.2416 62.959C80.3738 63.0837 80.4778 63.2195 80.5538 63.3663L80.0437 63.7005C80.0315 63.6736 80.0082 63.6296 79.9739 63.5684C79.9421 63.5072 79.8919 63.4436 79.8234 63.3776C79.7573 63.3091 79.6692 63.2517 79.559 63.2052C79.4513 63.1588 79.3155 63.1356 79.1516 63.1357C78.924 63.1358 78.7307 63.1909 78.5717 63.3011C78.4127 63.4089 78.2917 63.5606 78.2086 63.7564C78.1279 63.9498 78.0876 64.1737 78.0878 64.4282C78.0879 64.6729 78.1223 64.9041 78.1909 65.1218C78.2619 65.3371 78.3746 65.5133 78.5288 65.6502C78.683 65.7872 78.8874 65.8556 79.1419 65.8555C79.296 65.8554 79.4318 65.8309 79.5492 65.7819C79.6667 65.7329 79.767 65.6753 79.8501 65.6092C79.9333 65.5431 79.9981 65.4819 80.0446 65.4256C80.0935 65.3668 80.1228 65.3277 80.1326 65.3081L80.6394 65.7997ZM84.8727 65.7426C84.8238 65.8111 84.7517 65.8907 84.6563 65.9813C84.5609 66.0694 84.4423 66.1551 84.3004 66.2384C84.1585 66.3192 83.9934 66.3866 83.805 66.4405C83.6166 66.4944 83.4037 66.5214 83.1664 66.5216C82.7993 66.5217 82.4775 66.4472 82.201 66.2981C81.9244 66.149 81.7102 65.9313 81.5583 65.6451C81.4065 65.3564 81.3304 65.0053 81.3302 64.5918C81.3301 64.1954 81.4119 63.8516 81.5757 63.5603C81.7419 63.269 81.9694 63.0438 82.258 62.8846C82.5467 62.7254 82.8782 62.6457 83.2526 62.6456C83.7224 62.6453 84.0883 62.7883 84.3503 63.0745C84.6147 63.3606 84.7617 63.7447 84.7913 64.2268C84.7962 64.3051 84.7987 64.3809 84.7987 64.4543C84.7988 64.5253 84.7951 64.5987 84.7878 64.6746C84.756 64.6721 84.6899 64.6697 84.5896 64.6673C84.4917 64.6625 84.3767 64.6589 84.2446 64.6565C84.1124 64.6516 83.9791 64.648 83.8445 64.6456C83.7124 64.6408 83.5986 64.6384 83.5032 64.6385C83.256 64.6386 83.0028 64.6509 82.7434 64.6755C82.484 64.7001 82.2528 64.7284 82.0497 64.7603C82.0522 64.8239 82.0584 64.8863 82.0682 64.9475C82.078 65.0086 82.0903 65.0674 82.105 65.1236C82.1466 65.2729 82.2225 65.4025 82.3327 65.5126C82.4429 65.6202 82.5738 65.7033 82.7256 65.762C82.8798 65.8206 83.0425 65.8499 83.2138 65.8498C83.3948 65.8498 83.5527 65.8228 83.6872 65.7689C83.8218 65.715 83.9367 65.6488 84.0321 65.5705C84.13 65.4922 84.2082 65.4175 84.2669 65.3465C84.3281 65.2755 84.3745 65.2229 84.4063 65.1886C84.421 65.2008 84.4492 65.2277 84.4908 65.2693C84.5349 65.3084 84.5814 65.3561 84.6303 65.4124C84.6818 65.4686 84.7295 65.5261 84.7736 65.5848C84.8201 65.6411 84.8531 65.6937 84.8727 65.7426ZM82.0605 64.2685C82.2367 64.239 82.4434 64.2132 82.6808 64.1911C82.9206 64.1689 83.1922 64.1578 83.4956 64.1577C83.6546 64.1576 83.7892 64.16 83.8993 64.1648C84.0119 64.1672 84.0902 64.1708 84.1342 64.1757C84.1342 64.0949 84.1244 64.0093 84.1048 63.9188C84.0778 63.7964 84.0288 63.6778 83.9578 63.5628C83.8868 63.4479 83.7901 63.3525 83.6677 63.2767C83.5477 63.1984 83.396 63.1593 83.2125 63.1594C83.002 63.1595 82.81 63.2049 82.6363 63.2955C82.4651 63.3837 82.3281 63.511 82.2254 63.6774C82.1227 63.8414 82.0677 64.0384 82.0605 64.2685ZM86.4643 66.6081C86.4179 66.6081 86.3616 66.6081 86.2955 66.6081C86.2294 66.6106 86.1634 66.6107 86.0973 66.6082C86.0361 66.6058 85.9664 66.6022 85.8881 66.5973C85.8098 66.5949 85.7523 66.5913 85.7156 66.5864C85.7399 66.3833 85.7606 66.1618 85.7777 65.922C85.7971 65.6798 85.8129 65.4081 85.825 65.1072C85.8371 64.8037 85.8467 64.4599 85.8538 64.0758C85.861 63.6892 85.8645 63.2499 85.8642 62.7581C85.9229 62.7483 85.9927 62.7409 86.0734 62.736C86.1566 62.7286 86.241 62.7249 86.3267 62.7248C86.3805 62.7248 86.4343 62.726 86.4882 62.7284C86.5445 62.7308 86.5934 62.7357 86.635 62.743C86.6375 62.77 86.6387 62.8189 86.6387 62.8899C86.6412 62.9608 86.6413 63.0391 86.6389 63.1248C86.6389 63.2104 86.6389 63.2863 86.639 63.3523C86.7295 63.252 86.8579 63.1491 87.0242 63.0438C87.1906 62.9385 87.3765 62.8503 87.582 62.7793C87.7875 62.7058 87.9942 62.669 88.2022 62.6689C88.5742 62.6687 88.8568 62.7432 89.0502 62.8924C89.2436 63.0391 89.3746 63.2568 89.4432 63.5455C89.5143 63.8342 89.55 64.1927 89.5502 64.6209C89.5503 64.7873 89.5455 64.9757 89.5358 65.1861C89.5286 65.3966 89.5152 65.6193 89.4957 65.8542C89.4787 66.0891 89.4556 66.3277 89.4263 66.5699C89.3921 66.5748 89.3395 66.5785 89.2685 66.581C89.2 66.5859 89.1266 66.5884 89.0483 66.5885C88.97 66.5885 88.8954 66.5873 88.8244 66.5849C88.7534 66.5825 88.6972 66.5776 88.6556 66.5703C88.6873 66.3623 88.7165 66.1457 88.7433 65.9206C88.7701 65.693 88.7921 65.4679 88.8091 65.2452C88.8261 65.0201 88.8346 64.8084 88.8345 64.6102C88.8343 64.3557 88.8147 64.1331 88.7754 63.9422C88.7386 63.7514 88.6639 63.6034 88.5513 63.4982C88.4412 63.3931 88.2784 63.3405 88.0631 63.3406C87.8404 63.3407 87.6361 63.3775 87.4502 63.451C87.2642 63.5245 87.1016 63.6115 86.9621 63.7119C86.8252 63.8123 86.7139 63.9016 86.6283 63.98C86.6187 64.3935 86.6042 64.7728 86.5848 65.1178C86.5653 65.4628 86.5447 65.7626 86.5228 66.0171C86.5009 66.2716 86.4814 66.4686 86.4643 66.6081ZM93.1336 65.8745C93.097 65.9919 93.0408 66.1155 92.965 66.2452C92.8892 66.3725 92.784 66.4802 92.6495 66.5684C92.5149 66.659 92.3412 66.7043 92.1283 66.7044C91.8543 66.7046 91.6365 66.6447 91.4749 66.5249C91.3158 66.4051 91.202 66.2473 91.1334 66.0516C91.0647 65.8559 91.0304 65.643 91.0303 65.413C91.0302 65.2931 91.0314 65.1512 91.0337 64.9872C91.0386 64.8233 91.0434 64.6532 91.0482 64.477C91.053 64.3008 91.0578 64.1308 91.0626 63.9668C91.0699 63.8004 91.0759 63.6548 91.0808 63.53C91.0856 63.4028 91.0892 63.3086 91.0916 63.2474C90.8518 63.272 90.6439 63.299 90.4677 63.3285C90.294 63.3555 90.1827 63.3763 90.1337 63.391C90.119 63.3127 90.1067 63.2308 90.0969 63.1451C90.0895 63.057 90.0834 62.9775 90.0784 62.9066C90.076 62.8356 90.0747 62.7879 90.0747 62.7634C90.2117 62.7438 90.3708 62.7229 90.5518 62.7008C90.7353 62.6787 90.9164 62.6615 91.095 62.6491C91.0974 62.5537 91.0986 62.4363 91.0985 62.2968C91.0985 62.1549 91.0984 62.0215 91.0983 61.8967C91.0958 61.7915 91.0909 61.6899 91.0835 61.5921C91.0761 61.4917 91.07 61.4086 91.065 61.3425L91.755 61.3018C91.76 61.3385 91.7649 61.4266 91.7699 61.566C91.7773 61.7031 91.781 61.8695 91.7811 62.0652C91.7811 62.1386 91.7812 62.2279 91.7812 62.3332C91.7813 62.4359 91.7813 62.5277 91.7814 62.6084C91.8548 62.6035 91.9453 62.5986 92.053 62.5936C92.1606 62.5887 92.2475 62.5862 92.3136 62.5862C92.4286 62.5837 92.5387 62.5824 92.6439 62.5823C92.7491 62.5823 92.8397 62.5835 92.9155 62.5859C92.9914 62.5883 93.0379 62.5907 93.055 62.5931C93.0673 62.6592 93.0746 62.751 93.0771 62.8684C93.0821 62.9859 93.0846 63.0837 93.0846 63.162C93.0602 63.1596 92.9757 63.1584 92.8314 63.1585C92.6894 63.1561 92.5487 63.1562 92.4093 63.1587C92.3089 63.1612 92.1988 63.1661 92.0789 63.1735C91.959 63.1785 91.8563 63.1834 91.7706 63.1884C91.7682 63.252 91.7634 63.3462 91.7561 63.471C91.7513 63.5958 91.7464 63.7365 91.7416 63.8931C91.7368 64.0473 91.732 64.2051 91.7272 64.3666C91.7223 64.5256 91.7187 64.6749 91.7164 64.8144C91.714 64.9514 91.7128 65.0627 91.7128 65.1484C91.7129 65.3025 91.7216 65.4494 91.7387 65.5888C91.7584 65.7283 91.8025 65.8433 91.871 65.9338C91.9421 66.0218 92.0534 66.0658 92.2051 66.0658C92.3079 66.0657 92.3911 66.029 92.4547 65.9555C92.5182 65.8821 92.5671 65.7976 92.6013 65.7022C92.638 65.6067 92.6649 65.5272 92.682 65.4636C92.704 65.488 92.7358 65.5211 92.7775 65.5626C92.8215 65.6018 92.868 65.6433 92.917 65.6874C92.9684 65.7314 93.0137 65.7705 93.0529 65.8048C93.0945 65.839 93.1214 65.8622 93.1336 65.8745ZM95.2247 66.8534C94.9971 66.8536 94.7708 66.8219 94.5456 66.7583C94.3205 66.6948 94.1149 66.6105 93.9289 66.5054C93.7453 66.3978 93.5984 66.2792 93.4883 66.1496C93.5054 66.1153 93.5298 66.0688 93.5616 66.0101C93.5934 65.9513 93.6301 65.8901 93.6716 65.8265C93.7132 65.7604 93.7548 65.7004 93.7963 65.6466C93.8379 65.5903 93.8746 65.5474 93.9064 65.5181C94.0117 65.6355 94.1377 65.7492 94.2846 65.8592C94.4315 65.9668 94.5893 66.0548 94.7582 66.1233C94.9271 66.1892 95.0959 66.2222 95.2648 66.2221C95.4263 66.222 95.5718 66.1987 95.7015 66.1522C95.8336 66.1032 95.9376 66.0334 96.0134 65.9428C96.0917 65.8522 96.1308 65.7433 96.1307 65.6161C96.1306 65.4693 96.0841 65.3433 95.991 65.2381C95.898 65.1305 95.7732 65.0363 95.6165 64.9557C95.4599 64.8725 95.2873 64.7968 95.0989 64.7283C94.8713 64.6453 94.6632 64.5548 94.4748 64.457C94.2888 64.3568 94.1394 64.2321 94.0268 64.0829C93.9166 63.9337 93.8615 63.744 93.8614 63.514C93.8613 63.2791 93.9272 63.0833 94.0593 62.9267C94.1938 62.77 94.3699 62.6512 94.5877 62.5704C94.8078 62.4895 95.0452 62.449 95.2997 62.4489C95.5835 62.4488 95.8441 62.4854 96.0815 62.5587C96.3213 62.6295 96.5049 62.7126 96.6322 62.808C96.6224 62.8496 96.6017 62.9047 96.5699 62.9732C96.5381 63.0393 96.5014 63.1066 96.4599 63.1751C96.4183 63.2436 96.3755 63.3061 96.3315 63.3624C96.214 63.2841 96.0708 63.2095 95.9019 63.1387C95.7331 63.0678 95.5495 63.0324 95.3513 63.0325C95.2192 63.0326 95.092 63.0485 94.9696 63.0804C94.8473 63.1098 94.747 63.16 94.6687 63.231C94.5905 63.302 94.5514 63.3987 94.5514 63.521C94.5515 63.6263 94.5894 63.7204 94.6653 63.8036C94.7437 63.8868 94.8489 63.9613 94.9811 64.0273C95.1133 64.0909 95.2626 64.152 95.429 64.2107C95.6297 64.2791 95.8157 64.3561 95.987 64.4416C96.1583 64.5247 96.3064 64.6213 96.4312 64.7314C96.5585 64.839 96.6577 64.9637 96.7287 65.1056C96.7998 65.2451 96.8353 65.4029 96.8354 65.579C96.8355 65.8604 96.7635 66.0954 96.6192 66.2839C96.4749 66.4723 96.2817 66.6144 96.0395 66.7099C95.7973 66.8055 95.5257 66.8533 95.2247 66.8534ZM98.5903 65.1267C98.5463 65.1268 98.4827 65.1256 98.3995 65.1232C98.3187 65.1208 98.238 65.1171 98.1572 65.1123C98.0765 65.1074 98.0128 65.1013 97.9663 65.094C97.9589 64.8616 97.9526 64.6034 97.9476 64.3196C97.9426 64.0333 97.9388 63.7409 97.9362 63.4423C97.936 63.1414 97.9359 62.8477 97.9358 62.5614C97.9381 62.2727 97.9416 62.0072 97.9464 61.765C97.9536 61.5203 97.9633 61.3159 97.9755 61.152L98.7976 61.1883C98.7806 61.3155 98.7623 61.5003 98.7429 61.7426C98.7258 61.9848 98.7088 62.2589 98.6919 62.5647C98.6749 62.8682 98.6591 63.1789 98.6446 63.4971C98.6301 63.8152 98.618 64.1174 98.6083 64.4037C98.5987 64.6875 98.5927 64.9285 98.5903 65.1267ZM98.3121 66.6538C98.1286 66.6539 97.9805 66.6001 97.8679 66.4925C97.7553 66.3849 97.699 66.2491 97.6989 66.0851C97.6988 65.9188 97.7599 65.789 97.8822 65.696C98.0045 65.603 98.1452 65.5564 98.3042 65.5563C98.4682 65.5562 98.6077 65.6063 98.7227 65.7066C98.8402 65.8069 98.899 65.9353 98.8991 66.0919C98.8992 66.2607 98.843 66.3966 98.7305 66.4994C98.6179 66.6022 98.4785 66.6537 98.3121 66.6538Z" fill="white" fill-opacity="0.9"/>
<rect x="29.37" y="78.7692" width="55.289" height="16.1372" rx="8.06858" transform="rotate(-0.405627 29.37 78.7692)" fill="#F95FE7"/>
<path d="M43.5663 88.7201L43.5363 84.4842L42.1042 84.4943L42.0999 83.8892L45.7845 83.8631L45.6946 84.4689L44.3028 84.4788L44.3328 88.7146L43.5663 88.7201ZM48.4021 85.3171L48.4199 87.8318C48.421 87.9887 48.4397 88.0939 48.4759 88.1474C48.5122 88.1965 48.5997 88.2205 48.7387 88.2195L48.7686 88.6429C48.6568 88.684 48.5382 88.705 48.4127 88.7059C48.063 88.7084 47.8535 88.5508 47.784 88.233C47.549 88.5933 47.1983 88.775 46.7322 88.7784C46.2705 88.7816 45.9241 88.6115 45.6931 88.268C45.4665 87.9244 45.3513 87.4814 45.3475 86.9391C45.3436 86.3922 45.495 85.9384 45.8018 85.5776C46.1085 85.2123 46.5218 85.0279 47.0418 85.0242C47.2525 85.0227 47.497 85.0546 47.7754 85.1198C48.0582 85.1806 48.2671 85.2464 48.4021 85.3171ZM46.1143 86.9874C46.1174 87.4222 46.1846 87.7355 46.316 87.9274C46.4518 88.1191 46.6453 88.2142 46.8963 88.2124C47.1473 88.2106 47.3417 88.1218 47.4794 87.946C47.6215 87.7657 47.6917 87.5456 47.6899 87.2856L47.6784 85.6719C47.5032 85.6149 47.3035 85.5871 47.0794 85.5887C46.7387 85.5911 46.4908 85.7162 46.3357 85.9638C46.1851 86.2114 46.1113 86.5526 46.1143 86.9874ZM49.6482 90.1025L49.6195 86.0481C49.6177 85.7971 49.5752 85.4948 49.492 85.1413L50.0563 85.0633L50.1794 85.3583C50.5094 85.1184 50.8537 84.9972 51.2123 84.9946C51.6695 84.9914 52.0293 85.157 52.2917 85.4913C52.554 85.8212 52.6872 86.273 52.6913 86.8467C52.6953 87.416 52.5596 87.8742 52.2841 88.2213C52.0086 88.5684 51.6288 88.7437 51.1447 88.7471C50.8534 88.7492 50.593 88.6905 50.3635 88.5711L50.3743 90.0974L49.6482 90.1025ZM51.0348 85.5607C50.8241 85.5622 50.5938 85.6468 50.344 85.8144L50.3595 88.0063C50.5397 88.1261 50.7508 88.1851 50.9928 88.1834C51.3245 88.181 51.5636 88.074 51.71 87.8623C51.8564 87.6505 51.928 87.3049 51.9246 86.8253C51.9212 86.3456 51.8449 86.0145 51.6956 85.8317C51.5464 85.649 51.3261 85.5587 51.0348 85.5607ZM56.8258 84.9549C57.2651 84.9518 57.6293 85.1039 57.9183 85.4111C58.2074 85.7139 58.354 86.1634 58.3582 86.7595C58.3624 87.3557 58.2179 87.8296 57.9245 88.1814C57.6356 88.5286 57.1975 88.7043 56.6103 88.7084C56.171 88.7115 55.8069 88.5595 55.5178 88.2522C55.2287 87.9405 55.082 87.4865 55.0778 86.8903C55.0736 86.2942 55.216 85.8247 55.5049 85.482C55.7983 85.1348 56.2386 84.9591 56.8258 84.9549ZM55.8444 86.8916C55.8475 87.3399 55.9238 87.6621 56.0731 87.8583C56.2269 88.0499 56.4539 88.1447 56.7542 88.1426C57.0546 88.1405 57.2689 88.0224 57.3972 87.7884C57.5301 87.5543 57.5949 87.2132 57.5917 86.765C57.5885 86.3122 57.51 85.9923 57.3563 85.8051C57.207 85.6134 57.0001 85.5185 56.7357 85.5204C56.3995 85.5227 56.165 85.6387 56.0321 85.8683C55.9037 86.0978 55.8412 86.4389 55.8444 86.8916ZM59.2459 86.1615C59.2431 85.7581 59.2001 85.3953 59.1172 85.0732L59.6814 84.9952L59.8116 85.3305C60.1862 85.0634 60.5708 84.9284 60.9652 84.9256C61.781 84.9198 62.192 85.3562 62.1983 86.2348L62.2149 88.588L61.4888 88.5932L61.4731 86.3744C61.4689 85.7827 61.2314 85.4885 60.7608 85.4919C60.4874 85.4938 60.2236 85.592 59.9695 85.7866L59.9894 88.6038L59.2632 88.6089L59.2459 86.1615ZM65.1527 86.1197C65.1499 85.7163 65.107 85.3535 65.024 85.0313L65.5883 84.9534L65.7184 85.2887C66.0975 85.0215 66.4866 84.8865 66.8855 84.8837C67.2889 84.8808 67.5857 85.0087 67.7758 85.2674C68.137 85.0048 68.5238 84.8721 68.9362 84.8692C69.3531 84.8662 69.6542 84.9739 69.8395 85.1922C70.0293 85.4106 70.1258 85.7393 70.1289 86.1786L70.1456 88.5319L69.4194 88.537L69.4037 86.3182C69.4006 85.8834 69.2956 85.613 69.0886 85.5069C68.9986 85.4582 68.8842 85.4344 68.7452 85.4353C68.5121 85.437 68.2529 85.5397 67.9674 85.7434C67.9953 85.8822 68.0098 86.0323 68.0109 86.1936L68.0276 88.5469L67.3014 88.552L67.2857 86.3332C67.2838 86.0553 67.2397 85.8382 67.1534 85.6819C67.0671 85.5257 66.894 85.4484 66.634 85.4503C66.374 85.4521 66.1214 85.5503 65.8763 85.7448L65.8962 88.562L65.1701 88.5671L65.1527 86.1197ZM73.6 87.7409L73.8521 88.1964C73.7764 88.2686 73.6156 88.3527 73.3697 88.4486C73.1238 88.5444 72.8597 88.5934 72.5773 88.5954C72.0753 88.5989 71.6685 88.4494 71.3571 88.1468C71.0501 87.8441 70.8945 87.388 70.8902 86.7784C70.8878 86.4422 70.9395 86.146 71.0453 85.8897C71.151 85.629 71.2885 85.4263 71.4578 85.2817C71.8054 84.9923 72.1698 84.8463 72.5508 84.8436C72.9362 84.8409 73.2417 84.9373 73.4673 85.1329C73.6972 85.3241 73.8132 85.5608 73.8152 85.8432C73.8179 86.2153 73.643 86.5213 73.2905 86.7614C72.9381 86.997 72.3719 87.1176 71.5919 87.1231C71.5934 87.3293 71.68 87.5326 71.8517 87.7331C72.028 87.9336 72.2842 88.0326 72.6204 88.0303C72.9611 88.0278 73.2876 87.9314 73.6 87.7409ZM73.1635 85.9084C73.1625 85.7739 73.1101 85.6577 73.0063 85.5598C72.907 85.4574 72.7654 85.4069 72.5817 85.4082C72.2858 85.4103 72.0423 85.5241 71.8512 85.7495C71.6644 85.9705 71.5701 86.2603 71.5682 86.6189C72.635 86.6114 73.1668 86.3745 73.1635 85.9084Z" fill="white"/>
<defs>
<filter id="filter0_d_165_321" x="2.78593" y="5.35547" width="106.825" height="106.825" filterUnits="userSpaceOnUse" color-interpolation-filters="sRGB">
<feFlood flood-opacity="0" result="BackgroundImageFix"/>
<feColorMatrix in="SourceAlpha" type="matrix" values="0 0 0 0 0 0 0 0 0 0 0 0 0 0 0 0 0 0 127 0" result="hardAlpha"/>
<feOffset dy="2.66939"/>
<feGaussianBlur stdDeviation="1.33469"/>
<feComposite in2="hardAlpha" operator="out"/>
<feColorMatrix type="matrix" values="0 0 0 0 0 0 0 0 0 0 0 0 0 0 0 0 0 0 0.25 0"/>
<feBlend mode="normal" in2="BackgroundImageFix" result="effect1_dropShadow_165_321"/>
<feBlend mode="normal" in="SourceGraphic" in2="effect1_dropShadow_165_321" result="shape"/>
</filter>
<radialGradient id="paint0_radial_165_321" cx="0" cy="0" r="1" gradientUnits="userSpaceOnUse" gradientTransform="translate(56.4071 56.4493) rotate(90) scale(56.3908)">
<stop offset="0.0192308" stop-color="#B947EE"/>
<stop offset="0.548077" stop-color="#704ABE"/>
<stop offset="1" stop-color="#264D8E"/>
</radialGradient>
</defs>
</svg>
